<?xml version="1.0" encoding="utf-8" standalone="no"?>
<!DOCTYPE svg PUBLIC "-//W3C//DTD SVG 1.1//EN"
  "http://www.w3.org/Graphics/SVG/1.1/DTD/svg11.dtd">
<svg xmlns:xlink="http://www.w3.org/1999/xlink" width="837.6885pt" height="544.049pt" viewBox="0 0 837.6885 544.049" xmlns="http://www.w3.org/2000/svg" version="1.1">
 <metadata>
  <rdf:RDF xmlns:dc="http://purl.org/dc/elements/1.1/" xmlns:cc="http://creativecommons.org/ns#" xmlns:rdf="http://www.w3.org/1999/02/22-rdf-syntax-ns#">
   <cc:Work>
    <dc:type rdf:resource="http://purl.org/dc/dcmitype/StillImage"/>
    <dc:date>2025-11-26T20:44:20.506257</dc:date>
    <dc:format>image/svg+xml</dc:format>
    <dc:creator>
     <cc:Agent>
      <dc:title>Matplotlib v3.9.2, https://matplotlib.org/</dc:title>
     </cc:Agent>
    </dc:creator>
   </cc:Work>
  </rdf:RDF>
 </metadata>
 <defs>
  <style type="text/css">*{stroke-linejoin: round; stroke-linecap: butt}</style>
 </defs>
 <g id="figure_1">
  <g id="patch_1">
   <path d="M 0 544.049 
L 837.6885 544.049 
L 837.6885 0 
L 0 0 
z
" style="fill: #ffffff"/>
  </g>
  <g id="axes_1">
   <g id="patch_2">
    <path d="M 84.04425 479.394 
L 753.64425 479.394 
L 753.64425 35.874 
L 84.04425 35.874 
z
" style="fill: #ffffff"/>
   </g>
   <g id="patch_3">
    <path d="M 114.480614 479.394 
L 126.655159 479.394 
L 126.655159 479.386912 
L 114.480614 479.386912 
z
" clip-path="url(#pb2ebdac169)" style="fill: #87ceeb; opacity: 0.7; stroke: #000000; stroke-linejoin: miter"/>
   </g>
   <g id="patch_4">
    <path d="M 126.655159 479.394 
L 138.829705 479.394 
L 138.829705 479.375571 
L 126.655159 479.375571 
z
" clip-path="url(#pb2ebdac169)" style="fill: #87ceeb; opacity: 0.7; stroke: #000000; stroke-linejoin: miter"/>
   </g>
   <g id="patch_5">
    <path d="M 138.829705 479.394 
L 151.00425 479.394 
L 151.00425 479.378406 
L 138.829705 479.378406 
z
" clip-path="url(#pb2ebdac169)" style="fill: #87ceeb; opacity: 0.7; stroke: #000000; stroke-linejoin: miter"/>
   </g>
   <g id="patch_6">
    <path d="M 151.00425 479.394 
L 163.178795 479.394 
L 163.178795 479.368483 
L 151.00425 479.368483 
z
" clip-path="url(#pb2ebdac169)" style="fill: #87ceeb; opacity: 0.7; stroke: #000000; stroke-linejoin: miter"/>
   </g>
   <g id="patch_7">
    <path d="M 163.178795 479.394 
L 175.353341 479.394 
L 175.353341 479.348636 
L 163.178795 479.348636 
z
" clip-path="url(#pb2ebdac169)" style="fill: #87ceeb; opacity: 0.7; stroke: #000000; stroke-linejoin: miter"/>
   </g>
   <g id="patch_8">
    <path d="M 175.353341 479.394 
L 187.527886 479.394 
L 187.527886 479.350053 
L 175.353341 479.350053 
z
" clip-path="url(#pb2ebdac169)" style="fill: #87ceeb; opacity: 0.7; stroke: #000000; stroke-linejoin: miter"/>
   </g>
   <g id="patch_9">
    <path d="M 187.527886 479.394 
L 199.702432 479.394 
L 199.702432 479.297601 
L 187.527886 479.297601 
z
" clip-path="url(#pb2ebdac169)" style="fill: #87ceeb; opacity: 0.7; stroke: #000000; stroke-linejoin: miter"/>
   </g>
   <g id="patch_10">
    <path d="M 199.702432 479.394 
L 211.876977 479.394 
L 211.876977 479.171431 
L 199.702432 479.171431 
z
" clip-path="url(#pb2ebdac169)" style="fill: #87ceeb; opacity: 0.7; stroke: #000000; stroke-linejoin: miter"/>
   </g>
   <g id="patch_11">
    <path d="M 211.876977 479.394 
L 224.051523 479.394 
L 224.051523 479.148749 
L 211.876977 479.148749 
z
" clip-path="url(#pb2ebdac169)" style="fill: #87ceeb; opacity: 0.7; stroke: #000000; stroke-linejoin: miter"/>
   </g>
   <g id="patch_12">
    <path d="M 224.051523 479.394 
L 236.226068 479.394 
L 236.226068 478.750394 
L 224.051523 478.750394 
z
" clip-path="url(#pb2ebdac169)" style="fill: #87ceeb; opacity: 0.7; stroke: #000000; stroke-linejoin: miter"/>
   </g>
   <g id="patch_13">
    <path d="M 236.226068 479.394 
L 248.400614 479.394 
L 248.400614 478.383226 
L 236.226068 478.383226 
z
" clip-path="url(#pb2ebdac169)" style="fill: #87ceeb; opacity: 0.7; stroke: #000000; stroke-linejoin: miter"/>
   </g>
   <g id="patch_14">
    <path d="M 248.400614 479.394 
L 260.575159 479.394 
L 260.575159 477.789237 
L 248.400614 477.789237 
z
" clip-path="url(#pb2ebdac169)" style="fill: #87ceeb; opacity: 0.7; stroke: #000000; stroke-linejoin: miter"/>
   </g>
   <g id="patch_15">
    <path d="M 260.575159 479.394 
L 272.749705 479.394 
L 272.749705 476.87628 
L 260.575159 476.87628 
z
" clip-path="url(#pb2ebdac169)" style="fill: #87ceeb; opacity: 0.7; stroke: #000000; stroke-linejoin: miter"/>
   </g>
   <g id="patch_16">
    <path d="M 272.749705 479.394 
L 284.92425 479.394 
L 284.92425 475.530944 
L 272.749705 475.530944 
z
" clip-path="url(#pb2ebdac169)" style="fill: #87ceeb; opacity: 0.7; stroke: #000000; stroke-linejoin: miter"/>
   </g>
   <g id="patch_17">
    <path d="M 284.92425 479.394 
L 297.098795 479.394 
L 297.098795 473.164911 
L 284.92425 473.164911 
z
" clip-path="url(#pb2ebdac169)" style="fill: #87ceeb; opacity: 0.7; stroke: #000000; stroke-linejoin: miter"/>
   </g>
   <g id="patch_18">
    <path d="M 297.098795 479.394 
L 309.273341 479.394 
L 309.273341 470.06029 
L 297.098795 470.06029 
z
" clip-path="url(#pb2ebdac169)" style="fill: #87ceeb; opacity: 0.7; stroke: #000000; stroke-linejoin: miter"/>
   </g>
   <g id="patch_19">
    <path d="M 309.273341 479.394 
L 321.447886 479.394 
L 321.447886 465.128337 
L 309.273341 465.128337 
z
" clip-path="url(#pb2ebdac169)" style="fill: #87ceeb; opacity: 0.7; stroke: #000000; stroke-linejoin: miter"/>
   </g>
   <g id="patch_20">
    <path d="M 321.447886 479.394 
L 333.622432 479.394 
L 333.622432 457.943762 
L 321.447886 457.943762 
z
" clip-path="url(#pb2ebdac169)" style="fill: #87ceeb; opacity: 0.7; stroke: #000000; stroke-linejoin: miter"/>
   </g>
   <g id="patch_21">
    <path d="M 333.622432 479.394 
L 345.796977 479.394 
L 345.796977 447.385215 
L 333.622432 447.385215 
z
" clip-path="url(#pb2ebdac169)" style="fill: #87ceeb; opacity: 0.7; stroke: #000000; stroke-linejoin: miter"/>
   </g>
   <g id="patch_22">
    <path d="M 345.796977 479.394 
L 357.971523 479.394 
L 357.971523 432.891313 
L 345.796977 432.891313 
z
" clip-path="url(#pb2ebdac169)" style="fill: #87ceeb; opacity: 0.7; stroke: #000000; stroke-linejoin: miter"/>
   </g>
   <g id="patch_23">
    <path d="M 357.971523 479.394 
L 370.146068 479.394 
L 370.146068 414.976657 
L 357.971523 414.976657 
z
" clip-path="url(#pb2ebdac169)" style="fill: #87ceeb; opacity: 0.7; stroke: #000000; stroke-linejoin: miter"/>
   </g>
   <g id="patch_24">
    <path d="M 370.146068 479.394 
L 382.320614 479.394 
L 382.320614 388.834046 
L 370.146068 388.834046 
z
" clip-path="url(#pb2ebdac169)" style="fill: #87ceeb; opacity: 0.7; stroke: #000000; stroke-linejoin: miter"/>
   </g>
   <g id="patch_25">
    <path d="M 382.320614 479.394 
L 394.495159 479.394 
L 394.495159 358.364813 
L 382.320614 358.364813 
z
" clip-path="url(#pb2ebdac169)" style="fill: #87ceeb; opacity: 0.7; stroke: #000000; stroke-linejoin: miter"/>
   </g>
   <g id="patch_26">
    <path d="M 394.495159 479.394 
L 406.669705 479.394 
L 406.669705 318.549111 
L 394.495159 318.549111 
z
" clip-path="url(#pb2ebdac169)" style="fill: #87ceeb; opacity: 0.7; stroke: #000000; stroke-linejoin: miter"/>
   </g>
   <g id="patch_27">
    <path d="M 406.669705 479.394 
L 418.84425 479.394 
L 418.84425 271.541746 
L 406.669705 271.541746 
z
" clip-path="url(#pb2ebdac169)" style="fill: #87ceeb; opacity: 0.7; stroke: #000000; stroke-linejoin: miter"/>
   </g>
   <g id="patch_28">
    <path d="M 418.84425 479.394 
L 431.018795 479.394 
L 431.018795 218.573224 
L 418.84425 218.573224 
z
" clip-path="url(#pb2ebdac169)" style="fill: #87ceeb; opacity: 0.7; stroke: #000000; stroke-linejoin: miter"/>
   </g>
   <g id="patch_29">
    <path d="M 431.018795 479.394 
L 443.193341 479.394 
L 443.193341 165.813095 
L 431.018795 165.813095 
z
" clip-path="url(#pb2ebdac169)" style="fill: #87ceeb; opacity: 0.7; stroke: #000000; stroke-linejoin: miter"/>
   </g>
   <g id="patch_30">
    <path d="M 443.193341 479.394 
L 455.367886 479.394 
L 455.367886 112.524188 
L 443.193341 112.524188 
z
" clip-path="url(#pb2ebdac169)" style="fill: #87ceeb; opacity: 0.7; stroke: #000000; stroke-linejoin: miter"/>
   </g>
   <g id="patch_31">
    <path d="M 455.367886 479.394 
L 467.542432 479.394 
L 467.542432 73.583167 
L 455.367886 73.583167 
z
" clip-path="url(#pb2ebdac169)" style="fill: #87ceeb; opacity: 0.7; stroke: #000000; stroke-linejoin: miter"/>
   </g>
   <g id="patch_32">
    <path d="M 467.542432 479.394 
L 479.716977 479.394 
L 479.716977 56.994 
L 467.542432 56.994 
z
" clip-path="url(#pb2ebdac169)" style="fill: #87ceeb; opacity: 0.7; stroke: #000000; stroke-linejoin: miter"/>
   </g>
   <g id="patch_33">
    <path d="M 479.716977 479.394 
L 491.891523 479.394 
L 491.891523 66.520509 
L 479.716977 66.520509 
z
" clip-path="url(#pb2ebdac169)" style="fill: #87ceeb; opacity: 0.7; stroke: #000000; stroke-linejoin: miter"/>
   </g>
   <g id="patch_34">
    <path d="M 491.891523 479.394 
L 504.066068 479.394 
L 504.066068 103.868108 
L 491.891523 103.868108 
z
" clip-path="url(#pb2ebdac169)" style="fill: #87ceeb; opacity: 0.7; stroke: #000000; stroke-linejoin: miter"/>
   </g>
   <g id="patch_35">
    <path d="M 504.066068 479.394 
L 516.240614 479.394 
L 516.240614 168.346409 
L 504.066068 168.346409 
z
" clip-path="url(#pb2ebdac169)" style="fill: #87ceeb; opacity: 0.7; stroke: #000000; stroke-linejoin: miter"/>
   </g>
   <g id="patch_36">
    <path d="M 516.240614 479.394 
L 528.415159 479.394 
L 528.415159 248.995675 
L 516.240614 248.995675 
z
" clip-path="url(#pb2ebdac169)" style="fill: #87ceeb; opacity: 0.7; stroke: #000000; stroke-linejoin: miter"/>
   </g>
   <g id="patch_37">
    <path d="M 528.415159 479.394 
L 540.589705 479.394 
L 540.589705 325.362266 
L 528.415159 325.362266 
z
" clip-path="url(#pb2ebdac169)" style="fill: #87ceeb; opacity: 0.7; stroke: #000000; stroke-linejoin: miter"/>
   </g>
   <g id="patch_38">
    <path d="M 540.589705 479.394 
L 552.76425 479.394 
L 552.76425 381.774223 
L 540.589705 381.774223 
z
" clip-path="url(#pb2ebdac169)" style="fill: #87ceeb; opacity: 0.7; stroke: #000000; stroke-linejoin: miter"/>
   </g>
   <g id="patch_39">
    <path d="M 552.76425 479.394 
L 564.938795 479.394 
L 564.938795 423.252811 
L 552.76425 423.252811 
z
" clip-path="url(#pb2ebdac169)" style="fill: #87ceeb; opacity: 0.7; stroke: #000000; stroke-linejoin: miter"/>
   </g>
   <g id="patch_40">
    <path d="M 564.938795 479.394 
L 577.113341 479.394 
L 577.113341 448.737639 
L 564.938795 448.737639 
z
" clip-path="url(#pb2ebdac169)" style="fill: #87ceeb; opacity: 0.7; stroke: #000000; stroke-linejoin: miter"/>
   </g>
   <g id="patch_41">
    <path d="M 577.113341 479.394 
L 589.287886 479.394 
L 589.287886 463.139395 
L 577.113341 463.139395 
z
" clip-path="url(#pb2ebdac169)" style="fill: #87ceeb; opacity: 0.7; stroke: #000000; stroke-linejoin: miter"/>
   </g>
   <g id="patch_42">
    <path d="M 589.287886 479.394 
L 601.462432 479.394 
L 601.462432 471.896127 
L 589.287886 471.896127 
z
" clip-path="url(#pb2ebdac169)" style="fill: #87ceeb; opacity: 0.7; stroke: #000000; stroke-linejoin: miter"/>
   </g>
   <g id="patch_43">
    <path d="M 601.462432 479.394 
L 613.636977 479.394 
L 613.636977 475.956235 
L 601.462432 475.956235 
z
" clip-path="url(#pb2ebdac169)" style="fill: #87ceeb; opacity: 0.7; stroke: #000000; stroke-linejoin: miter"/>
   </g>
   <g id="patch_44">
    <path d="M 613.636977 479.394 
L 625.811523 479.394 
L 625.811523 477.728279 
L 613.636977 477.728279 
z
" clip-path="url(#pb2ebdac169)" style="fill: #87ceeb; opacity: 0.7; stroke: #000000; stroke-linejoin: miter"/>
   </g>
   <g id="patch_45">
    <path d="M 625.811523 479.394 
L 637.986068 479.394 
L 637.986068 478.544837 
L 625.811523 478.544837 
z
" clip-path="url(#pb2ebdac169)" style="fill: #87ceeb; opacity: 0.7; stroke: #000000; stroke-linejoin: miter"/>
   </g>
   <g id="patch_46">
    <path d="M 637.986068 479.394 
L 650.160614 479.394 
L 650.160614 479.059438 
L 637.986068 479.059438 
z
" clip-path="url(#pb2ebdac169)" style="fill: #87ceeb; opacity: 0.7; stroke: #000000; stroke-linejoin: miter"/>
   </g>
   <g id="patch_47">
    <path d="M 650.160614 479.394 
L 662.335159 479.394 
L 662.335159 479.226719 
L 650.160614 479.226719 
z
" clip-path="url(#pb2ebdac169)" style="fill: #87ceeb; opacity: 0.7; stroke: #000000; stroke-linejoin: miter"/>
   </g>
   <g id="patch_48">
    <path d="M 662.335159 479.394 
L 674.509705 479.394 
L 674.509705 479.348636 
L 662.335159 479.348636 
z
" clip-path="url(#pb2ebdac169)" style="fill: #87ceeb; opacity: 0.7; stroke: #000000; stroke-linejoin: miter"/>
   </g>
   <g id="patch_49">
    <path d="M 674.509705 479.394 
L 686.68425 479.394 
L 686.68425 479.384077 
L 674.509705 479.384077 
z
" clip-path="url(#pb2ebdac169)" style="fill: #87ceeb; opacity: 0.7; stroke: #000000; stroke-linejoin: miter"/>
   </g>
   <g id="patch_50">
    <path d="M 686.68425 479.394 
L 698.858795 479.394 
L 698.858795 479.384077 
L 686.68425 479.384077 
z
" clip-path="url(#pb2ebdac169)" style="fill: #87ceeb; opacity: 0.7; stroke: #000000; stroke-linejoin: miter"/>
   </g>
   <g id="patch_51">
    <path d="M 698.858795 479.394 
L 711.033341 479.394 
L 711.033341 479.394 
L 698.858795 479.394 
z
" clip-path="url(#pb2ebdac169)" style="fill: #87ceeb; opacity: 0.7; stroke: #000000; stroke-linejoin: miter"/>
   </g>
   <g id="patch_52">
    <path d="M 711.033341 479.394 
L 723.207886 479.394 
L 723.207886 479.391165 
L 711.033341 479.391165 
z
" clip-path="url(#pb2ebdac169)" style="fill: #87ceeb; opacity: 0.7; stroke: #000000; stroke-linejoin: miter"/>
   </g>
   <g id="matplotlib.axis_1">
    <g id="xtick_1">
     <g id="line2d_1">
      <path d="M 167.232916 479.394 
L 167.232916 35.874 
" clip-path="url(#pb2ebdac169)" style="fill: none; stroke: #b0b0b0; stroke-opacity: 0.3; stroke-width: 0.8; stroke-linecap: square"/>
     </g>
     <g id="line2d_2">
      <defs>
       <path id="m2ba9e413a3" d="M 0 0 
L 0 3.5 
" style="stroke: #000000; stroke-width: 0.8"/>
      </defs>
      <g>
       <use xlink:href="#m2ba9e413a3" x="167.232916" y="479.394" style="stroke: #000000; stroke-width: 0.8"/>
      </g>
     </g>
     <g id="text_1">
      <!-- −1.00 -->
      <g transform="translate(130.458541 504.63025) scale(0.24 -0.24)">
       <defs>
        <path id="DejaVuSans-2212" d="M 678 2272 
L 4684 2272 
L 4684 1741 
L 678 1741 
L 678 2272 
z
" transform="scale(0.015625)"/>
        <path id="DejaVuSans-31" d="M 794 531 
L 1825 531 
L 1825 4091 
L 703 3866 
L 703 4441 
L 1819 4666 
L 2450 4666 
L 2450 531 
L 3481 531 
L 3481 0 
L 794 0 
L 794 531 
z
" transform="scale(0.015625)"/>
        <path id="DejaVuSans-2e" d="M 684 794 
L 1344 794 
L 1344 0 
L 684 0 
L 684 794 
z
" transform="scale(0.015625)"/>
        <path id="DejaVuSans-30" d="M 2034 4250 
Q 1547 4250 1301 3770 
Q 1056 3291 1056 2328 
Q 1056 1369 1301 889 
Q 1547 409 2034 409 
Q 2525 409 2770 889 
Q 3016 1369 3016 2328 
Q 3016 3291 2770 3770 
Q 2525 4250 2034 4250 
z
M 2034 4750 
Q 2819 4750 3233 4129 
Q 3647 3509 3647 2328 
Q 3647 1150 3233 529 
Q 2819 -91 2034 -91 
Q 1250 -91 836 529 
Q 422 1150 422 2328 
Q 422 3509 836 4129 
Q 1250 4750 2034 4750 
z
" transform="scale(0.015625)"/>
       </defs>
       <use xlink:href="#DejaVuSans-2212"/>
       <use xlink:href="#DejaVuSans-31" x="83.789062"/>
       <use xlink:href="#DejaVuSans-2e" x="147.412109"/>
       <use xlink:href="#DejaVuSans-30" x="179.199219"/>
       <use xlink:href="#DejaVuSans-30" x="242.822266"/>
      </g>
     </g>
    </g>
    <g id="xtick_2">
     <g id="line2d_3">
      <path d="M 251.962496 479.394 
L 251.962496 35.874 
" clip-path="url(#pb2ebdac169)" style="fill: none; stroke: #b0b0b0; stroke-opacity: 0.3; stroke-width: 0.8; stroke-linecap: square"/>
     </g>
     <g id="line2d_4">
      <g>
       <use xlink:href="#m2ba9e413a3" x="251.962496" y="479.394" style="stroke: #000000; stroke-width: 0.8"/>
      </g>
     </g>
     <g id="text_2">
      <!-- −0.75 -->
      <g transform="translate(215.188121 504.63025) scale(0.24 -0.24)">
       <defs>
        <path id="DejaVuSans-37" d="M 525 4666 
L 3525 4666 
L 3525 4397 
L 1831 0 
L 1172 0 
L 2766 4134 
L 525 4134 
L 525 4666 
z
" transform="scale(0.015625)"/>
        <path id="DejaVuSans-35" d="M 691 4666 
L 3169 4666 
L 3169 4134 
L 1269 4134 
L 1269 2991 
Q 1406 3038 1543 3061 
Q 1681 3084 1819 3084 
Q 2600 3084 3056 2656 
Q 3513 2228 3513 1497 
Q 3513 744 3044 326 
Q 2575 -91 1722 -91 
Q 1428 -91 1123 -41 
Q 819 9 494 109 
L 494 744 
Q 775 591 1075 516 
Q 1375 441 1709 441 
Q 2250 441 2565 725 
Q 2881 1009 2881 1497 
Q 2881 1984 2565 2268 
Q 2250 2553 1709 2553 
Q 1456 2553 1204 2497 
Q 953 2441 691 2322 
L 691 4666 
z
" transform="scale(0.015625)"/>
       </defs>
       <use xlink:href="#DejaVuSans-2212"/>
       <use xlink:href="#DejaVuSans-30" x="83.789062"/>
       <use xlink:href="#DejaVuSans-2e" x="147.412109"/>
       <use xlink:href="#DejaVuSans-37" x="179.199219"/>
       <use xlink:href="#DejaVuSans-35" x="242.822266"/>
      </g>
     </g>
    </g>
    <g id="xtick_3">
     <g id="line2d_5">
      <path d="M 336.692076 479.394 
L 336.692076 35.874 
" clip-path="url(#pb2ebdac169)" style="fill: none; stroke: #b0b0b0; stroke-opacity: 0.3; stroke-width: 0.8; stroke-linecap: square"/>
     </g>
     <g id="line2d_6">
      <g>
       <use xlink:href="#m2ba9e413a3" x="336.692076" y="479.394" style="stroke: #000000; stroke-width: 0.8"/>
      </g>
     </g>
     <g id="text_3">
      <!-- −0.50 -->
      <g transform="translate(299.917701 504.63025) scale(0.24 -0.24)">
       <use xlink:href="#DejaVuSans-2212"/>
       <use xlink:href="#DejaVuSans-30" x="83.789062"/>
       <use xlink:href="#DejaVuSans-2e" x="147.412109"/>
       <use xlink:href="#DejaVuSans-35" x="179.199219"/>
       <use xlink:href="#DejaVuSans-30" x="242.822266"/>
      </g>
     </g>
    </g>
    <g id="xtick_4">
     <g id="line2d_7">
      <path d="M 421.421656 479.394 
L 421.421656 35.874 
" clip-path="url(#pb2ebdac169)" style="fill: none; stroke: #b0b0b0; stroke-opacity: 0.3; stroke-width: 0.8; stroke-linecap: square"/>
     </g>
     <g id="line2d_8">
      <g>
       <use xlink:href="#m2ba9e413a3" x="421.421656" y="479.394" style="stroke: #000000; stroke-width: 0.8"/>
      </g>
     </g>
     <g id="text_4">
      <!-- −0.25 -->
      <g transform="translate(384.647281 504.63025) scale(0.24 -0.24)">
       <defs>
        <path id="DejaVuSans-32" d="M 1228 531 
L 3431 531 
L 3431 0 
L 469 0 
L 469 531 
Q 828 903 1448 1529 
Q 2069 2156 2228 2338 
Q 2531 2678 2651 2914 
Q 2772 3150 2772 3378 
Q 2772 3750 2511 3984 
Q 2250 4219 1831 4219 
Q 1534 4219 1204 4116 
Q 875 4013 500 3803 
L 500 4441 
Q 881 4594 1212 4672 
Q 1544 4750 1819 4750 
Q 2544 4750 2975 4387 
Q 3406 4025 3406 3419 
Q 3406 3131 3298 2873 
Q 3191 2616 2906 2266 
Q 2828 2175 2409 1742 
Q 1991 1309 1228 531 
z
" transform="scale(0.015625)"/>
       </defs>
       <use xlink:href="#DejaVuSans-2212"/>
       <use xlink:href="#DejaVuSans-30" x="83.789062"/>
       <use xlink:href="#DejaVuSans-2e" x="147.412109"/>
       <use xlink:href="#DejaVuSans-32" x="179.199219"/>
       <use xlink:href="#DejaVuSans-35" x="242.822266"/>
      </g>
     </g>
    </g>
    <g id="xtick_5">
     <g id="line2d_9">
      <path d="M 506.151236 479.394 
L 506.151236 35.874 
" clip-path="url(#pb2ebdac169)" style="fill: none; stroke: #b0b0b0; stroke-opacity: 0.3; stroke-width: 0.8; stroke-linecap: square"/>
     </g>
     <g id="line2d_10">
      <g>
       <use xlink:href="#m2ba9e413a3" x="506.151236" y="479.394" style="stroke: #000000; stroke-width: 0.8"/>
      </g>
     </g>
     <g id="text_5">
      <!-- 0.00 -->
      <g transform="translate(479.432486 504.63025) scale(0.24 -0.24)">
       <use xlink:href="#DejaVuSans-30"/>
       <use xlink:href="#DejaVuSans-2e" x="63.623047"/>
       <use xlink:href="#DejaVuSans-30" x="95.410156"/>
       <use xlink:href="#DejaVuSans-30" x="159.033203"/>
      </g>
     </g>
    </g>
    <g id="xtick_6">
     <g id="line2d_11">
      <path d="M 590.880816 479.394 
L 590.880816 35.874 
" clip-path="url(#pb2ebdac169)" style="fill: none; stroke: #b0b0b0; stroke-opacity: 0.3; stroke-width: 0.8; stroke-linecap: square"/>
     </g>
     <g id="line2d_12">
      <g>
       <use xlink:href="#m2ba9e413a3" x="590.880816" y="479.394" style="stroke: #000000; stroke-width: 0.8"/>
      </g>
     </g>
     <g id="text_6">
      <!-- 0.25 -->
      <g transform="translate(564.162066 504.63025) scale(0.24 -0.24)">
       <use xlink:href="#DejaVuSans-30"/>
       <use xlink:href="#DejaVuSans-2e" x="63.623047"/>
       <use xlink:href="#DejaVuSans-32" x="95.410156"/>
       <use xlink:href="#DejaVuSans-35" x="159.033203"/>
      </g>
     </g>
    </g>
    <g id="xtick_7">
     <g id="line2d_13">
      <path d="M 675.610396 479.394 
L 675.610396 35.874 
" clip-path="url(#pb2ebdac169)" style="fill: none; stroke: #b0b0b0; stroke-opacity: 0.3; stroke-width: 0.8; stroke-linecap: square"/>
     </g>
     <g id="line2d_14">
      <g>
       <use xlink:href="#m2ba9e413a3" x="675.610396" y="479.394" style="stroke: #000000; stroke-width: 0.8"/>
      </g>
     </g>
     <g id="text_7">
      <!-- 0.50 -->
      <g transform="translate(648.891646 504.63025) scale(0.24 -0.24)">
       <use xlink:href="#DejaVuSans-30"/>
       <use xlink:href="#DejaVuSans-2e" x="63.623047"/>
       <use xlink:href="#DejaVuSans-35" x="95.410156"/>
       <use xlink:href="#DejaVuSans-30" x="159.033203"/>
      </g>
     </g>
    </g>
    <g id="text_8">
     <!-- Coefficient Value -->
     <g transform="translate(317.562375 531.85775) scale(0.24 -0.24)">
      <defs>
       <path id="DejaVuSans-43" d="M 4122 4306 
L 4122 3641 
Q 3803 3938 3442 4084 
Q 3081 4231 2675 4231 
Q 1875 4231 1450 3742 
Q 1025 3253 1025 2328 
Q 1025 1406 1450 917 
Q 1875 428 2675 428 
Q 3081 428 3442 575 
Q 3803 722 4122 1019 
L 4122 359 
Q 3791 134 3420 21 
Q 3050 -91 2638 -91 
Q 1578 -91 968 557 
Q 359 1206 359 2328 
Q 359 3453 968 4101 
Q 1578 4750 2638 4750 
Q 3056 4750 3426 4639 
Q 3797 4528 4122 4306 
z
" transform="scale(0.015625)"/>
       <path id="DejaVuSans-6f" d="M 1959 3097 
Q 1497 3097 1228 2736 
Q 959 2375 959 1747 
Q 959 1119 1226 758 
Q 1494 397 1959 397 
Q 2419 397 2687 759 
Q 2956 1122 2956 1747 
Q 2956 2369 2687 2733 
Q 2419 3097 1959 3097 
z
M 1959 3584 
Q 2709 3584 3137 3096 
Q 3566 2609 3566 1747 
Q 3566 888 3137 398 
Q 2709 -91 1959 -91 
Q 1206 -91 779 398 
Q 353 888 353 1747 
Q 353 2609 779 3096 
Q 1206 3584 1959 3584 
z
" transform="scale(0.015625)"/>
       <path id="DejaVuSans-65" d="M 3597 1894 
L 3597 1613 
L 953 1613 
Q 991 1019 1311 708 
Q 1631 397 2203 397 
Q 2534 397 2845 478 
Q 3156 559 3463 722 
L 3463 178 
Q 3153 47 2828 -22 
Q 2503 -91 2169 -91 
Q 1331 -91 842 396 
Q 353 884 353 1716 
Q 353 2575 817 3079 
Q 1281 3584 2069 3584 
Q 2775 3584 3186 3129 
Q 3597 2675 3597 1894 
z
M 3022 2063 
Q 3016 2534 2758 2815 
Q 2500 3097 2075 3097 
Q 1594 3097 1305 2825 
Q 1016 2553 972 2059 
L 3022 2063 
z
" transform="scale(0.015625)"/>
       <path id="DejaVuSans-66" d="M 2375 4863 
L 2375 4384 
L 1825 4384 
Q 1516 4384 1395 4259 
Q 1275 4134 1275 3809 
L 1275 3500 
L 2222 3500 
L 2222 3053 
L 1275 3053 
L 1275 0 
L 697 0 
L 697 3053 
L 147 3053 
L 147 3500 
L 697 3500 
L 697 3744 
Q 697 4328 969 4595 
Q 1241 4863 1831 4863 
L 2375 4863 
z
" transform="scale(0.015625)"/>
       <path id="DejaVuSans-69" d="M 603 3500 
L 1178 3500 
L 1178 0 
L 603 0 
L 603 3500 
z
M 603 4863 
L 1178 4863 
L 1178 4134 
L 603 4134 
L 603 4863 
z
" transform="scale(0.015625)"/>
       <path id="DejaVuSans-63" d="M 3122 3366 
L 3122 2828 
Q 2878 2963 2633 3030 
Q 2388 3097 2138 3097 
Q 1578 3097 1268 2742 
Q 959 2388 959 1747 
Q 959 1106 1268 751 
Q 1578 397 2138 397 
Q 2388 397 2633 464 
Q 2878 531 3122 666 
L 3122 134 
Q 2881 22 2623 -34 
Q 2366 -91 2075 -91 
Q 1284 -91 818 406 
Q 353 903 353 1747 
Q 353 2603 823 3093 
Q 1294 3584 2113 3584 
Q 2378 3584 2631 3529 
Q 2884 3475 3122 3366 
z
" transform="scale(0.015625)"/>
       <path id="DejaVuSans-6e" d="M 3513 2113 
L 3513 0 
L 2938 0 
L 2938 2094 
Q 2938 2591 2744 2837 
Q 2550 3084 2163 3084 
Q 1697 3084 1428 2787 
Q 1159 2491 1159 1978 
L 1159 0 
L 581 0 
L 581 3500 
L 1159 3500 
L 1159 2956 
Q 1366 3272 1645 3428 
Q 1925 3584 2291 3584 
Q 2894 3584 3203 3211 
Q 3513 2838 3513 2113 
z
" transform="scale(0.015625)"/>
       <path id="DejaVuSans-74" d="M 1172 4494 
L 1172 3500 
L 2356 3500 
L 2356 3053 
L 1172 3053 
L 1172 1153 
Q 1172 725 1289 603 
Q 1406 481 1766 481 
L 2356 481 
L 2356 0 
L 1766 0 
Q 1100 0 847 248 
Q 594 497 594 1153 
L 594 3053 
L 172 3053 
L 172 3500 
L 594 3500 
L 594 4494 
L 1172 4494 
z
" transform="scale(0.015625)"/>
       <path id="DejaVuSans-20" transform="scale(0.015625)"/>
       <path id="DejaVuSans-56" d="M 1831 0 
L 50 4666 
L 709 4666 
L 2188 738 
L 3669 4666 
L 4325 4666 
L 2547 0 
L 1831 0 
z
" transform="scale(0.015625)"/>
       <path id="DejaVuSans-61" d="M 2194 1759 
Q 1497 1759 1228 1600 
Q 959 1441 959 1056 
Q 959 750 1161 570 
Q 1363 391 1709 391 
Q 2188 391 2477 730 
Q 2766 1069 2766 1631 
L 2766 1759 
L 2194 1759 
z
M 3341 1997 
L 3341 0 
L 2766 0 
L 2766 531 
Q 2569 213 2275 61 
Q 1981 -91 1556 -91 
Q 1019 -91 701 211 
Q 384 513 384 1019 
Q 384 1609 779 1909 
Q 1175 2209 1959 2209 
L 2766 2209 
L 2766 2266 
Q 2766 2663 2505 2880 
Q 2244 3097 1772 3097 
Q 1472 3097 1187 3025 
Q 903 2953 641 2809 
L 641 3341 
Q 956 3463 1253 3523 
Q 1550 3584 1831 3584 
Q 2591 3584 2966 3190 
Q 3341 2797 3341 1997 
z
" transform="scale(0.015625)"/>
       <path id="DejaVuSans-6c" d="M 603 4863 
L 1178 4863 
L 1178 0 
L 603 0 
L 603 4863 
z
" transform="scale(0.015625)"/>
       <path id="DejaVuSans-75" d="M 544 1381 
L 544 3500 
L 1119 3500 
L 1119 1403 
Q 1119 906 1312 657 
Q 1506 409 1894 409 
Q 2359 409 2629 706 
Q 2900 1003 2900 1516 
L 2900 3500 
L 3475 3500 
L 3475 0 
L 2900 0 
L 2900 538 
Q 2691 219 2414 64 
Q 2138 -91 1772 -91 
Q 1169 -91 856 284 
Q 544 659 544 1381 
z
M 1991 3584 
L 1991 3584 
z
" transform="scale(0.015625)"/>
      </defs>
      <use xlink:href="#DejaVuSans-43"/>
      <use xlink:href="#DejaVuSans-6f" x="69.824219"/>
      <use xlink:href="#DejaVuSans-65" x="131.005859"/>
      <use xlink:href="#DejaVuSans-66" x="192.529297"/>
      <use xlink:href="#DejaVuSans-66" x="227.734375"/>
      <use xlink:href="#DejaVuSans-69" x="262.939453"/>
      <use xlink:href="#DejaVuSans-63" x="290.722656"/>
      <use xlink:href="#DejaVuSans-69" x="345.703125"/>
      <use xlink:href="#DejaVuSans-65" x="373.486328"/>
      <use xlink:href="#DejaVuSans-6e" x="435.009766"/>
      <use xlink:href="#DejaVuSans-74" x="498.388672"/>
      <use xlink:href="#DejaVuSans-20" x="537.597656"/>
      <use xlink:href="#DejaVuSans-56" x="569.384766"/>
      <use xlink:href="#DejaVuSans-61" x="630.042969"/>
      <use xlink:href="#DejaVuSans-6c" x="691.322266"/>
      <use xlink:href="#DejaVuSans-75" x="719.105469"/>
      <use xlink:href="#DejaVuSans-65" x="782.484375"/>
     </g>
    </g>
   </g>
   <g id="matplotlib.axis_2">
    <g id="ytick_1">
     <g id="line2d_15">
      <path d="M 84.04425 479.394 
L 753.64425 479.394 
" clip-path="url(#pb2ebdac169)" style="fill: none; stroke: #b0b0b0; stroke-opacity: 0.3; stroke-width: 0.8; stroke-linecap: square"/>
     </g>
     <g id="line2d_16">
      <defs>
       <path id="m3ae40c115d" d="M 0 0 
L -3.5 0 
" style="stroke: #000000; stroke-width: 0.8"/>
      </defs>
      <g>
       <use xlink:href="#m3ae40c115d" x="84.04425" y="479.394" style="stroke: #000000; stroke-width: 0.8"/>
      </g>
     </g>
     <g id="text_9">
      <!-- 0.0 -->
      <g transform="translate(38.87675 488.512125) scale(0.24 -0.24)">
       <use xlink:href="#DejaVuSans-30"/>
       <use xlink:href="#DejaVuSans-2e" x="63.623047"/>
       <use xlink:href="#DejaVuSans-30" x="95.410156"/>
      </g>
     </g>
    </g>
    <g id="ytick_2">
     <g id="line2d_17">
      <path d="M 84.04425 403.008055 
L 753.64425 403.008055 
" clip-path="url(#pb2ebdac169)" style="fill: none; stroke: #b0b0b0; stroke-opacity: 0.3; stroke-width: 0.8; stroke-linecap: square"/>
     </g>
     <g id="line2d_18">
      <g>
       <use xlink:href="#m3ae40c115d" x="84.04425" y="403.008055" style="stroke: #000000; stroke-width: 0.8"/>
      </g>
     </g>
     <g id="text_10">
      <!-- 0.5 -->
      <g transform="translate(38.87675 412.12618) scale(0.24 -0.24)">
       <use xlink:href="#DejaVuSans-30"/>
       <use xlink:href="#DejaVuSans-2e" x="63.623047"/>
       <use xlink:href="#DejaVuSans-35" x="95.410156"/>
      </g>
     </g>
    </g>
    <g id="ytick_3">
     <g id="line2d_19">
      <path d="M 84.04425 326.62211 
L 753.64425 326.62211 
" clip-path="url(#pb2ebdac169)" style="fill: none; stroke: #b0b0b0; stroke-opacity: 0.3; stroke-width: 0.8; stroke-linecap: square"/>
     </g>
     <g id="line2d_20">
      <g>
       <use xlink:href="#m3ae40c115d" x="84.04425" y="326.62211" style="stroke: #000000; stroke-width: 0.8"/>
      </g>
     </g>
     <g id="text_11">
      <!-- 1.0 -->
      <g transform="translate(38.87675 335.740235) scale(0.24 -0.24)">
       <use xlink:href="#DejaVuSans-31"/>
       <use xlink:href="#DejaVuSans-2e" x="63.623047"/>
       <use xlink:href="#DejaVuSans-30" x="95.410156"/>
      </g>
     </g>
    </g>
    <g id="ytick_4">
     <g id="line2d_21">
      <path d="M 84.04425 250.236165 
L 753.64425 250.236165 
" clip-path="url(#pb2ebdac169)" style="fill: none; stroke: #b0b0b0; stroke-opacity: 0.3; stroke-width: 0.8; stroke-linecap: square"/>
     </g>
     <g id="line2d_22">
      <g>
       <use xlink:href="#m3ae40c115d" x="84.04425" y="250.236165" style="stroke: #000000; stroke-width: 0.8"/>
      </g>
     </g>
     <g id="text_12">
      <!-- 1.5 -->
      <g transform="translate(38.87675 259.35429) scale(0.24 -0.24)">
       <use xlink:href="#DejaVuSans-31"/>
       <use xlink:href="#DejaVuSans-2e" x="63.623047"/>
       <use xlink:href="#DejaVuSans-35" x="95.410156"/>
      </g>
     </g>
    </g>
    <g id="ytick_5">
     <g id="line2d_23">
      <path d="M 84.04425 173.85022 
L 753.64425 173.85022 
" clip-path="url(#pb2ebdac169)" style="fill: none; stroke: #b0b0b0; stroke-opacity: 0.3; stroke-width: 0.8; stroke-linecap: square"/>
     </g>
     <g id="line2d_24">
      <g>
       <use xlink:href="#m3ae40c115d" x="84.04425" y="173.85022" style="stroke: #000000; stroke-width: 0.8"/>
      </g>
     </g>
     <g id="text_13">
      <!-- 2.0 -->
      <g transform="translate(38.87675 182.968345) scale(0.24 -0.24)">
       <use xlink:href="#DejaVuSans-32"/>
       <use xlink:href="#DejaVuSans-2e" x="63.623047"/>
       <use xlink:href="#DejaVuSans-30" x="95.410156"/>
      </g>
     </g>
    </g>
    <g id="ytick_6">
     <g id="line2d_25">
      <path d="M 84.04425 97.464275 
L 753.64425 97.464275 
" clip-path="url(#pb2ebdac169)" style="fill: none; stroke: #b0b0b0; stroke-opacity: 0.3; stroke-width: 0.8; stroke-linecap: square"/>
     </g>
     <g id="line2d_26">
      <g>
       <use xlink:href="#m3ae40c115d" x="84.04425" y="97.464275" style="stroke: #000000; stroke-width: 0.8"/>
      </g>
     </g>
     <g id="text_14">
      <!-- 2.5 -->
      <g transform="translate(38.87675 106.5824) scale(0.24 -0.24)">
       <use xlink:href="#DejaVuSans-32"/>
       <use xlink:href="#DejaVuSans-2e" x="63.623047"/>
       <use xlink:href="#DejaVuSans-35" x="95.410156"/>
      </g>
     </g>
    </g>
    <g id="text_15">
     <!-- Density -->
     <g transform="translate(29.8855 303.254625) rotate(-90) scale(0.24 -0.24)">
      <defs>
       <path id="DejaVuSans-44" d="M 1259 4147 
L 1259 519 
L 2022 519 
Q 2988 519 3436 956 
Q 3884 1394 3884 2338 
Q 3884 3275 3436 3711 
Q 2988 4147 2022 4147 
L 1259 4147 
z
M 628 4666 
L 1925 4666 
Q 3281 4666 3915 4102 
Q 4550 3538 4550 2338 
Q 4550 1131 3912 565 
Q 3275 0 1925 0 
L 628 0 
L 628 4666 
z
" transform="scale(0.015625)"/>
       <path id="DejaVuSans-73" d="M 2834 3397 
L 2834 2853 
Q 2591 2978 2328 3040 
Q 2066 3103 1784 3103 
Q 1356 3103 1142 2972 
Q 928 2841 928 2578 
Q 928 2378 1081 2264 
Q 1234 2150 1697 2047 
L 1894 2003 
Q 2506 1872 2764 1633 
Q 3022 1394 3022 966 
Q 3022 478 2636 193 
Q 2250 -91 1575 -91 
Q 1294 -91 989 -36 
Q 684 19 347 128 
L 347 722 
Q 666 556 975 473 
Q 1284 391 1588 391 
Q 1994 391 2212 530 
Q 2431 669 2431 922 
Q 2431 1156 2273 1281 
Q 2116 1406 1581 1522 
L 1381 1569 
Q 847 1681 609 1914 
Q 372 2147 372 2553 
Q 372 3047 722 3315 
Q 1072 3584 1716 3584 
Q 2034 3584 2315 3537 
Q 2597 3491 2834 3397 
z
" transform="scale(0.015625)"/>
       <path id="DejaVuSans-79" d="M 2059 -325 
Q 1816 -950 1584 -1140 
Q 1353 -1331 966 -1331 
L 506 -1331 
L 506 -850 
L 844 -850 
Q 1081 -850 1212 -737 
Q 1344 -625 1503 -206 
L 1606 56 
L 191 3500 
L 800 3500 
L 1894 763 
L 2988 3500 
L 3597 3500 
L 2059 -325 
z
" transform="scale(0.015625)"/>
      </defs>
      <use xlink:href="#DejaVuSans-44"/>
      <use xlink:href="#DejaVuSans-65" x="77.001953"/>
      <use xlink:href="#DejaVuSans-6e" x="138.525391"/>
      <use xlink:href="#DejaVuSans-73" x="201.904297"/>
      <use xlink:href="#DejaVuSans-69" x="254.003906"/>
      <use xlink:href="#DejaVuSans-74" x="281.787109"/>
      <use xlink:href="#DejaVuSans-79" x="320.996094"/>
     </g>
    </g>
   </g>
   <g id="line2d_27">
    <path d="M 114.480614 479.383482 
L 191.866363 479.30602 
L 224.161203 479.010115 
L 232.691916 478.649175 
L 237.566609 478.602311 
L 246.097321 478.257604 
L 250.972014 478.006138 
L 266.205429 476.973358 
L 285.094864 474.654269 
L 290.578894 473.420373 
L 292.406904 472.992071 
L 294.84425 472.141641 
L 297.281596 471.336121 
L 303.374963 469.924661 
L 306.421646 469.151676 
L 308.249655 468.478757 
L 312.515012 466.77926 
L 314.343021 466.005804 
L 316.171031 465.011845 
L 320.436388 462.299872 
L 329.576437 456.557694 
L 331.404447 455.476695 
L 332.62312 454.557759 
L 334.45113 452.829792 
L 337.497813 449.819668 
L 339.935159 447.580444 
L 341.153832 446.22783 
L 342.981842 443.825602 
L 346.028525 439.738342 
L 349.075208 436.205676 
L 352.121891 432.558622 
L 358.215257 424.929761 
L 360.043267 422.029908 
L 362.480614 417.697494 
L 369.183316 405.105918 
L 371.011326 401.061058 
L 373.448673 395.04681 
L 375.886019 389.115899 
L 378.323365 383.97457 
L 382.588722 375.2046 
L 384.416732 370.949688 
L 385.635405 367.684804 
L 387.463415 362.003929 
L 395.384791 335.462473 
L 398.431474 325.980029 
L 400.86882 318.644417 
L 402.087493 314.368562 
L 403.915503 306.938431 
L 407.571523 291.77811 
L 413.664889 267.54887 
L 415.492899 260.790923 
L 417.320908 252.911471 
L 421.586265 233.198928 
L 427.070294 210.214892 
L 432.554324 187.907531 
L 434.382334 179.604933 
L 436.210343 170.036578 
L 439.257026 153.573071 
L 441.085036 145.076554 
L 444.131719 132.367065 
L 445.959729 125.339513 
L 448.397076 117.062224 
L 450.225085 110.564666 
L 452.053095 103.05076 
L 453.881105 95.387156 
L 455.099778 90.995197 
L 456.318451 87.463393 
L 459.365135 79.849708 
L 460.583808 76.003309 
L 463.021154 67.882174 
L 464.239827 64.612986 
L 465.458501 62.034635 
L 466.677174 59.980037 
L 467.895847 58.410581 
L 468.505184 57.851237 
L 469.11452 57.469718 
L 469.723857 57.272053 
L 470.333193 57.244183 
L 471.551867 57.540236 
L 472.77054 57.933151 
L 473.989213 58.060795 
L 477.035896 57.745397 
L 478.254569 58.078894 
L 479.473243 58.767429 
L 480.691916 59.702994 
L 481.910589 60.840724 
L 483.738599 62.944837 
L 485.566609 65.459404 
L 487.394619 68.392808 
L 488.613292 70.707397 
L 489.831965 73.403871 
L 491.050638 76.647462 
L 492.269311 80.747382 
L 493.487985 85.906487 
L 497.144004 103.050719 
L 498.362678 107.419616 
L 500.800024 115.604382 
L 502.018697 120.671042 
L 503.23737 126.654144 
L 505.06538 136.789373 
L 507.502727 151.455248 
L 509.940073 167.523919 
L 512.986756 187.50942 
L 516.642776 210.140466 
L 518.470786 223.253042 
L 520.908132 241.047847 
L 522.736142 252.807364 
L 527.001498 278.894313 
L 533.704201 322.131928 
L 535.532211 331.907245 
L 537.360221 340.479759 
L 544.67226 373.045981 
L 547.718943 386.995587 
L 549.546953 394.308866 
L 551.374963 400.81206 
L 553.812309 408.554136 
L 559.296338 424.921339 
L 561.124348 429.599839 
L 564.171031 436.6971 
L 565.999041 440.510175 
L 568.436388 444.993245 
L 570.264397 447.998334 
L 572.092407 450.630893 
L 573.920417 452.878383 
L 578.79511 458.567761 
L 580.62312 460.680649 
L 582.45113 462.492567 
L 587.325822 466.797418 
L 589.763169 468.641177 
L 594.028525 471.495978 
L 595.856535 472.469163 
L 597.684545 473.097782 
L 601.949901 474.260167 
L 607.433931 476.145887 
L 609.26194 476.49169 
L 617.792653 477.52276 
L 623.276682 478.011512 
L 626.932702 478.377122 
L 642.775454 479.035928 
L 654.962186 479.219806 
L 723.207886 479.39138 
L 723.207886 479.39138 
" clip-path="url(#pb2ebdac169)" style="fill: none; stroke: #ff0000; stroke-width: 2; stroke-linecap: square"/>
   </g>
   <g id="line2d_28">
    <path d="M 463.223533 479.394 
L 463.223533 35.874 
" clip-path="url(#pb2ebdac169)" style="fill: none; stroke-dasharray: 7.4,3.2; stroke-dashoffset: 0; stroke: #ff0000; stroke-width: 2"/>
   </g>
   <g id="line2d_29">
    <path d="M 466.930303 479.394 
L 466.930303 35.874 
" clip-path="url(#pb2ebdac169)" style="fill: none; stroke-dasharray: 2,3.3; stroke-dashoffset: 0; stroke: #ffa500; stroke-width: 2"/>
   </g>
   <g id="line2d_30">
    <path d="M 473.023442 479.394 
L 473.023442 35.874 
" clip-path="url(#pb2ebdac169)" style="fill: none; stroke-dasharray: 2,3.3; stroke-dashoffset: 0; stroke: #ffa500; stroke-width: 2"/>
   </g>
   <g id="patch_53">
    <path d="M 84.04425 479.394 
L 84.04425 35.874 
" style="fill: none; stroke: #000000; stroke-width: 0.8; stroke-linejoin: miter; stroke-linecap: square"/>
   </g>
   <g id="patch_54">
    <path d="M 753.64425 479.394 
L 753.64425 35.874 
" style="fill: none; stroke: #000000; stroke-width: 0.8; stroke-linejoin: miter; stroke-linecap: square"/>
   </g>
   <g id="patch_55">
    <path d="M 84.04425 479.394 
L 753.64425 479.394 
" style="fill: none; stroke: #000000; stroke-width: 0.8; stroke-linejoin: miter; stroke-linecap: square"/>
   </g>
   <g id="patch_56">
    <path d="M 84.04425 35.874 
L 753.64425 35.874 
" style="fill: none; stroke: #000000; stroke-width: 0.8; stroke-linejoin: miter; stroke-linecap: square"/>
   </g>
   <g id="text_16">
    <!-- Posterior Distribution for infectious_period_average_days -->
    <g transform="translate(7.2 29.0835) scale(0.288 -0.288)">
     <defs>
      <path id="DejaVuSans-50" d="M 1259 4147 
L 1259 2394 
L 2053 2394 
Q 2494 2394 2734 2622 
Q 2975 2850 2975 3272 
Q 2975 3691 2734 3919 
Q 2494 4147 2053 4147 
L 1259 4147 
z
M 628 4666 
L 2053 4666 
Q 2838 4666 3239 4311 
Q 3641 3956 3641 3272 
Q 3641 2581 3239 2228 
Q 2838 1875 2053 1875 
L 1259 1875 
L 1259 0 
L 628 0 
L 628 4666 
z
" transform="scale(0.015625)"/>
      <path id="DejaVuSans-72" d="M 2631 2963 
Q 2534 3019 2420 3045 
Q 2306 3072 2169 3072 
Q 1681 3072 1420 2755 
Q 1159 2438 1159 1844 
L 1159 0 
L 581 0 
L 581 3500 
L 1159 3500 
L 1159 2956 
Q 1341 3275 1631 3429 
Q 1922 3584 2338 3584 
Q 2397 3584 2469 3576 
Q 2541 3569 2628 3553 
L 2631 2963 
z
" transform="scale(0.015625)"/>
      <path id="DejaVuSans-62" d="M 3116 1747 
Q 3116 2381 2855 2742 
Q 2594 3103 2138 3103 
Q 1681 3103 1420 2742 
Q 1159 2381 1159 1747 
Q 1159 1113 1420 752 
Q 1681 391 2138 391 
Q 2594 391 2855 752 
Q 3116 1113 3116 1747 
z
M 1159 2969 
Q 1341 3281 1617 3432 
Q 1894 3584 2278 3584 
Q 2916 3584 3314 3078 
Q 3713 2572 3713 1747 
Q 3713 922 3314 415 
Q 2916 -91 2278 -91 
Q 1894 -91 1617 61 
Q 1341 213 1159 525 
L 1159 0 
L 581 0 
L 581 4863 
L 1159 4863 
L 1159 2969 
z
" transform="scale(0.015625)"/>
      <path id="DejaVuSans-5f" d="M 3263 -1063 
L 3263 -1509 
L -63 -1509 
L -63 -1063 
L 3263 -1063 
z
" transform="scale(0.015625)"/>
      <path id="DejaVuSans-70" d="M 1159 525 
L 1159 -1331 
L 581 -1331 
L 581 3500 
L 1159 3500 
L 1159 2969 
Q 1341 3281 1617 3432 
Q 1894 3584 2278 3584 
Q 2916 3584 3314 3078 
Q 3713 2572 3713 1747 
Q 3713 922 3314 415 
Q 2916 -91 2278 -91 
Q 1894 -91 1617 61 
Q 1341 213 1159 525 
z
M 3116 1747 
Q 3116 2381 2855 2742 
Q 2594 3103 2138 3103 
Q 1681 3103 1420 2742 
Q 1159 2381 1159 1747 
Q 1159 1113 1420 752 
Q 1681 391 2138 391 
Q 2594 391 2855 752 
Q 3116 1113 3116 1747 
z
" transform="scale(0.015625)"/>
      <path id="DejaVuSans-64" d="M 2906 2969 
L 2906 4863 
L 3481 4863 
L 3481 0 
L 2906 0 
L 2906 525 
Q 2725 213 2448 61 
Q 2172 -91 1784 -91 
Q 1150 -91 751 415 
Q 353 922 353 1747 
Q 353 2572 751 3078 
Q 1150 3584 1784 3584 
Q 2172 3584 2448 3432 
Q 2725 3281 2906 2969 
z
M 947 1747 
Q 947 1113 1208 752 
Q 1469 391 1925 391 
Q 2381 391 2643 752 
Q 2906 1113 2906 1747 
Q 2906 2381 2643 2742 
Q 2381 3103 1925 3103 
Q 1469 3103 1208 2742 
Q 947 2381 947 1747 
z
" transform="scale(0.015625)"/>
      <path id="DejaVuSans-76" d="M 191 3500 
L 800 3500 
L 1894 563 
L 2988 3500 
L 3597 3500 
L 2284 0 
L 1503 0 
L 191 3500 
z
" transform="scale(0.015625)"/>
      <path id="DejaVuSans-67" d="M 2906 1791 
Q 2906 2416 2648 2759 
Q 2391 3103 1925 3103 
Q 1463 3103 1205 2759 
Q 947 2416 947 1791 
Q 947 1169 1205 825 
Q 1463 481 1925 481 
Q 2391 481 2648 825 
Q 2906 1169 2906 1791 
z
M 3481 434 
Q 3481 -459 3084 -895 
Q 2688 -1331 1869 -1331 
Q 1566 -1331 1297 -1286 
Q 1028 -1241 775 -1147 
L 775 -588 
Q 1028 -725 1275 -790 
Q 1522 -856 1778 -856 
Q 2344 -856 2625 -561 
Q 2906 -266 2906 331 
L 2906 616 
Q 2728 306 2450 153 
Q 2172 0 1784 0 
Q 1141 0 747 490 
Q 353 981 353 1791 
Q 353 2603 747 3093 
Q 1141 3584 1784 3584 
Q 2172 3584 2450 3431 
Q 2728 3278 2906 2969 
L 2906 3500 
L 3481 3500 
L 3481 434 
z
" transform="scale(0.015625)"/>
     </defs>
     <use xlink:href="#DejaVuSans-50"/>
     <use xlink:href="#DejaVuSans-6f" x="56.677734"/>
     <use xlink:href="#DejaVuSans-73" x="117.859375"/>
     <use xlink:href="#DejaVuSans-74" x="169.958984"/>
     <use xlink:href="#DejaVuSans-65" x="209.167969"/>
     <use xlink:href="#DejaVuSans-72" x="270.691406"/>
     <use xlink:href="#DejaVuSans-69" x="311.804688"/>
     <use xlink:href="#DejaVuSans-6f" x="339.587891"/>
     <use xlink:href="#DejaVuSans-72" x="400.769531"/>
     <use xlink:href="#DejaVuSans-20" x="441.882812"/>
     <use xlink:href="#DejaVuSans-44" x="473.669922"/>
     <use xlink:href="#DejaVuSans-69" x="550.671875"/>
     <use xlink:href="#DejaVuSans-73" x="578.455078"/>
     <use xlink:href="#DejaVuSans-74" x="630.554688"/>
     <use xlink:href="#DejaVuSans-72" x="669.763672"/>
     <use xlink:href="#DejaVuSans-69" x="710.876953"/>
     <use xlink:href="#DejaVuSans-62" x="738.660156"/>
     <use xlink:href="#DejaVuSans-75" x="802.136719"/>
     <use xlink:href="#DejaVuSans-74" x="865.515625"/>
     <use xlink:href="#DejaVuSans-69" x="904.724609"/>
     <use xlink:href="#DejaVuSans-6f" x="932.507812"/>
     <use xlink:href="#DejaVuSans-6e" x="993.689453"/>
     <use xlink:href="#DejaVuSans-20" x="1057.068359"/>
     <use xlink:href="#DejaVuSans-66" x="1088.855469"/>
     <use xlink:href="#DejaVuSans-6f" x="1124.060547"/>
     <use xlink:href="#DejaVuSans-72" x="1185.242188"/>
     <use xlink:href="#DejaVuSans-20" x="1226.355469"/>
     <use xlink:href="#DejaVuSans-69" x="1258.142578"/>
     <use xlink:href="#DejaVuSans-6e" x="1285.925781"/>
     <use xlink:href="#DejaVuSans-66" x="1349.304688"/>
     <use xlink:href="#DejaVuSans-65" x="1384.509766"/>
     <use xlink:href="#DejaVuSans-63" x="1446.033203"/>
     <use xlink:href="#DejaVuSans-74" x="1501.013672"/>
     <use xlink:href="#DejaVuSans-69" x="1540.222656"/>
     <use xlink:href="#DejaVuSans-6f" x="1568.005859"/>
     <use xlink:href="#DejaVuSans-75" x="1629.1875"/>
     <use xlink:href="#DejaVuSans-73" x="1692.566406"/>
     <use xlink:href="#DejaVuSans-5f" x="1744.666016"/>
     <use xlink:href="#DejaVuSans-70" x="1794.666016"/>
     <use xlink:href="#DejaVuSans-65" x="1858.142578"/>
     <use xlink:href="#DejaVuSans-72" x="1919.666016"/>
     <use xlink:href="#DejaVuSans-69" x="1960.779297"/>
     <use xlink:href="#DejaVuSans-6f" x="1988.5625"/>
     <use xlink:href="#DejaVuSans-64" x="2049.744141"/>
     <use xlink:href="#DejaVuSans-5f" x="2113.220703"/>
     <use xlink:href="#DejaVuSans-61" x="2163.220703"/>
     <use xlink:href="#DejaVuSans-76" x="2224.5"/>
     <use xlink:href="#DejaVuSans-65" x="2283.679688"/>
     <use xlink:href="#DejaVuSans-72" x="2345.203125"/>
     <use xlink:href="#DejaVuSans-61" x="2386.316406"/>
     <use xlink:href="#DejaVuSans-67" x="2447.595703"/>
     <use xlink:href="#DejaVuSans-65" x="2511.072266"/>
     <use xlink:href="#DejaVuSans-5f" x="2572.595703"/>
     <use xlink:href="#DejaVuSans-64" x="2622.595703"/>
     <use xlink:href="#DejaVuSans-61" x="2686.072266"/>
     <use xlink:href="#DejaVuSans-79" x="2747.351562"/>
     <use xlink:href="#DejaVuSans-73" x="2806.53125"/>
    </g>
   </g>
   <g id="legend_1">
    <g id="patch_57">
     <path d="M 100.84425 160.7565 
L 416.87175 160.7565 
Q 421.67175 160.7565 421.67175 155.9565 
L 421.67175 52.674 
Q 421.67175 47.874 416.87175 47.874 
L 100.84425 47.874 
Q 96.04425 47.874 96.04425 52.674 
L 96.04425 155.9565 
Q 96.04425 160.7565 100.84425 160.7565 
z
" style="fill: #ffffff; opacity: 0.8; stroke: #cccccc; stroke-linejoin: miter"/>
    </g>
    <g id="line2d_31">
     <path d="M 105.64425 67.31025 
L 129.64425 67.31025 
L 153.64425 67.31025 
" style="fill: none; stroke-dasharray: 7.4,3.2; stroke-dashoffset: 0; stroke: #ff0000; stroke-width: 2"/>
    </g>
    <g id="text_17">
     <!-- Mean: -0.1267 -->
     <g transform="translate(172.84425 75.71025) scale(0.24 -0.24)">
      <defs>
       <path id="DejaVuSans-4d" d="M 628 4666 
L 1569 4666 
L 2759 1491 
L 3956 4666 
L 4897 4666 
L 4897 0 
L 4281 0 
L 4281 4097 
L 3078 897 
L 2444 897 
L 1241 4097 
L 1241 0 
L 628 0 
L 628 4666 
z
" transform="scale(0.015625)"/>
       <path id="DejaVuSans-3a" d="M 750 794 
L 1409 794 
L 1409 0 
L 750 0 
L 750 794 
z
M 750 3309 
L 1409 3309 
L 1409 2516 
L 750 2516 
L 750 3309 
z
" transform="scale(0.015625)"/>
       <path id="DejaVuSans-2d" d="M 313 2009 
L 1997 2009 
L 1997 1497 
L 313 1497 
L 313 2009 
z
" transform="scale(0.015625)"/>
       <path id="DejaVuSans-36" d="M 2113 2584 
Q 1688 2584 1439 2293 
Q 1191 2003 1191 1497 
Q 1191 994 1439 701 
Q 1688 409 2113 409 
Q 2538 409 2786 701 
Q 3034 994 3034 1497 
Q 3034 2003 2786 2293 
Q 2538 2584 2113 2584 
z
M 3366 4563 
L 3366 3988 
Q 3128 4100 2886 4159 
Q 2644 4219 2406 4219 
Q 1781 4219 1451 3797 
Q 1122 3375 1075 2522 
Q 1259 2794 1537 2939 
Q 1816 3084 2150 3084 
Q 2853 3084 3261 2657 
Q 3669 2231 3669 1497 
Q 3669 778 3244 343 
Q 2819 -91 2113 -91 
Q 1303 -91 875 529 
Q 447 1150 447 2328 
Q 447 3434 972 4092 
Q 1497 4750 2381 4750 
Q 2619 4750 2861 4703 
Q 3103 4656 3366 4563 
z
" transform="scale(0.015625)"/>
      </defs>
      <use xlink:href="#DejaVuSans-4d"/>
      <use xlink:href="#DejaVuSans-65" x="86.279297"/>
      <use xlink:href="#DejaVuSans-61" x="147.802734"/>
      <use xlink:href="#DejaVuSans-6e" x="209.082031"/>
      <use xlink:href="#DejaVuSans-3a" x="272.460938"/>
      <use xlink:href="#DejaVuSans-20" x="306.152344"/>
      <use xlink:href="#DejaVuSans-2d" x="337.939453"/>
      <use xlink:href="#DejaVuSans-30" x="374.023438"/>
      <use xlink:href="#DejaVuSans-2e" x="437.646484"/>
      <use xlink:href="#DejaVuSans-31" x="469.433594"/>
      <use xlink:href="#DejaVuSans-32" x="533.056641"/>
      <use xlink:href="#DejaVuSans-36" x="596.679688"/>
      <use xlink:href="#DejaVuSans-37" x="660.302734"/>
     </g>
    </g>
    <g id="line2d_32">
     <path d="M 105.64425 102.53775 
L 129.64425 102.53775 
L 153.64425 102.53775 
" style="fill: none; stroke-dasharray: 2,3.3; stroke-dashoffset: 0; stroke: #ffa500; stroke-width: 2"/>
    </g>
    <g id="text_18">
     <!-- HPD Lower: -0.1157 -->
     <g transform="translate(172.84425 110.93775) scale(0.24 -0.24)">
      <defs>
       <path id="DejaVuSans-48" d="M 628 4666 
L 1259 4666 
L 1259 2753 
L 3553 2753 
L 3553 4666 
L 4184 4666 
L 4184 0 
L 3553 0 
L 3553 2222 
L 1259 2222 
L 1259 0 
L 628 0 
L 628 4666 
z
" transform="scale(0.015625)"/>
       <path id="DejaVuSans-4c" d="M 628 4666 
L 1259 4666 
L 1259 531 
L 3531 531 
L 3531 0 
L 628 0 
L 628 4666 
z
" transform="scale(0.015625)"/>
       <path id="DejaVuSans-77" d="M 269 3500 
L 844 3500 
L 1563 769 
L 2278 3500 
L 2956 3500 
L 3675 769 
L 4391 3500 
L 4966 3500 
L 4050 0 
L 3372 0 
L 2619 2869 
L 1863 0 
L 1184 0 
L 269 3500 
z
" transform="scale(0.015625)"/>
      </defs>
      <use xlink:href="#DejaVuSans-48"/>
      <use xlink:href="#DejaVuSans-50" x="75.195312"/>
      <use xlink:href="#DejaVuSans-44" x="135.498047"/>
      <use xlink:href="#DejaVuSans-20" x="212.5"/>
      <use xlink:href="#DejaVuSans-4c" x="244.287109"/>
      <use xlink:href="#DejaVuSans-6f" x="298.25"/>
      <use xlink:href="#DejaVuSans-77" x="359.431641"/>
      <use xlink:href="#DejaVuSans-65" x="441.21875"/>
      <use xlink:href="#DejaVuSans-72" x="502.742188"/>
      <use xlink:href="#DejaVuSans-3a" x="542.105469"/>
      <use xlink:href="#DejaVuSans-20" x="575.796875"/>
      <use xlink:href="#DejaVuSans-2d" x="607.583984"/>
      <use xlink:href="#DejaVuSans-30" x="643.667969"/>
      <use xlink:href="#DejaVuSans-2e" x="707.291016"/>
      <use xlink:href="#DejaVuSans-31" x="739.078125"/>
      <use xlink:href="#DejaVuSans-31" x="802.701172"/>
      <use xlink:href="#DejaVuSans-35" x="866.324219"/>
      <use xlink:href="#DejaVuSans-37" x="929.947266"/>
     </g>
    </g>
    <g id="line2d_33">
     <path d="M 105.64425 137.76525 
L 129.64425 137.76525 
L 153.64425 137.76525 
" style="fill: none; stroke-dasharray: 2,3.3; stroke-dashoffset: 0; stroke: #ffa500; stroke-width: 2"/>
    </g>
    <g id="text_19">
     <!-- HPD Upper: -0.0977 -->
     <g transform="translate(172.84425 146.16525) scale(0.24 -0.24)">
      <defs>
       <path id="DejaVuSans-55" d="M 556 4666 
L 1191 4666 
L 1191 1831 
Q 1191 1081 1462 751 
Q 1734 422 2344 422 
Q 2950 422 3222 751 
Q 3494 1081 3494 1831 
L 3494 4666 
L 4128 4666 
L 4128 1753 
Q 4128 841 3676 375 
Q 3225 -91 2344 -91 
Q 1459 -91 1007 375 
Q 556 841 556 1753 
L 556 4666 
z
" transform="scale(0.015625)"/>
       <path id="DejaVuSans-39" d="M 703 97 
L 703 672 
Q 941 559 1184 500 
Q 1428 441 1663 441 
Q 2288 441 2617 861 
Q 2947 1281 2994 2138 
Q 2813 1869 2534 1725 
Q 2256 1581 1919 1581 
Q 1219 1581 811 2004 
Q 403 2428 403 3163 
Q 403 3881 828 4315 
Q 1253 4750 1959 4750 
Q 2769 4750 3195 4129 
Q 3622 3509 3622 2328 
Q 3622 1225 3098 567 
Q 2575 -91 1691 -91 
Q 1453 -91 1209 -44 
Q 966 3 703 97 
z
M 1959 2075 
Q 2384 2075 2632 2365 
Q 2881 2656 2881 3163 
Q 2881 3666 2632 3958 
Q 2384 4250 1959 4250 
Q 1534 4250 1286 3958 
Q 1038 3666 1038 3163 
Q 1038 2656 1286 2365 
Q 1534 2075 1959 2075 
z
" transform="scale(0.015625)"/>
      </defs>
      <use xlink:href="#DejaVuSans-48"/>
      <use xlink:href="#DejaVuSans-50" x="75.195312"/>
      <use xlink:href="#DejaVuSans-44" x="135.498047"/>
      <use xlink:href="#DejaVuSans-20" x="212.5"/>
      <use xlink:href="#DejaVuSans-55" x="244.287109"/>
      <use xlink:href="#DejaVuSans-70" x="317.480469"/>
      <use xlink:href="#DejaVuSans-70" x="380.957031"/>
      <use xlink:href="#DejaVuSans-65" x="444.433594"/>
      <use xlink:href="#DejaVuSans-72" x="505.957031"/>
      <use xlink:href="#DejaVuSans-3a" x="545.320312"/>
      <use xlink:href="#DejaVuSans-20" x="579.011719"/>
      <use xlink:href="#DejaVuSans-2d" x="610.798828"/>
      <use xlink:href="#DejaVuSans-30" x="646.882812"/>
      <use xlink:href="#DejaVuSans-2e" x="710.505859"/>
      <use xlink:href="#DejaVuSans-30" x="742.292969"/>
      <use xlink:href="#DejaVuSans-39" x="805.916016"/>
      <use xlink:href="#DejaVuSans-37" x="869.539062"/>
      <use xlink:href="#DejaVuSans-37" x="933.162109"/>
     </g>
    </g>
   </g>
  </g>
 </g>
 <defs>
  <clipPath id="pb2ebdac169">
   <rect x="84.04425" y="35.874" width="669.6" height="443.52"/>
  </clipPath>
 </defs>
</svg>
