<?xml version="1.0" encoding="utf-8" standalone="no"?>
<!DOCTYPE svg PUBLIC "-//W3C//DTD SVG 1.1//EN"
  "http://www.w3.org/Graphics/SVG/1.1/DTD/svg11.dtd">
<svg xmlns:xlink="http://www.w3.org/1999/xlink" width="771.665pt" height="739.9607pt" viewBox="0 0 771.665 739.9607" xmlns="http://www.w3.org/2000/svg" version="1.1">
 <metadata>
  <rdf:RDF xmlns:dc="http://purl.org/dc/elements/1.1/" xmlns:cc="http://creativecommons.org/ns#" xmlns:rdf="http://www.w3.org/1999/02/22-rdf-syntax-ns#">
   <cc:Work>
    <dc:type rdf:resource="http://purl.org/dc/dcmitype/StillImage"/>
    <dc:date>2025-11-26T20:49:19.647438</dc:date>
    <dc:format>image/svg+xml</dc:format>
    <dc:creator>
     <cc:Agent>
      <dc:title>Matplotlib v3.9.2, https://matplotlib.org/</dc:title>
     </cc:Agent>
    </dc:creator>
   </cc:Work>
  </rdf:RDF>
 </metadata>
 <defs>
  <style type="text/css">*{stroke-linejoin: round; stroke-linecap: butt}</style>
 </defs>
 <g id="figure_1">
  <g id="patch_1">
   <path d="M 0 739.9607 
L 771.665 739.9607 
L 771.665 0 
L 0 0 
z
" style="fill: #ffffff"/>
  </g>
  <g id="axes_1">
   <g id="patch_2">
    <path d="M 94.865 675.3057 
L 764.465 675.3057 
L 764.465 231.7857 
L 94.865 231.7857 
z
" style="fill: #ffffff"/>
   </g>
   <g id="patch_3">
    <path d="M 125.301364 675.3057 
L 137.475909 675.3057 
L 137.475909 674.963878 
L 125.301364 674.963878 
z
" clip-path="url(#pb3c08070f2)" style="fill: #90ee90; opacity: 0.7; stroke: #000000; stroke-linejoin: miter"/>
   </g>
   <g id="patch_4">
    <path d="M 137.475909 675.3057 
L 149.650455 675.3057 
L 149.650455 672.981312 
L 137.475909 672.981312 
z
" clip-path="url(#pb3c08070f2)" style="fill: #90ee90; opacity: 0.7; stroke: #000000; stroke-linejoin: miter"/>
   </g>
   <g id="patch_5">
    <path d="M 149.650455 675.3057 
L 161.825 675.3057 
L 161.825 669.828956 
L 149.650455 669.828956 
z
" clip-path="url(#pb3c08070f2)" style="fill: #90ee90; opacity: 0.7; stroke: #000000; stroke-linejoin: miter"/>
   </g>
   <g id="patch_6">
    <path d="M 161.825 675.3057 
L 173.999545 675.3057 
L 173.999545 664.074956 
L 161.825 664.074956 
z
" clip-path="url(#pb3c08070f2)" style="fill: #90ee90; opacity: 0.7; stroke: #000000; stroke-linejoin: miter"/>
   </g>
   <g id="patch_7">
    <path d="M 173.999545 675.3057 
L 186.174091 675.3057 
L 186.174091 657.208137 
L 173.999545 657.208137 
z
" clip-path="url(#pb3c08070f2)" style="fill: #90ee90; opacity: 0.7; stroke: #000000; stroke-linejoin: miter"/>
   </g>
   <g id="patch_8">
    <path d="M 186.174091 675.3057 
L 198.348636 675.3057 
L 198.348636 650.026082 
L 186.174091 650.026082 
z
" clip-path="url(#pb3c08070f2)" style="fill: #90ee90; opacity: 0.7; stroke: #000000; stroke-linejoin: miter"/>
   </g>
   <g id="patch_9">
    <path d="M 198.348636 675.3057 
L 210.523182 675.3057 
L 210.523182 640.929825 
L 198.348636 640.929825 
z
" clip-path="url(#pb3c08070f2)" style="fill: #90ee90; opacity: 0.7; stroke: #000000; stroke-linejoin: miter"/>
   </g>
   <g id="patch_10">
    <path d="M 210.523182 675.3057 
L 222.697727 675.3057 
L 222.697727 632.163996 
L 210.523182 632.163996 
z
" clip-path="url(#pb3c08070f2)" style="fill: #90ee90; opacity: 0.7; stroke: #000000; stroke-linejoin: miter"/>
   </g>
   <g id="patch_11">
    <path d="M 222.697727 675.3057 
L 234.872273 675.3057 
L 234.872273 620.933252 
L 222.697727 620.933252 
z
" clip-path="url(#pb3c08070f2)" style="fill: #90ee90; opacity: 0.7; stroke: #000000; stroke-linejoin: miter"/>
   </g>
   <g id="patch_12">
    <path d="M 234.872273 675.3057 
L 247.046818 675.3057 
L 247.046818 610.705186 
L 234.872273 610.705186 
z
" clip-path="url(#pb3c08070f2)" style="fill: #90ee90; opacity: 0.7; stroke: #000000; stroke-linejoin: miter"/>
   </g>
   <g id="patch_13">
    <path d="M 247.046818 675.3057 
L 259.221364 675.3057 
L 259.221364 599.212378 
L 247.046818 599.212378 
z
" clip-path="url(#pb3c08070f2)" style="fill: #90ee90; opacity: 0.7; stroke: #000000; stroke-linejoin: miter"/>
   </g>
   <g id="patch_14">
    <path d="M 259.221364 675.3057 
L 271.395909 675.3057 
L 271.395909 587.503084 
L 259.221364 587.503084 
z
" clip-path="url(#pb3c08070f2)" style="fill: #90ee90; opacity: 0.7; stroke: #000000; stroke-linejoin: miter"/>
   </g>
   <g id="patch_15">
    <path d="M 271.395909 675.3057 
L 283.570455 675.3057 
L 283.570455 576.10143 
L 271.395909 576.10143 
z
" clip-path="url(#pb3c08070f2)" style="fill: #90ee90; opacity: 0.7; stroke: #000000; stroke-linejoin: miter"/>
   </g>
   <g id="patch_16">
    <path d="M 283.570455 675.3057 
L 295.745 675.3057 
L 295.745 561.642369 
L 283.570455 561.642369 
z
" clip-path="url(#pb3c08070f2)" style="fill: #90ee90; opacity: 0.7; stroke: #000000; stroke-linejoin: miter"/>
   </g>
   <g id="patch_17">
    <path d="M 295.745 675.3057 
L 307.919545 675.3057 
L 307.919545 548.732901 
L 295.745 548.732901 
z
" clip-path="url(#pb3c08070f2)" style="fill: #90ee90; opacity: 0.7; stroke: #000000; stroke-linejoin: miter"/>
   </g>
   <g id="patch_18">
    <path d="M 307.919545 675.3057 
L 320.094091 675.3057 
L 320.094091 535.967757 
L 307.919545 535.967757 
z
" clip-path="url(#pb3c08070f2)" style="fill: #90ee90; opacity: 0.7; stroke: #000000; stroke-linejoin: miter"/>
   </g>
   <g id="patch_19">
    <path d="M 320.094091 675.3057 
L 332.268636 675.3057 
L 332.268636 522.670891 
L 320.094091 522.670891 
z
" clip-path="url(#pb3c08070f2)" style="fill: #90ee90; opacity: 0.7; stroke: #000000; stroke-linejoin: miter"/>
   </g>
   <g id="patch_20">
    <path d="M 332.268636 675.3057 
L 344.443182 675.3057 
L 344.443182 508.629612 
L 332.268636 508.629612 
z
" clip-path="url(#pb3c08070f2)" style="fill: #90ee90; opacity: 0.7; stroke: #000000; stroke-linejoin: miter"/>
   </g>
   <g id="patch_21">
    <path d="M 344.443182 675.3057 
L 356.617727 675.3057 
L 356.617727 495.769518 
L 344.443182 495.769518 
z
" clip-path="url(#pb3c08070f2)" style="fill: #90ee90; opacity: 0.7; stroke: #000000; stroke-linejoin: miter"/>
   </g>
   <g id="patch_22">
    <path d="M 356.617727 675.3057 
L 368.792273 675.3057 
L 368.792273 481.230699 
L 356.617727 481.230699 
z
" clip-path="url(#pb3c08070f2)" style="fill: #90ee90; opacity: 0.7; stroke: #000000; stroke-linejoin: miter"/>
   </g>
   <g id="patch_23">
    <path d="M 368.792273 675.3057 
L 380.966818 675.3057 
L 380.966818 466.726063 
L 368.792273 466.726063 
z
" clip-path="url(#pb3c08070f2)" style="fill: #90ee90; opacity: 0.7; stroke: #000000; stroke-linejoin: miter"/>
   </g>
   <g id="patch_24">
    <path d="M 380.966818 675.3057 
L 393.141364 675.3057 
L 393.141364 455.837141 
L 380.966818 455.837141 
z
" clip-path="url(#pb3c08070f2)" style="fill: #90ee90; opacity: 0.7; stroke: #000000; stroke-linejoin: miter"/>
   </g>
   <g id="patch_25">
    <path d="M 393.141364 675.3057 
L 405.315909 675.3057 
L 405.315909 440.922318 
L 393.141364 440.922318 
z
" clip-path="url(#pb3c08070f2)" style="fill: #90ee90; opacity: 0.7; stroke: #000000; stroke-linejoin: miter"/>
   </g>
   <g id="patch_26">
    <path d="M 405.315909 675.3057 
L 417.490455 675.3057 
L 417.490455 429.125669 
L 405.315909 429.125669 
z
" clip-path="url(#pb3c08070f2)" style="fill: #90ee90; opacity: 0.7; stroke: #000000; stroke-linejoin: miter"/>
   </g>
   <g id="patch_27">
    <path d="M 417.490455 675.3057 
L 429.665 675.3057 
L 429.665 413.325908 
L 417.490455 413.325908 
z
" clip-path="url(#pb3c08070f2)" style="fill: #90ee90; opacity: 0.7; stroke: #000000; stroke-linejoin: miter"/>
   </g>
   <g id="patch_28">
    <path d="M 429.665 675.3057 
L 441.839545 675.3057 
L 441.839545 398.475652 
L 429.665 398.475652 
z
" clip-path="url(#pb3c08070f2)" style="fill: #90ee90; opacity: 0.7; stroke: #000000; stroke-linejoin: miter"/>
   </g>
   <g id="patch_29">
    <path d="M 441.839545 675.3057 
L 454.014091 675.3057 
L 454.014091 387.146159 
L 441.839545 387.146159 
z
" clip-path="url(#pb3c08070f2)" style="fill: #90ee90; opacity: 0.7; stroke: #000000; stroke-linejoin: miter"/>
   </g>
   <g id="patch_30">
    <path d="M 454.014091 675.3057 
L 466.188636 675.3057 
L 466.188636 372.823828 
L 454.014091 372.823828 
z
" clip-path="url(#pb3c08070f2)" style="fill: #90ee90; opacity: 0.7; stroke: #000000; stroke-linejoin: miter"/>
   </g>
   <g id="patch_31">
    <path d="M 466.188636 675.3057 
L 478.363182 675.3057 
L 478.363182 359.333262 
L 466.188636 359.333262 
z
" clip-path="url(#pb3c08070f2)" style="fill: #90ee90; opacity: 0.7; stroke: #000000; stroke-linejoin: miter"/>
   </g>
   <g id="patch_32">
    <path d="M 478.363182 675.3057 
L 490.537727 675.3057 
L 490.537727 345.459097 
L 478.363182 345.459097 
z
" clip-path="url(#pb3c08070f2)" style="fill: #90ee90; opacity: 0.7; stroke: #000000; stroke-linejoin: miter"/>
   </g>
   <g id="patch_33">
    <path d="M 490.537727 675.3057 
L 502.712273 675.3057 
L 502.712273 333.134523 
L 490.537727 333.134523 
z
" clip-path="url(#pb3c08070f2)" style="fill: #90ee90; opacity: 0.7; stroke: #000000; stroke-linejoin: miter"/>
   </g>
   <g id="patch_34">
    <path d="M 502.712273 675.3057 
L 514.886818 675.3057 
L 514.886818 321.467007 
L 502.712273 321.467007 
z
" clip-path="url(#pb3c08070f2)" style="fill: #90ee90; opacity: 0.7; stroke: #000000; stroke-linejoin: miter"/>
   </g>
   <g id="patch_35">
    <path d="M 514.886818 675.3057 
L 527.061364 675.3057 
L 527.061364 309.989392 
L 514.886818 309.989392 
z
" clip-path="url(#pb3c08070f2)" style="fill: #90ee90; opacity: 0.7; stroke: #000000; stroke-linejoin: miter"/>
   </g>
   <g id="patch_36">
    <path d="M 527.061364 675.3057 
L 539.235909 675.3057 
L 539.235909 298.610526 
L 527.061364 298.610526 
z
" clip-path="url(#pb3c08070f2)" style="fill: #90ee90; opacity: 0.7; stroke: #000000; stroke-linejoin: miter"/>
   </g>
   <g id="patch_37">
    <path d="M 539.235909 675.3057 
L 551.410455 675.3057 
L 551.410455 289.309176 
L 539.235909 289.309176 
z
" clip-path="url(#pb3c08070f2)" style="fill: #90ee90; opacity: 0.7; stroke: #000000; stroke-linejoin: miter"/>
   </g>
   <g id="patch_38">
    <path d="M 551.410455 675.3057 
L 563.585 675.3057 
L 563.585 279.141878 
L 551.410455 279.141878 
z
" clip-path="url(#pb3c08070f2)" style="fill: #90ee90; opacity: 0.7; stroke: #000000; stroke-linejoin: miter"/>
   </g>
   <g id="patch_39">
    <path d="M 563.585 675.3057 
L 575.759545 675.3057 
L 575.759545 268.416271 
L 563.585 268.416271 
z
" clip-path="url(#pb3c08070f2)" style="fill: #90ee90; opacity: 0.7; stroke: #000000; stroke-linejoin: miter"/>
   </g>
   <g id="patch_40">
    <path d="M 575.759545 675.3057 
L 587.934091 675.3057 
L 587.934091 262.597705 
L 575.759545 262.597705 
z
" clip-path="url(#pb3c08070f2)" style="fill: #90ee90; opacity: 0.7; stroke: #000000; stroke-linejoin: miter"/>
   </g>
   <g id="patch_41">
    <path d="M 587.934091 675.3057 
L 600.108636 675.3057 
L 600.108636 258.465459 
L 587.934091 258.465459 
z
" clip-path="url(#pb3c08070f2)" style="fill: #90ee90; opacity: 0.7; stroke: #000000; stroke-linejoin: miter"/>
   </g>
   <g id="patch_42">
    <path d="M 600.108636 675.3057 
L 612.283182 675.3057 
L 612.283182 254.181293 
L 600.108636 254.181293 
z
" clip-path="url(#pb3c08070f2)" style="fill: #90ee90; opacity: 0.7; stroke: #000000; stroke-linejoin: miter"/>
   </g>
   <g id="patch_43">
    <path d="M 612.283182 675.3057 
L 624.457727 675.3057 
L 624.457727 253.193808 
L 612.283182 253.193808 
z
" clip-path="url(#pb3c08070f2)" style="fill: #90ee90; opacity: 0.7; stroke: #000000; stroke-linejoin: miter"/>
   </g>
   <g id="patch_44">
    <path d="M 624.457727 675.3057 
L 636.632273 675.3057 
L 636.632273 254.481337 
L 624.457727 254.481337 
z
" clip-path="url(#pb3c08070f2)" style="fill: #90ee90; opacity: 0.7; stroke: #000000; stroke-linejoin: miter"/>
   </g>
   <g id="patch_45">
    <path d="M 636.632273 675.3057 
L 648.806818 675.3057 
L 648.806818 260.05683 
L 636.632273 260.05683 
z
" clip-path="url(#pb3c08070f2)" style="fill: #90ee90; opacity: 0.7; stroke: #000000; stroke-linejoin: miter"/>
   </g>
   <g id="patch_46">
    <path d="M 648.806818 675.3057 
L 660.981364 675.3057 
L 660.981364 272.613082 
L 648.806818 272.613082 
z
" clip-path="url(#pb3c08070f2)" style="fill: #90ee90; opacity: 0.7; stroke: #000000; stroke-linejoin: miter"/>
   </g>
   <g id="patch_47">
    <path d="M 660.981364 675.3057 
L 673.155909 675.3057 
L 673.155909 289.480087 
L 660.981364 289.480087 
z
" clip-path="url(#pb3c08070f2)" style="fill: #90ee90; opacity: 0.7; stroke: #000000; stroke-linejoin: miter"/>
   </g>
   <g id="patch_48">
    <path d="M 673.155909 675.3057 
L 685.330455 675.3057 
L 685.330455 316.157376 
L 673.155909 316.157376 
z
" clip-path="url(#pb3c08070f2)" style="fill: #90ee90; opacity: 0.7; stroke: #000000; stroke-linejoin: miter"/>
   </g>
   <g id="patch_49">
    <path d="M 685.330455 675.3057 
L 697.505 675.3057 
L 697.505 354.574344 
L 685.330455 354.574344 
z
" clip-path="url(#pb3c08070f2)" style="fill: #90ee90; opacity: 0.7; stroke: #000000; stroke-linejoin: miter"/>
   </g>
   <g id="patch_50">
    <path d="M 697.505 675.3057 
L 709.679545 675.3057 
L 709.679545 413.113219 
L 697.505 413.113219 
z
" clip-path="url(#pb3c08070f2)" style="fill: #90ee90; opacity: 0.7; stroke: #000000; stroke-linejoin: miter"/>
   </g>
   <g id="patch_51">
    <path d="M 709.679545 675.3057 
L 721.854091 675.3057 
L 721.854091 491.884144 
L 709.679545 491.884144 
z
" clip-path="url(#pb3c08070f2)" style="fill: #90ee90; opacity: 0.7; stroke: #000000; stroke-linejoin: miter"/>
   </g>
   <g id="patch_52">
    <path d="M 721.854091 675.3057 
L 734.028636 675.3057 
L 734.028636 609.907602 
L 721.854091 609.907602 
z
" clip-path="url(#pb3c08070f2)" style="fill: #90ee90; opacity: 0.7; stroke: #000000; stroke-linejoin: miter"/>
   </g>
   <g id="matplotlib.axis_1">
    <g id="xtick_1">
     <g id="line2d_1">
      <path d="M 121.457793 675.3057 
L 121.457793 231.7857 
" clip-path="url(#pb3c08070f2)" style="fill: none; stroke: #b0b0b0; stroke-opacity: 0.3; stroke-width: 0.8; stroke-linecap: square"/>
     </g>
     <g id="line2d_2">
      <defs>
       <path id="m933779526a" d="M 0 0 
L 0 3.5 
" style="stroke: #000000; stroke-width: 0.8"/>
      </defs>
      <g>
       <use xlink:href="#m933779526a" x="121.457793" y="675.3057" style="stroke: #000000; stroke-width: 0.8"/>
      </g>
     </g>
     <g id="text_1">
      <!-- 0.0 -->
      <g transform="translate(102.374043 700.54195) scale(0.24 -0.24)">
       <defs>
        <path id="DejaVuSans-30" d="M 2034 4250 
Q 1547 4250 1301 3770 
Q 1056 3291 1056 2328 
Q 1056 1369 1301 889 
Q 1547 409 2034 409 
Q 2525 409 2770 889 
Q 3016 1369 3016 2328 
Q 3016 3291 2770 3770 
Q 2525 4250 2034 4250 
z
M 2034 4750 
Q 2819 4750 3233 4129 
Q 3647 3509 3647 2328 
Q 3647 1150 3233 529 
Q 2819 -91 2034 -91 
Q 1250 -91 836 529 
Q 422 1150 422 2328 
Q 422 3509 836 4129 
Q 1250 4750 2034 4750 
z
" transform="scale(0.015625)"/>
        <path id="DejaVuSans-2e" d="M 684 794 
L 1344 794 
L 1344 0 
L 684 0 
L 684 794 
z
" transform="scale(0.015625)"/>
       </defs>
       <use xlink:href="#DejaVuSans-30"/>
       <use xlink:href="#DejaVuSans-2e" x="63.623047"/>
       <use xlink:href="#DejaVuSans-30" x="95.410156"/>
      </g>
     </g>
    </g>
    <g id="xtick_2">
     <g id="line2d_3">
      <path d="M 244.029386 675.3057 
L 244.029386 231.7857 
" clip-path="url(#pb3c08070f2)" style="fill: none; stroke: #b0b0b0; stroke-opacity: 0.3; stroke-width: 0.8; stroke-linecap: square"/>
     </g>
     <g id="line2d_4">
      <g>
       <use xlink:href="#m933779526a" x="244.029386" y="675.3057" style="stroke: #000000; stroke-width: 0.8"/>
      </g>
     </g>
     <g id="text_2">
      <!-- 0.2 -->
      <g transform="translate(224.945636 700.54195) scale(0.24 -0.24)">
       <defs>
        <path id="DejaVuSans-32" d="M 1228 531 
L 3431 531 
L 3431 0 
L 469 0 
L 469 531 
Q 828 903 1448 1529 
Q 2069 2156 2228 2338 
Q 2531 2678 2651 2914 
Q 2772 3150 2772 3378 
Q 2772 3750 2511 3984 
Q 2250 4219 1831 4219 
Q 1534 4219 1204 4116 
Q 875 4013 500 3803 
L 500 4441 
Q 881 4594 1212 4672 
Q 1544 4750 1819 4750 
Q 2544 4750 2975 4387 
Q 3406 4025 3406 3419 
Q 3406 3131 3298 2873 
Q 3191 2616 2906 2266 
Q 2828 2175 2409 1742 
Q 1991 1309 1228 531 
z
" transform="scale(0.015625)"/>
       </defs>
       <use xlink:href="#DejaVuSans-30"/>
       <use xlink:href="#DejaVuSans-2e" x="63.623047"/>
       <use xlink:href="#DejaVuSans-32" x="95.410156"/>
      </g>
     </g>
    </g>
    <g id="xtick_3">
     <g id="line2d_5">
      <path d="M 366.600979 675.3057 
L 366.600979 231.7857 
" clip-path="url(#pb3c08070f2)" style="fill: none; stroke: #b0b0b0; stroke-opacity: 0.3; stroke-width: 0.8; stroke-linecap: square"/>
     </g>
     <g id="line2d_6">
      <g>
       <use xlink:href="#m933779526a" x="366.600979" y="675.3057" style="stroke: #000000; stroke-width: 0.8"/>
      </g>
     </g>
     <g id="text_3">
      <!-- 0.4 -->
      <g transform="translate(347.517229 700.54195) scale(0.24 -0.24)">
       <defs>
        <path id="DejaVuSans-34" d="M 2419 4116 
L 825 1625 
L 2419 1625 
L 2419 4116 
z
M 2253 4666 
L 3047 4666 
L 3047 1625 
L 3713 1625 
L 3713 1100 
L 3047 1100 
L 3047 0 
L 2419 0 
L 2419 1100 
L 313 1100 
L 313 1709 
L 2253 4666 
z
" transform="scale(0.015625)"/>
       </defs>
       <use xlink:href="#DejaVuSans-30"/>
       <use xlink:href="#DejaVuSans-2e" x="63.623047"/>
       <use xlink:href="#DejaVuSans-34" x="95.410156"/>
      </g>
     </g>
    </g>
    <g id="xtick_4">
     <g id="line2d_7">
      <path d="M 489.172572 675.3057 
L 489.172572 231.7857 
" clip-path="url(#pb3c08070f2)" style="fill: none; stroke: #b0b0b0; stroke-opacity: 0.3; stroke-width: 0.8; stroke-linecap: square"/>
     </g>
     <g id="line2d_8">
      <g>
       <use xlink:href="#m933779526a" x="489.172572" y="675.3057" style="stroke: #000000; stroke-width: 0.8"/>
      </g>
     </g>
     <g id="text_4">
      <!-- 0.6 -->
      <g transform="translate(470.088822 700.54195) scale(0.24 -0.24)">
       <defs>
        <path id="DejaVuSans-36" d="M 2113 2584 
Q 1688 2584 1439 2293 
Q 1191 2003 1191 1497 
Q 1191 994 1439 701 
Q 1688 409 2113 409 
Q 2538 409 2786 701 
Q 3034 994 3034 1497 
Q 3034 2003 2786 2293 
Q 2538 2584 2113 2584 
z
M 3366 4563 
L 3366 3988 
Q 3128 4100 2886 4159 
Q 2644 4219 2406 4219 
Q 1781 4219 1451 3797 
Q 1122 3375 1075 2522 
Q 1259 2794 1537 2939 
Q 1816 3084 2150 3084 
Q 2853 3084 3261 2657 
Q 3669 2231 3669 1497 
Q 3669 778 3244 343 
Q 2819 -91 2113 -91 
Q 1303 -91 875 529 
Q 447 1150 447 2328 
Q 447 3434 972 4092 
Q 1497 4750 2381 4750 
Q 2619 4750 2861 4703 
Q 3103 4656 3366 4563 
z
" transform="scale(0.015625)"/>
       </defs>
       <use xlink:href="#DejaVuSans-30"/>
       <use xlink:href="#DejaVuSans-2e" x="63.623047"/>
       <use xlink:href="#DejaVuSans-36" x="95.410156"/>
      </g>
     </g>
    </g>
    <g id="xtick_5">
     <g id="line2d_9">
      <path d="M 611.744165 675.3057 
L 611.744165 231.7857 
" clip-path="url(#pb3c08070f2)" style="fill: none; stroke: #b0b0b0; stroke-opacity: 0.3; stroke-width: 0.8; stroke-linecap: square"/>
     </g>
     <g id="line2d_10">
      <g>
       <use xlink:href="#m933779526a" x="611.744165" y="675.3057" style="stroke: #000000; stroke-width: 0.8"/>
      </g>
     </g>
     <g id="text_5">
      <!-- 0.8 -->
      <g transform="translate(592.660415 700.54195) scale(0.24 -0.24)">
       <defs>
        <path id="DejaVuSans-38" d="M 2034 2216 
Q 1584 2216 1326 1975 
Q 1069 1734 1069 1313 
Q 1069 891 1326 650 
Q 1584 409 2034 409 
Q 2484 409 2743 651 
Q 3003 894 3003 1313 
Q 3003 1734 2745 1975 
Q 2488 2216 2034 2216 
z
M 1403 2484 
Q 997 2584 770 2862 
Q 544 3141 544 3541 
Q 544 4100 942 4425 
Q 1341 4750 2034 4750 
Q 2731 4750 3128 4425 
Q 3525 4100 3525 3541 
Q 3525 3141 3298 2862 
Q 3072 2584 2669 2484 
Q 3125 2378 3379 2068 
Q 3634 1759 3634 1313 
Q 3634 634 3220 271 
Q 2806 -91 2034 -91 
Q 1263 -91 848 271 
Q 434 634 434 1313 
Q 434 1759 690 2068 
Q 947 2378 1403 2484 
z
M 1172 3481 
Q 1172 3119 1398 2916 
Q 1625 2713 2034 2713 
Q 2441 2713 2670 2916 
Q 2900 3119 2900 3481 
Q 2900 3844 2670 4047 
Q 2441 4250 2034 4250 
Q 1625 4250 1398 4047 
Q 1172 3844 1172 3481 
z
" transform="scale(0.015625)"/>
       </defs>
       <use xlink:href="#DejaVuSans-30"/>
       <use xlink:href="#DejaVuSans-2e" x="63.623047"/>
       <use xlink:href="#DejaVuSans-38" x="95.410156"/>
      </g>
     </g>
    </g>
    <g id="xtick_6">
     <g id="line2d_11">
      <path d="M 734.315758 675.3057 
L 734.315758 231.7857 
" clip-path="url(#pb3c08070f2)" style="fill: none; stroke: #b0b0b0; stroke-opacity: 0.3; stroke-width: 0.8; stroke-linecap: square"/>
     </g>
     <g id="line2d_12">
      <g>
       <use xlink:href="#m933779526a" x="734.315758" y="675.3057" style="stroke: #000000; stroke-width: 0.8"/>
      </g>
     </g>
     <g id="text_6">
      <!-- 1.0 -->
      <g transform="translate(715.232008 700.54195) scale(0.24 -0.24)">
       <defs>
        <path id="DejaVuSans-31" d="M 794 531 
L 1825 531 
L 1825 4091 
L 703 3866 
L 703 4441 
L 1819 4666 
L 2450 4666 
L 2450 531 
L 3481 531 
L 3481 0 
L 794 0 
L 794 531 
z
" transform="scale(0.015625)"/>
       </defs>
       <use xlink:href="#DejaVuSans-31"/>
       <use xlink:href="#DejaVuSans-2e" x="63.623047"/>
       <use xlink:href="#DejaVuSans-30" x="95.410156"/>
      </g>
     </g>
    </g>
    <g id="text_7">
     <!-- Probability of Pandemic -->
     <g transform="translate(288.764375 727.76945) scale(0.24 -0.24)">
      <defs>
       <path id="DejaVuSans-50" d="M 1259 4147 
L 1259 2394 
L 2053 2394 
Q 2494 2394 2734 2622 
Q 2975 2850 2975 3272 
Q 2975 3691 2734 3919 
Q 2494 4147 2053 4147 
L 1259 4147 
z
M 628 4666 
L 2053 4666 
Q 2838 4666 3239 4311 
Q 3641 3956 3641 3272 
Q 3641 2581 3239 2228 
Q 2838 1875 2053 1875 
L 1259 1875 
L 1259 0 
L 628 0 
L 628 4666 
z
" transform="scale(0.015625)"/>
       <path id="DejaVuSans-72" d="M 2631 2963 
Q 2534 3019 2420 3045 
Q 2306 3072 2169 3072 
Q 1681 3072 1420 2755 
Q 1159 2438 1159 1844 
L 1159 0 
L 581 0 
L 581 3500 
L 1159 3500 
L 1159 2956 
Q 1341 3275 1631 3429 
Q 1922 3584 2338 3584 
Q 2397 3584 2469 3576 
Q 2541 3569 2628 3553 
L 2631 2963 
z
" transform="scale(0.015625)"/>
       <path id="DejaVuSans-6f" d="M 1959 3097 
Q 1497 3097 1228 2736 
Q 959 2375 959 1747 
Q 959 1119 1226 758 
Q 1494 397 1959 397 
Q 2419 397 2687 759 
Q 2956 1122 2956 1747 
Q 2956 2369 2687 2733 
Q 2419 3097 1959 3097 
z
M 1959 3584 
Q 2709 3584 3137 3096 
Q 3566 2609 3566 1747 
Q 3566 888 3137 398 
Q 2709 -91 1959 -91 
Q 1206 -91 779 398 
Q 353 888 353 1747 
Q 353 2609 779 3096 
Q 1206 3584 1959 3584 
z
" transform="scale(0.015625)"/>
       <path id="DejaVuSans-62" d="M 3116 1747 
Q 3116 2381 2855 2742 
Q 2594 3103 2138 3103 
Q 1681 3103 1420 2742 
Q 1159 2381 1159 1747 
Q 1159 1113 1420 752 
Q 1681 391 2138 391 
Q 2594 391 2855 752 
Q 3116 1113 3116 1747 
z
M 1159 2969 
Q 1341 3281 1617 3432 
Q 1894 3584 2278 3584 
Q 2916 3584 3314 3078 
Q 3713 2572 3713 1747 
Q 3713 922 3314 415 
Q 2916 -91 2278 -91 
Q 1894 -91 1617 61 
Q 1341 213 1159 525 
L 1159 0 
L 581 0 
L 581 4863 
L 1159 4863 
L 1159 2969 
z
" transform="scale(0.015625)"/>
       <path id="DejaVuSans-61" d="M 2194 1759 
Q 1497 1759 1228 1600 
Q 959 1441 959 1056 
Q 959 750 1161 570 
Q 1363 391 1709 391 
Q 2188 391 2477 730 
Q 2766 1069 2766 1631 
L 2766 1759 
L 2194 1759 
z
M 3341 1997 
L 3341 0 
L 2766 0 
L 2766 531 
Q 2569 213 2275 61 
Q 1981 -91 1556 -91 
Q 1019 -91 701 211 
Q 384 513 384 1019 
Q 384 1609 779 1909 
Q 1175 2209 1959 2209 
L 2766 2209 
L 2766 2266 
Q 2766 2663 2505 2880 
Q 2244 3097 1772 3097 
Q 1472 3097 1187 3025 
Q 903 2953 641 2809 
L 641 3341 
Q 956 3463 1253 3523 
Q 1550 3584 1831 3584 
Q 2591 3584 2966 3190 
Q 3341 2797 3341 1997 
z
" transform="scale(0.015625)"/>
       <path id="DejaVuSans-69" d="M 603 3500 
L 1178 3500 
L 1178 0 
L 603 0 
L 603 3500 
z
M 603 4863 
L 1178 4863 
L 1178 4134 
L 603 4134 
L 603 4863 
z
" transform="scale(0.015625)"/>
       <path id="DejaVuSans-6c" d="M 603 4863 
L 1178 4863 
L 1178 0 
L 603 0 
L 603 4863 
z
" transform="scale(0.015625)"/>
       <path id="DejaVuSans-74" d="M 1172 4494 
L 1172 3500 
L 2356 3500 
L 2356 3053 
L 1172 3053 
L 1172 1153 
Q 1172 725 1289 603 
Q 1406 481 1766 481 
L 2356 481 
L 2356 0 
L 1766 0 
Q 1100 0 847 248 
Q 594 497 594 1153 
L 594 3053 
L 172 3053 
L 172 3500 
L 594 3500 
L 594 4494 
L 1172 4494 
z
" transform="scale(0.015625)"/>
       <path id="DejaVuSans-79" d="M 2059 -325 
Q 1816 -950 1584 -1140 
Q 1353 -1331 966 -1331 
L 506 -1331 
L 506 -850 
L 844 -850 
Q 1081 -850 1212 -737 
Q 1344 -625 1503 -206 
L 1606 56 
L 191 3500 
L 800 3500 
L 1894 763 
L 2988 3500 
L 3597 3500 
L 2059 -325 
z
" transform="scale(0.015625)"/>
       <path id="DejaVuSans-20" transform="scale(0.015625)"/>
       <path id="DejaVuSans-66" d="M 2375 4863 
L 2375 4384 
L 1825 4384 
Q 1516 4384 1395 4259 
Q 1275 4134 1275 3809 
L 1275 3500 
L 2222 3500 
L 2222 3053 
L 1275 3053 
L 1275 0 
L 697 0 
L 697 3053 
L 147 3053 
L 147 3500 
L 697 3500 
L 697 3744 
Q 697 4328 969 4595 
Q 1241 4863 1831 4863 
L 2375 4863 
z
" transform="scale(0.015625)"/>
       <path id="DejaVuSans-6e" d="M 3513 2113 
L 3513 0 
L 2938 0 
L 2938 2094 
Q 2938 2591 2744 2837 
Q 2550 3084 2163 3084 
Q 1697 3084 1428 2787 
Q 1159 2491 1159 1978 
L 1159 0 
L 581 0 
L 581 3500 
L 1159 3500 
L 1159 2956 
Q 1366 3272 1645 3428 
Q 1925 3584 2291 3584 
Q 2894 3584 3203 3211 
Q 3513 2838 3513 2113 
z
" transform="scale(0.015625)"/>
       <path id="DejaVuSans-64" d="M 2906 2969 
L 2906 4863 
L 3481 4863 
L 3481 0 
L 2906 0 
L 2906 525 
Q 2725 213 2448 61 
Q 2172 -91 1784 -91 
Q 1150 -91 751 415 
Q 353 922 353 1747 
Q 353 2572 751 3078 
Q 1150 3584 1784 3584 
Q 2172 3584 2448 3432 
Q 2725 3281 2906 2969 
z
M 947 1747 
Q 947 1113 1208 752 
Q 1469 391 1925 391 
Q 2381 391 2643 752 
Q 2906 1113 2906 1747 
Q 2906 2381 2643 2742 
Q 2381 3103 1925 3103 
Q 1469 3103 1208 2742 
Q 947 2381 947 1747 
z
" transform="scale(0.015625)"/>
       <path id="DejaVuSans-65" d="M 3597 1894 
L 3597 1613 
L 953 1613 
Q 991 1019 1311 708 
Q 1631 397 2203 397 
Q 2534 397 2845 478 
Q 3156 559 3463 722 
L 3463 178 
Q 3153 47 2828 -22 
Q 2503 -91 2169 -91 
Q 1331 -91 842 396 
Q 353 884 353 1716 
Q 353 2575 817 3079 
Q 1281 3584 2069 3584 
Q 2775 3584 3186 3129 
Q 3597 2675 3597 1894 
z
M 3022 2063 
Q 3016 2534 2758 2815 
Q 2500 3097 2075 3097 
Q 1594 3097 1305 2825 
Q 1016 2553 972 2059 
L 3022 2063 
z
" transform="scale(0.015625)"/>
       <path id="DejaVuSans-6d" d="M 3328 2828 
Q 3544 3216 3844 3400 
Q 4144 3584 4550 3584 
Q 5097 3584 5394 3201 
Q 5691 2819 5691 2113 
L 5691 0 
L 5113 0 
L 5113 2094 
Q 5113 2597 4934 2840 
Q 4756 3084 4391 3084 
Q 3944 3084 3684 2787 
Q 3425 2491 3425 1978 
L 3425 0 
L 2847 0 
L 2847 2094 
Q 2847 2600 2669 2842 
Q 2491 3084 2119 3084 
Q 1678 3084 1418 2786 
Q 1159 2488 1159 1978 
L 1159 0 
L 581 0 
L 581 3500 
L 1159 3500 
L 1159 2956 
Q 1356 3278 1631 3431 
Q 1906 3584 2284 3584 
Q 2666 3584 2933 3390 
Q 3200 3197 3328 2828 
z
" transform="scale(0.015625)"/>
       <path id="DejaVuSans-63" d="M 3122 3366 
L 3122 2828 
Q 2878 2963 2633 3030 
Q 2388 3097 2138 3097 
Q 1578 3097 1268 2742 
Q 959 2388 959 1747 
Q 959 1106 1268 751 
Q 1578 397 2138 397 
Q 2388 397 2633 464 
Q 2878 531 3122 666 
L 3122 134 
Q 2881 22 2623 -34 
Q 2366 -91 2075 -91 
Q 1284 -91 818 406 
Q 353 903 353 1747 
Q 353 2603 823 3093 
Q 1294 3584 2113 3584 
Q 2378 3584 2631 3529 
Q 2884 3475 3122 3366 
z
" transform="scale(0.015625)"/>
      </defs>
      <use xlink:href="#DejaVuSans-50"/>
      <use xlink:href="#DejaVuSans-72" x="58.552734"/>
      <use xlink:href="#DejaVuSans-6f" x="97.416016"/>
      <use xlink:href="#DejaVuSans-62" x="158.597656"/>
      <use xlink:href="#DejaVuSans-61" x="222.074219"/>
      <use xlink:href="#DejaVuSans-62" x="283.353516"/>
      <use xlink:href="#DejaVuSans-69" x="346.830078"/>
      <use xlink:href="#DejaVuSans-6c" x="374.613281"/>
      <use xlink:href="#DejaVuSans-69" x="402.396484"/>
      <use xlink:href="#DejaVuSans-74" x="430.179688"/>
      <use xlink:href="#DejaVuSans-79" x="469.388672"/>
      <use xlink:href="#DejaVuSans-20" x="528.568359"/>
      <use xlink:href="#DejaVuSans-6f" x="560.355469"/>
      <use xlink:href="#DejaVuSans-66" x="621.537109"/>
      <use xlink:href="#DejaVuSans-20" x="656.742188"/>
      <use xlink:href="#DejaVuSans-50" x="688.529297"/>
      <use xlink:href="#DejaVuSans-61" x="744.332031"/>
      <use xlink:href="#DejaVuSans-6e" x="805.611328"/>
      <use xlink:href="#DejaVuSans-64" x="868.990234"/>
      <use xlink:href="#DejaVuSans-65" x="932.466797"/>
      <use xlink:href="#DejaVuSans-6d" x="993.990234"/>
      <use xlink:href="#DejaVuSans-69" x="1091.402344"/>
      <use xlink:href="#DejaVuSans-63" x="1119.185547"/>
     </g>
    </g>
   </g>
   <g id="matplotlib.axis_2">
    <g id="ytick_1">
     <g id="line2d_13">
      <path d="M 94.865 675.3057 
L 764.465 675.3057 
" clip-path="url(#pb3c08070f2)" style="fill: none; stroke: #b0b0b0; stroke-opacity: 0.3; stroke-width: 0.8; stroke-linecap: square"/>
     </g>
     <g id="line2d_14">
      <defs>
       <path id="m6f41291302" d="M 0 0 
L -3.5 0 
" style="stroke: #000000; stroke-width: 0.8"/>
      </defs>
      <g>
       <use xlink:href="#m6f41291302" x="94.865" y="675.3057" style="stroke: #000000; stroke-width: 0.8"/>
      </g>
     </g>
     <g id="text_8">
      <!-- 0.00 -->
      <g transform="translate(34.4275 684.423825) scale(0.24 -0.24)">
       <use xlink:href="#DejaVuSans-30"/>
       <use xlink:href="#DejaVuSans-2e" x="63.623047"/>
       <use xlink:href="#DejaVuSans-30" x="95.410156"/>
       <use xlink:href="#DejaVuSans-30" x="159.033203"/>
      </g>
     </g>
    </g>
    <g id="ytick_2">
     <g id="line2d_15">
      <path d="M 94.865 618.719389 
L 764.465 618.719389 
" clip-path="url(#pb3c08070f2)" style="fill: none; stroke: #b0b0b0; stroke-opacity: 0.3; stroke-width: 0.8; stroke-linecap: square"/>
     </g>
     <g id="line2d_16">
      <g>
       <use xlink:href="#m6f41291302" x="94.865" y="618.719389" style="stroke: #000000; stroke-width: 0.8"/>
      </g>
     </g>
     <g id="text_9">
      <!-- 0.25 -->
      <g transform="translate(34.4275 627.837514) scale(0.24 -0.24)">
       <defs>
        <path id="DejaVuSans-35" d="M 691 4666 
L 3169 4666 
L 3169 4134 
L 1269 4134 
L 1269 2991 
Q 1406 3038 1543 3061 
Q 1681 3084 1819 3084 
Q 2600 3084 3056 2656 
Q 3513 2228 3513 1497 
Q 3513 744 3044 326 
Q 2575 -91 1722 -91 
Q 1428 -91 1123 -41 
Q 819 9 494 109 
L 494 744 
Q 775 591 1075 516 
Q 1375 441 1709 441 
Q 2250 441 2565 725 
Q 2881 1009 2881 1497 
Q 2881 1984 2565 2268 
Q 2250 2553 1709 2553 
Q 1456 2553 1204 2497 
Q 953 2441 691 2322 
L 691 4666 
z
" transform="scale(0.015625)"/>
       </defs>
       <use xlink:href="#DejaVuSans-30"/>
       <use xlink:href="#DejaVuSans-2e" x="63.623047"/>
       <use xlink:href="#DejaVuSans-32" x="95.410156"/>
       <use xlink:href="#DejaVuSans-35" x="159.033203"/>
      </g>
     </g>
    </g>
    <g id="ytick_3">
     <g id="line2d_17">
      <path d="M 94.865 562.133079 
L 764.465 562.133079 
" clip-path="url(#pb3c08070f2)" style="fill: none; stroke: #b0b0b0; stroke-opacity: 0.3; stroke-width: 0.8; stroke-linecap: square"/>
     </g>
     <g id="line2d_18">
      <g>
       <use xlink:href="#m6f41291302" x="94.865" y="562.133079" style="stroke: #000000; stroke-width: 0.8"/>
      </g>
     </g>
     <g id="text_10">
      <!-- 0.50 -->
      <g transform="translate(34.4275 571.251204) scale(0.24 -0.24)">
       <use xlink:href="#DejaVuSans-30"/>
       <use xlink:href="#DejaVuSans-2e" x="63.623047"/>
       <use xlink:href="#DejaVuSans-35" x="95.410156"/>
       <use xlink:href="#DejaVuSans-30" x="159.033203"/>
      </g>
     </g>
    </g>
    <g id="ytick_4">
     <g id="line2d_19">
      <path d="M 94.865 505.546768 
L 764.465 505.546768 
" clip-path="url(#pb3c08070f2)" style="fill: none; stroke: #b0b0b0; stroke-opacity: 0.3; stroke-width: 0.8; stroke-linecap: square"/>
     </g>
     <g id="line2d_20">
      <g>
       <use xlink:href="#m6f41291302" x="94.865" y="505.546768" style="stroke: #000000; stroke-width: 0.8"/>
      </g>
     </g>
     <g id="text_11">
      <!-- 0.75 -->
      <g transform="translate(34.4275 514.664893) scale(0.24 -0.24)">
       <defs>
        <path id="DejaVuSans-37" d="M 525 4666 
L 3525 4666 
L 3525 4397 
L 1831 0 
L 1172 0 
L 2766 4134 
L 525 4134 
L 525 4666 
z
" transform="scale(0.015625)"/>
       </defs>
       <use xlink:href="#DejaVuSans-30"/>
       <use xlink:href="#DejaVuSans-2e" x="63.623047"/>
       <use xlink:href="#DejaVuSans-37" x="95.410156"/>
       <use xlink:href="#DejaVuSans-35" x="159.033203"/>
      </g>
     </g>
    </g>
    <g id="ytick_5">
     <g id="line2d_21">
      <path d="M 94.865 448.960458 
L 764.465 448.960458 
" clip-path="url(#pb3c08070f2)" style="fill: none; stroke: #b0b0b0; stroke-opacity: 0.3; stroke-width: 0.8; stroke-linecap: square"/>
     </g>
     <g id="line2d_22">
      <g>
       <use xlink:href="#m6f41291302" x="94.865" y="448.960458" style="stroke: #000000; stroke-width: 0.8"/>
      </g>
     </g>
     <g id="text_12">
      <!-- 1.00 -->
      <g transform="translate(34.4275 458.078583) scale(0.24 -0.24)">
       <use xlink:href="#DejaVuSans-31"/>
       <use xlink:href="#DejaVuSans-2e" x="63.623047"/>
       <use xlink:href="#DejaVuSans-30" x="95.410156"/>
       <use xlink:href="#DejaVuSans-30" x="159.033203"/>
      </g>
     </g>
    </g>
    <g id="ytick_6">
     <g id="line2d_23">
      <path d="M 94.865 392.374147 
L 764.465 392.374147 
" clip-path="url(#pb3c08070f2)" style="fill: none; stroke: #b0b0b0; stroke-opacity: 0.3; stroke-width: 0.8; stroke-linecap: square"/>
     </g>
     <g id="line2d_24">
      <g>
       <use xlink:href="#m6f41291302" x="94.865" y="392.374147" style="stroke: #000000; stroke-width: 0.8"/>
      </g>
     </g>
     <g id="text_13">
      <!-- 1.25 -->
      <g transform="translate(34.4275 401.492272) scale(0.24 -0.24)">
       <use xlink:href="#DejaVuSans-31"/>
       <use xlink:href="#DejaVuSans-2e" x="63.623047"/>
       <use xlink:href="#DejaVuSans-32" x="95.410156"/>
       <use xlink:href="#DejaVuSans-35" x="159.033203"/>
      </g>
     </g>
    </g>
    <g id="ytick_7">
     <g id="line2d_25">
      <path d="M 94.865 335.787837 
L 764.465 335.787837 
" clip-path="url(#pb3c08070f2)" style="fill: none; stroke: #b0b0b0; stroke-opacity: 0.3; stroke-width: 0.8; stroke-linecap: square"/>
     </g>
     <g id="line2d_26">
      <g>
       <use xlink:href="#m6f41291302" x="94.865" y="335.787837" style="stroke: #000000; stroke-width: 0.8"/>
      </g>
     </g>
     <g id="text_14">
      <!-- 1.50 -->
      <g transform="translate(34.4275 344.905962) scale(0.24 -0.24)">
       <use xlink:href="#DejaVuSans-31"/>
       <use xlink:href="#DejaVuSans-2e" x="63.623047"/>
       <use xlink:href="#DejaVuSans-35" x="95.410156"/>
       <use xlink:href="#DejaVuSans-30" x="159.033203"/>
      </g>
     </g>
    </g>
    <g id="ytick_8">
     <g id="line2d_27">
      <path d="M 94.865 279.201526 
L 764.465 279.201526 
" clip-path="url(#pb3c08070f2)" style="fill: none; stroke: #b0b0b0; stroke-opacity: 0.3; stroke-width: 0.8; stroke-linecap: square"/>
     </g>
     <g id="line2d_28">
      <g>
       <use xlink:href="#m6f41291302" x="94.865" y="279.201526" style="stroke: #000000; stroke-width: 0.8"/>
      </g>
     </g>
     <g id="text_15">
      <!-- 1.75 -->
      <g transform="translate(34.4275 288.319651) scale(0.24 -0.24)">
       <use xlink:href="#DejaVuSans-31"/>
       <use xlink:href="#DejaVuSans-2e" x="63.623047"/>
       <use xlink:href="#DejaVuSans-37" x="95.410156"/>
       <use xlink:href="#DejaVuSans-35" x="159.033203"/>
      </g>
     </g>
    </g>
    <g id="text_16">
     <!-- Density -->
     <g transform="translate(25.43625 499.166325) rotate(-90) scale(0.24 -0.24)">
      <defs>
       <path id="DejaVuSans-44" d="M 1259 4147 
L 1259 519 
L 2022 519 
Q 2988 519 3436 956 
Q 3884 1394 3884 2338 
Q 3884 3275 3436 3711 
Q 2988 4147 2022 4147 
L 1259 4147 
z
M 628 4666 
L 1925 4666 
Q 3281 4666 3915 4102 
Q 4550 3538 4550 2338 
Q 4550 1131 3912 565 
Q 3275 0 1925 0 
L 628 0 
L 628 4666 
z
" transform="scale(0.015625)"/>
       <path id="DejaVuSans-73" d="M 2834 3397 
L 2834 2853 
Q 2591 2978 2328 3040 
Q 2066 3103 1784 3103 
Q 1356 3103 1142 2972 
Q 928 2841 928 2578 
Q 928 2378 1081 2264 
Q 1234 2150 1697 2047 
L 1894 2003 
Q 2506 1872 2764 1633 
Q 3022 1394 3022 966 
Q 3022 478 2636 193 
Q 2250 -91 1575 -91 
Q 1294 -91 989 -36 
Q 684 19 347 128 
L 347 722 
Q 666 556 975 473 
Q 1284 391 1588 391 
Q 1994 391 2212 530 
Q 2431 669 2431 922 
Q 2431 1156 2273 1281 
Q 2116 1406 1581 1522 
L 1381 1569 
Q 847 1681 609 1914 
Q 372 2147 372 2553 
Q 372 3047 722 3315 
Q 1072 3584 1716 3584 
Q 2034 3584 2315 3537 
Q 2597 3491 2834 3397 
z
" transform="scale(0.015625)"/>
      </defs>
      <use xlink:href="#DejaVuSans-44"/>
      <use xlink:href="#DejaVuSans-65" x="77.001953"/>
      <use xlink:href="#DejaVuSans-6e" x="138.525391"/>
      <use xlink:href="#DejaVuSans-73" x="201.904297"/>
      <use xlink:href="#DejaVuSans-69" x="254.003906"/>
      <use xlink:href="#DejaVuSans-74" x="281.787109"/>
      <use xlink:href="#DejaVuSans-79" x="320.996094"/>
     </g>
    </g>
   </g>
   <g id="line2d_29">
    <path d="M 125.301364 675.153856 
L 130.785393 674.851013 
L 135.050749 674.402105 
L 139.316106 673.729166 
L 144.190799 672.706129 
L 149.674828 671.311061 
L 154.549521 669.859923 
L 158.205541 668.568602 
L 161.86156 667.045423 
L 165.51758 665.286981 
L 170.392273 662.660319 
L 183.797678 655.000178 
L 191.109717 650.594903 
L 196.593747 647.049602 
L 200.859103 644.029568 
L 205.733796 640.291714 
L 217.920528 630.58768 
L 223.404558 625.865076 
L 233.76328 616.901877 
L 239.24731 612.056723 
L 247.778022 604.087219 
L 262.402101 590.475097 
L 269.71414 583.313182 
L 275.19817 577.973995 
L 278.854189 574.05218 
L 294.087604 557.057051 
L 308.102346 542.098997 
L 316.633059 533.029607 
L 325.163771 524.004161 
L 329.429128 519.115943 
L 339.178514 507.678891 
L 345.881216 500.421381 
L 353.802592 491.744483 
L 360.505295 484.056719 
L 372.692027 469.949189 
L 376.348047 466.086719 
L 385.488096 456.692947 
L 389.753452 451.735714 
L 395.237482 445.35287 
L 399.502838 440.747534 
L 404.377531 435.835012 
L 411.080233 429.136731 
L 414.126916 425.770995 
L 417.1736 422.091155 
L 422.048292 415.784276 
L 428.141658 407.958409 
L 432.407015 402.811486 
L 436.063034 398.761455 
L 439.719054 395.07904 
L 447.031093 387.89358 
L 450.687113 383.930879 
L 454.952469 378.927133 
L 465.920528 365.705886 
L 469.576548 361.846035 
L 478.716597 352.451767 
L 482.981953 347.561662 
L 489.075319 340.571024 
L 493.340676 336.087532 
L 498.215369 331.319964 
L 508.574091 321.577629 
L 522.588833 308.550401 
L 528.682199 302.845556 
L 532.338219 299.778838 
L 537.212912 296.065293 
L 542.087604 292.257245 
L 551.83699 284.215068 
L 554.883673 281.400418 
L 563.414386 273.10227 
L 565.851732 271.212195 
L 568.898415 269.191076 
L 573.163771 266.678103 
L 576.819791 264.743764 
L 579.866474 263.398503 
L 582.913157 262.319695 
L 592.662543 259.139368 
L 603.630602 254.909271 
L 606.677285 254.065878 
L 609.723968 253.433915 
L 612.770651 253.035956 
L 615.207998 252.908366 
L 617.645344 252.973059 
L 620.08269 253.244723 
L 623.129373 253.851292 
L 636.534779 257.166958 
L 638.362789 257.890125 
L 640.190799 258.811754 
L 642.628145 260.346246 
L 645.065491 262.20114 
L 647.502838 264.362094 
L 649.940184 266.836772 
L 652.377531 269.617978 
L 655.424214 273.446854 
L 659.68957 279.226474 
L 663.34559 284.547808 
L 665.782936 288.423352 
L 668.220283 292.677472 
L 670.657629 297.357834 
L 673.704312 303.779011 
L 676.750995 310.752336 
L 679.797678 318.290928 
L 682.235025 324.868157 
L 684.672371 332.118357 
L 687.109717 340.196002 
L 689.547064 349.166696 
L 691.98441 358.991583 
L 695.031093 372.325594 
L 698.077776 386.690353 
L 701.124459 402.067234 
L 704.171143 418.557189 
L 707.217826 436.354871 
L 709.655172 451.725694 
L 712.092518 468.290745 
L 714.529865 486.210028 
L 716.967211 505.584002 
L 720.013894 531.800165 
L 724.279251 571.121172 
L 727.93527 604.45073 
L 730.372617 624.442742 
L 732.200627 637.436837 
L 733.4193 644.948528 
L 734.028636 648.336199 
L 734.028636 648.336199 
" clip-path="url(#pb3c08070f2)" style="fill: none; stroke: #008000; stroke-width: 2; stroke-linecap: square"/>
   </g>
   <g id="line2d_30">
    <path d="M 521.121871 675.3057 
L 521.121871 231.7857 
" clip-path="url(#pb3c08070f2)" style="fill: none; stroke-dasharray: 7.4,3.2; stroke-dashoffset: 0; stroke: #ff0000; stroke-width: 2"/>
   </g>
   <g id="line2d_31">
    <path d="M 605.135631 675.3057 
L 605.135631 231.7857 
" clip-path="url(#pb3c08070f2)" style="fill: none; stroke-dasharray: 2,3.3; stroke-dashoffset: 0; stroke: #ffa500; stroke-width: 2"/>
   </g>
   <g id="line2d_32">
    <path d="M 621.514529 675.3057 
L 621.514529 231.7857 
" clip-path="url(#pb3c08070f2)" style="fill: none; stroke-dasharray: 2,3.3; stroke-dashoffset: 0; stroke: #ffa500; stroke-width: 2"/>
   </g>
   <g id="patch_53">
    <path d="M 94.865 675.3057 
L 94.865 231.7857 
" style="fill: none; stroke: #000000; stroke-width: 0.8; stroke-linejoin: miter; stroke-linecap: square"/>
   </g>
   <g id="patch_54">
    <path d="M 764.465 675.3057 
L 764.465 231.7857 
" style="fill: none; stroke: #000000; stroke-width: 0.8; stroke-linejoin: miter; stroke-linecap: square"/>
   </g>
   <g id="patch_55">
    <path d="M 94.865 675.3057 
L 764.465 675.3057 
" style="fill: none; stroke: #000000; stroke-width: 0.8; stroke-linejoin: miter; stroke-linecap: square"/>
   </g>
   <g id="patch_56">
    <path d="M 94.865 231.7857 
L 764.465 231.7857 
" style="fill: none; stroke: #000000; stroke-width: 0.8; stroke-linejoin: miter; stroke-linecap: square"/>
   </g>
   <g id="text_17">
    <!-- Posterior Predictive Distribution -->
    <g transform="translate(201.89975 29.0835) scale(0.288 -0.288)">
     <defs>
      <path id="DejaVuSans-76" d="M 191 3500 
L 800 3500 
L 1894 563 
L 2988 3500 
L 3597 3500 
L 2284 0 
L 1503 0 
L 191 3500 
z
" transform="scale(0.015625)"/>
      <path id="DejaVuSans-75" d="M 544 1381 
L 544 3500 
L 1119 3500 
L 1119 1403 
Q 1119 906 1312 657 
Q 1506 409 1894 409 
Q 2359 409 2629 706 
Q 2900 1003 2900 1516 
L 2900 3500 
L 3475 3500 
L 3475 0 
L 2900 0 
L 2900 538 
Q 2691 219 2414 64 
Q 2138 -91 1772 -91 
Q 1169 -91 856 284 
Q 544 659 544 1381 
z
M 1991 3584 
L 1991 3584 
z
" transform="scale(0.015625)"/>
     </defs>
     <use xlink:href="#DejaVuSans-50"/>
     <use xlink:href="#DejaVuSans-6f" x="56.677734"/>
     <use xlink:href="#DejaVuSans-73" x="117.859375"/>
     <use xlink:href="#DejaVuSans-74" x="169.958984"/>
     <use xlink:href="#DejaVuSans-65" x="209.167969"/>
     <use xlink:href="#DejaVuSans-72" x="270.691406"/>
     <use xlink:href="#DejaVuSans-69" x="311.804688"/>
     <use xlink:href="#DejaVuSans-6f" x="339.587891"/>
     <use xlink:href="#DejaVuSans-72" x="400.769531"/>
     <use xlink:href="#DejaVuSans-20" x="441.882812"/>
     <use xlink:href="#DejaVuSans-50" x="473.669922"/>
     <use xlink:href="#DejaVuSans-72" x="532.222656"/>
     <use xlink:href="#DejaVuSans-65" x="571.085938"/>
     <use xlink:href="#DejaVuSans-64" x="632.609375"/>
     <use xlink:href="#DejaVuSans-69" x="696.085938"/>
     <use xlink:href="#DejaVuSans-63" x="723.869141"/>
     <use xlink:href="#DejaVuSans-74" x="778.849609"/>
     <use xlink:href="#DejaVuSans-69" x="818.058594"/>
     <use xlink:href="#DejaVuSans-76" x="845.841797"/>
     <use xlink:href="#DejaVuSans-65" x="905.021484"/>
     <use xlink:href="#DejaVuSans-20" x="966.544922"/>
     <use xlink:href="#DejaVuSans-44" x="998.332031"/>
     <use xlink:href="#DejaVuSans-69" x="1075.333984"/>
     <use xlink:href="#DejaVuSans-73" x="1103.117188"/>
     <use xlink:href="#DejaVuSans-74" x="1155.216797"/>
     <use xlink:href="#DejaVuSans-72" x="1194.425781"/>
     <use xlink:href="#DejaVuSans-69" x="1235.539062"/>
     <use xlink:href="#DejaVuSans-62" x="1263.322266"/>
     <use xlink:href="#DejaVuSans-75" x="1326.798828"/>
     <use xlink:href="#DejaVuSans-74" x="1390.177734"/>
     <use xlink:href="#DejaVuSans-69" x="1429.386719"/>
     <use xlink:href="#DejaVuSans-6f" x="1457.169922"/>
     <use xlink:href="#DejaVuSans-6e" x="1518.351562"/>
    </g>
    <!-- Yellow fever -->
    <g transform="translate(343.51925 61.3332) scale(0.288 -0.288)">
     <defs>
      <path id="DejaVuSans-59" d="M -13 4666 
L 666 4666 
L 1959 2747 
L 3244 4666 
L 3922 4666 
L 2272 2222 
L 2272 0 
L 1638 0 
L 1638 2222 
L -13 4666 
z
" transform="scale(0.015625)"/>
      <path id="DejaVuSans-77" d="M 269 3500 
L 844 3500 
L 1563 769 
L 2278 3500 
L 2956 3500 
L 3675 769 
L 4391 3500 
L 4966 3500 
L 4050 0 
L 3372 0 
L 2619 2869 
L 1863 0 
L 1184 0 
L 269 3500 
z
" transform="scale(0.015625)"/>
     </defs>
     <use xlink:href="#DejaVuSans-59"/>
     <use xlink:href="#DejaVuSans-65" x="47.833984"/>
     <use xlink:href="#DejaVuSans-6c" x="109.357422"/>
     <use xlink:href="#DejaVuSans-6c" x="137.140625"/>
     <use xlink:href="#DejaVuSans-6f" x="164.923828"/>
     <use xlink:href="#DejaVuSans-77" x="226.105469"/>
     <use xlink:href="#DejaVuSans-20" x="307.892578"/>
     <use xlink:href="#DejaVuSans-66" x="339.679688"/>
     <use xlink:href="#DejaVuSans-65" x="374.884766"/>
     <use xlink:href="#DejaVuSans-76" x="436.408203"/>
     <use xlink:href="#DejaVuSans-65" x="495.587891"/>
     <use xlink:href="#DejaVuSans-72" x="557.111328"/>
    </g>
    <!-- R0_min: 1.3500 -->
    <g transform="translate(316.33025 93.5829) scale(0.288 -0.288)">
     <defs>
      <path id="DejaVuSans-52" d="M 2841 2188 
Q 3044 2119 3236 1894 
Q 3428 1669 3622 1275 
L 4263 0 
L 3584 0 
L 2988 1197 
Q 2756 1666 2539 1819 
Q 2322 1972 1947 1972 
L 1259 1972 
L 1259 0 
L 628 0 
L 628 4666 
L 2053 4666 
Q 2853 4666 3247 4331 
Q 3641 3997 3641 3322 
Q 3641 2881 3436 2590 
Q 3231 2300 2841 2188 
z
M 1259 4147 
L 1259 2491 
L 2053 2491 
Q 2509 2491 2742 2702 
Q 2975 2913 2975 3322 
Q 2975 3731 2742 3939 
Q 2509 4147 2053 4147 
L 1259 4147 
z
" transform="scale(0.015625)"/>
      <path id="DejaVuSans-5f" d="M 3263 -1063 
L 3263 -1509 
L -63 -1509 
L -63 -1063 
L 3263 -1063 
z
" transform="scale(0.015625)"/>
      <path id="DejaVuSans-3a" d="M 750 794 
L 1409 794 
L 1409 0 
L 750 0 
L 750 794 
z
M 750 3309 
L 1409 3309 
L 1409 2516 
L 750 2516 
L 750 3309 
z
" transform="scale(0.015625)"/>
      <path id="DejaVuSans-33" d="M 2597 2516 
Q 3050 2419 3304 2112 
Q 3559 1806 3559 1356 
Q 3559 666 3084 287 
Q 2609 -91 1734 -91 
Q 1441 -91 1130 -33 
Q 819 25 488 141 
L 488 750 
Q 750 597 1062 519 
Q 1375 441 1716 441 
Q 2309 441 2620 675 
Q 2931 909 2931 1356 
Q 2931 1769 2642 2001 
Q 2353 2234 1838 2234 
L 1294 2234 
L 1294 2753 
L 1863 2753 
Q 2328 2753 2575 2939 
Q 2822 3125 2822 3475 
Q 2822 3834 2567 4026 
Q 2313 4219 1838 4219 
Q 1578 4219 1281 4162 
Q 984 4106 628 3988 
L 628 4550 
Q 988 4650 1302 4700 
Q 1616 4750 1894 4750 
Q 2613 4750 3031 4423 
Q 3450 4097 3450 3541 
Q 3450 3153 3228 2886 
Q 3006 2619 2597 2516 
z
" transform="scale(0.015625)"/>
     </defs>
     <use xlink:href="#DejaVuSans-52"/>
     <use xlink:href="#DejaVuSans-30" x="69.482422"/>
     <use xlink:href="#DejaVuSans-5f" x="133.105469"/>
     <use xlink:href="#DejaVuSans-6d" x="183.105469"/>
     <use xlink:href="#DejaVuSans-69" x="280.517578"/>
     <use xlink:href="#DejaVuSans-6e" x="308.300781"/>
     <use xlink:href="#DejaVuSans-3a" x="371.679688"/>
     <use xlink:href="#DejaVuSans-20" x="405.371094"/>
     <use xlink:href="#DejaVuSans-31" x="437.158203"/>
     <use xlink:href="#DejaVuSans-2e" x="500.78125"/>
     <use xlink:href="#DejaVuSans-33" x="532.568359"/>
     <use xlink:href="#DejaVuSans-35" x="596.191406"/>
     <use xlink:href="#DejaVuSans-30" x="659.814453"/>
     <use xlink:href="#DejaVuSans-30" x="723.4375"/>
    </g>
    <!-- infectious_period_average_days: 3.0000 -->
    <g transform="translate(139.37225 126.6336) scale(0.288 -0.288)">
     <defs>
      <path id="DejaVuSans-70" d="M 1159 525 
L 1159 -1331 
L 581 -1331 
L 581 3500 
L 1159 3500 
L 1159 2969 
Q 1341 3281 1617 3432 
Q 1894 3584 2278 3584 
Q 2916 3584 3314 3078 
Q 3713 2572 3713 1747 
Q 3713 922 3314 415 
Q 2916 -91 2278 -91 
Q 1894 -91 1617 61 
Q 1341 213 1159 525 
z
M 3116 1747 
Q 3116 2381 2855 2742 
Q 2594 3103 2138 3103 
Q 1681 3103 1420 2742 
Q 1159 2381 1159 1747 
Q 1159 1113 1420 752 
Q 1681 391 2138 391 
Q 2594 391 2855 752 
Q 3116 1113 3116 1747 
z
" transform="scale(0.015625)"/>
      <path id="DejaVuSans-67" d="M 2906 1791 
Q 2906 2416 2648 2759 
Q 2391 3103 1925 3103 
Q 1463 3103 1205 2759 
Q 947 2416 947 1791 
Q 947 1169 1205 825 
Q 1463 481 1925 481 
Q 2391 481 2648 825 
Q 2906 1169 2906 1791 
z
M 3481 434 
Q 3481 -459 3084 -895 
Q 2688 -1331 1869 -1331 
Q 1566 -1331 1297 -1286 
Q 1028 -1241 775 -1147 
L 775 -588 
Q 1028 -725 1275 -790 
Q 1522 -856 1778 -856 
Q 2344 -856 2625 -561 
Q 2906 -266 2906 331 
L 2906 616 
Q 2728 306 2450 153 
Q 2172 0 1784 0 
Q 1141 0 747 490 
Q 353 981 353 1791 
Q 353 2603 747 3093 
Q 1141 3584 1784 3584 
Q 2172 3584 2450 3431 
Q 2728 3278 2906 2969 
L 2906 3500 
L 3481 3500 
L 3481 434 
z
" transform="scale(0.015625)"/>
     </defs>
     <use xlink:href="#DejaVuSans-69"/>
     <use xlink:href="#DejaVuSans-6e" x="27.783203"/>
     <use xlink:href="#DejaVuSans-66" x="91.162109"/>
     <use xlink:href="#DejaVuSans-65" x="126.367188"/>
     <use xlink:href="#DejaVuSans-63" x="187.890625"/>
     <use xlink:href="#DejaVuSans-74" x="242.871094"/>
     <use xlink:href="#DejaVuSans-69" x="282.080078"/>
     <use xlink:href="#DejaVuSans-6f" x="309.863281"/>
     <use xlink:href="#DejaVuSans-75" x="371.044922"/>
     <use xlink:href="#DejaVuSans-73" x="434.423828"/>
     <use xlink:href="#DejaVuSans-5f" x="486.523438"/>
     <use xlink:href="#DejaVuSans-70" x="536.523438"/>
     <use xlink:href="#DejaVuSans-65" x="600"/>
     <use xlink:href="#DejaVuSans-72" x="661.523438"/>
     <use xlink:href="#DejaVuSans-69" x="702.636719"/>
     <use xlink:href="#DejaVuSans-6f" x="730.419922"/>
     <use xlink:href="#DejaVuSans-64" x="791.601562"/>
     <use xlink:href="#DejaVuSans-5f" x="855.078125"/>
     <use xlink:href="#DejaVuSans-61" x="905.078125"/>
     <use xlink:href="#DejaVuSans-76" x="966.357422"/>
     <use xlink:href="#DejaVuSans-65" x="1025.537109"/>
     <use xlink:href="#DejaVuSans-72" x="1087.060547"/>
     <use xlink:href="#DejaVuSans-61" x="1128.173828"/>
     <use xlink:href="#DejaVuSans-67" x="1189.453125"/>
     <use xlink:href="#DejaVuSans-65" x="1252.929688"/>
     <use xlink:href="#DejaVuSans-5f" x="1314.453125"/>
     <use xlink:href="#DejaVuSans-64" x="1364.453125"/>
     <use xlink:href="#DejaVuSans-61" x="1427.929688"/>
     <use xlink:href="#DejaVuSans-79" x="1489.208984"/>
     <use xlink:href="#DejaVuSans-73" x="1548.388672"/>
     <use xlink:href="#DejaVuSans-3a" x="1600.488281"/>
     <use xlink:href="#DejaVuSans-20" x="1634.179688"/>
     <use xlink:href="#DejaVuSans-33" x="1665.966797"/>
     <use xlink:href="#DejaVuSans-2e" x="1729.589844"/>
     <use xlink:href="#DejaVuSans-30" x="1761.376953"/>
     <use xlink:href="#DejaVuSans-30" x="1825"/>
     <use xlink:href="#DejaVuSans-30" x="1888.623047"/>
     <use xlink:href="#DejaVuSans-30" x="1952.246094"/>
    </g>
    <!-- lethality_rate: 0.4050 -->
    <g transform="translate(274.775 159.6843) scale(0.288 -0.288)">
     <defs>
      <path id="DejaVuSans-68" d="M 3513 2113 
L 3513 0 
L 2938 0 
L 2938 2094 
Q 2938 2591 2744 2837 
Q 2550 3084 2163 3084 
Q 1697 3084 1428 2787 
Q 1159 2491 1159 1978 
L 1159 0 
L 581 0 
L 581 4863 
L 1159 4863 
L 1159 2956 
Q 1366 3272 1645 3428 
Q 1925 3584 2291 3584 
Q 2894 3584 3203 3211 
Q 3513 2838 3513 2113 
z
" transform="scale(0.015625)"/>
     </defs>
     <use xlink:href="#DejaVuSans-6c"/>
     <use xlink:href="#DejaVuSans-65" x="27.783203"/>
     <use xlink:href="#DejaVuSans-74" x="89.306641"/>
     <use xlink:href="#DejaVuSans-68" x="128.515625"/>
     <use xlink:href="#DejaVuSans-61" x="191.894531"/>
     <use xlink:href="#DejaVuSans-6c" x="253.173828"/>
     <use xlink:href="#DejaVuSans-69" x="280.957031"/>
     <use xlink:href="#DejaVuSans-74" x="308.740234"/>
     <use xlink:href="#DejaVuSans-79" x="347.949219"/>
     <use xlink:href="#DejaVuSans-5f" x="407.128906"/>
     <use xlink:href="#DejaVuSans-72" x="457.128906"/>
     <use xlink:href="#DejaVuSans-61" x="498.242188"/>
     <use xlink:href="#DejaVuSans-74" x="559.521484"/>
     <use xlink:href="#DejaVuSans-65" x="598.730469"/>
     <use xlink:href="#DejaVuSans-3a" x="660.253906"/>
     <use xlink:href="#DejaVuSans-20" x="693.945312"/>
     <use xlink:href="#DejaVuSans-30" x="725.732422"/>
     <use xlink:href="#DejaVuSans-2e" x="789.355469"/>
     <use xlink:href="#DejaVuSans-34" x="821.142578"/>
     <use xlink:href="#DejaVuSans-30" x="884.765625"/>
     <use xlink:href="#DejaVuSans-35" x="948.388672"/>
     <use xlink:href="#DejaVuSans-30" x="1012.011719"/>
    </g>
    <!-- incubation_period_days_min: 3.0000 -->
    <g transform="translate(165.51275 192.735) scale(0.288 -0.288)">
     <use xlink:href="#DejaVuSans-69"/>
     <use xlink:href="#DejaVuSans-6e" x="27.783203"/>
     <use xlink:href="#DejaVuSans-63" x="91.162109"/>
     <use xlink:href="#DejaVuSans-75" x="146.142578"/>
     <use xlink:href="#DejaVuSans-62" x="209.521484"/>
     <use xlink:href="#DejaVuSans-61" x="272.998047"/>
     <use xlink:href="#DejaVuSans-74" x="334.277344"/>
     <use xlink:href="#DejaVuSans-69" x="373.486328"/>
     <use xlink:href="#DejaVuSans-6f" x="401.269531"/>
     <use xlink:href="#DejaVuSans-6e" x="462.451172"/>
     <use xlink:href="#DejaVuSans-5f" x="525.830078"/>
     <use xlink:href="#DejaVuSans-70" x="575.830078"/>
     <use xlink:href="#DejaVuSans-65" x="639.306641"/>
     <use xlink:href="#DejaVuSans-72" x="700.830078"/>
     <use xlink:href="#DejaVuSans-69" x="741.943359"/>
     <use xlink:href="#DejaVuSans-6f" x="769.726562"/>
     <use xlink:href="#DejaVuSans-64" x="830.908203"/>
     <use xlink:href="#DejaVuSans-5f" x="894.384766"/>
     <use xlink:href="#DejaVuSans-64" x="944.384766"/>
     <use xlink:href="#DejaVuSans-61" x="1007.861328"/>
     <use xlink:href="#DejaVuSans-79" x="1069.140625"/>
     <use xlink:href="#DejaVuSans-73" x="1128.320312"/>
     <use xlink:href="#DejaVuSans-5f" x="1180.419922"/>
     <use xlink:href="#DejaVuSans-6d" x="1230.419922"/>
     <use xlink:href="#DejaVuSans-69" x="1327.832031"/>
     <use xlink:href="#DejaVuSans-6e" x="1355.615234"/>
     <use xlink:href="#DejaVuSans-3a" x="1418.994141"/>
     <use xlink:href="#DejaVuSans-20" x="1452.685547"/>
     <use xlink:href="#DejaVuSans-33" x="1484.472656"/>
     <use xlink:href="#DejaVuSans-2e" x="1548.095703"/>
     <use xlink:href="#DejaVuSans-30" x="1579.882812"/>
     <use xlink:href="#DejaVuSans-30" x="1643.505859"/>
     <use xlink:href="#DejaVuSans-30" x="1707.128906"/>
     <use xlink:href="#DejaVuSans-30" x="1770.751953"/>
    </g>
    <!--  -->
    <g transform="translate(429.665 225.7857) scale(0.288 -0.288)"/>
   </g>
   <g id="legend_1">
    <g id="patch_57">
     <path d="M 111.665 356.6682 
L 419.03375 356.6682 
Q 423.83375 356.6682 423.83375 351.8682 
L 423.83375 248.5857 
Q 423.83375 243.7857 419.03375 243.7857 
L 111.665 243.7857 
Q 106.865 243.7857 106.865 248.5857 
L 106.865 351.8682 
Q 106.865 356.6682 111.665 356.6682 
z
" style="fill: #ffffff; opacity: 0.8; stroke: #cccccc; stroke-linejoin: miter"/>
    </g>
    <g id="line2d_33">
     <path d="M 116.465 263.22195 
L 140.465 263.22195 
L 164.465 263.22195 
" style="fill: none; stroke-dasharray: 7.4,3.2; stroke-dashoffset: 0; stroke: #ff0000; stroke-width: 2"/>
    </g>
    <g id="text_18">
     <!-- Mean: 0.6521 -->
     <g transform="translate(183.665 271.62195) scale(0.24 -0.24)">
      <defs>
       <path id="DejaVuSans-4d" d="M 628 4666 
L 1569 4666 
L 2759 1491 
L 3956 4666 
L 4897 4666 
L 4897 0 
L 4281 0 
L 4281 4097 
L 3078 897 
L 2444 897 
L 1241 4097 
L 1241 0 
L 628 0 
L 628 4666 
z
" transform="scale(0.015625)"/>
      </defs>
      <use xlink:href="#DejaVuSans-4d"/>
      <use xlink:href="#DejaVuSans-65" x="86.279297"/>
      <use xlink:href="#DejaVuSans-61" x="147.802734"/>
      <use xlink:href="#DejaVuSans-6e" x="209.082031"/>
      <use xlink:href="#DejaVuSans-3a" x="272.460938"/>
      <use xlink:href="#DejaVuSans-20" x="306.152344"/>
      <use xlink:href="#DejaVuSans-30" x="337.939453"/>
      <use xlink:href="#DejaVuSans-2e" x="401.5625"/>
      <use xlink:href="#DejaVuSans-36" x="433.349609"/>
      <use xlink:href="#DejaVuSans-35" x="496.972656"/>
      <use xlink:href="#DejaVuSans-32" x="560.595703"/>
      <use xlink:href="#DejaVuSans-31" x="624.21875"/>
     </g>
    </g>
    <g id="line2d_34">
     <path d="M 116.465 298.44945 
L 140.465 298.44945 
L 164.465 298.44945 
" style="fill: none; stroke-dasharray: 2,3.3; stroke-dashoffset: 0; stroke: #ffa500; stroke-width: 2"/>
    </g>
    <g id="text_19">
     <!-- HPD Lower: 0.7892 -->
     <g transform="translate(183.665 306.84945) scale(0.24 -0.24)">
      <defs>
       <path id="DejaVuSans-48" d="M 628 4666 
L 1259 4666 
L 1259 2753 
L 3553 2753 
L 3553 4666 
L 4184 4666 
L 4184 0 
L 3553 0 
L 3553 2222 
L 1259 2222 
L 1259 0 
L 628 0 
L 628 4666 
z
" transform="scale(0.015625)"/>
       <path id="DejaVuSans-4c" d="M 628 4666 
L 1259 4666 
L 1259 531 
L 3531 531 
L 3531 0 
L 628 0 
L 628 4666 
z
" transform="scale(0.015625)"/>
       <path id="DejaVuSans-39" d="M 703 97 
L 703 672 
Q 941 559 1184 500 
Q 1428 441 1663 441 
Q 2288 441 2617 861 
Q 2947 1281 2994 2138 
Q 2813 1869 2534 1725 
Q 2256 1581 1919 1581 
Q 1219 1581 811 2004 
Q 403 2428 403 3163 
Q 403 3881 828 4315 
Q 1253 4750 1959 4750 
Q 2769 4750 3195 4129 
Q 3622 3509 3622 2328 
Q 3622 1225 3098 567 
Q 2575 -91 1691 -91 
Q 1453 -91 1209 -44 
Q 966 3 703 97 
z
M 1959 2075 
Q 2384 2075 2632 2365 
Q 2881 2656 2881 3163 
Q 2881 3666 2632 3958 
Q 2384 4250 1959 4250 
Q 1534 4250 1286 3958 
Q 1038 3666 1038 3163 
Q 1038 2656 1286 2365 
Q 1534 2075 1959 2075 
z
" transform="scale(0.015625)"/>
      </defs>
      <use xlink:href="#DejaVuSans-48"/>
      <use xlink:href="#DejaVuSans-50" x="75.195312"/>
      <use xlink:href="#DejaVuSans-44" x="135.498047"/>
      <use xlink:href="#DejaVuSans-20" x="212.5"/>
      <use xlink:href="#DejaVuSans-4c" x="244.287109"/>
      <use xlink:href="#DejaVuSans-6f" x="298.25"/>
      <use xlink:href="#DejaVuSans-77" x="359.431641"/>
      <use xlink:href="#DejaVuSans-65" x="441.21875"/>
      <use xlink:href="#DejaVuSans-72" x="502.742188"/>
      <use xlink:href="#DejaVuSans-3a" x="542.105469"/>
      <use xlink:href="#DejaVuSans-20" x="575.796875"/>
      <use xlink:href="#DejaVuSans-30" x="607.583984"/>
      <use xlink:href="#DejaVuSans-2e" x="671.207031"/>
      <use xlink:href="#DejaVuSans-37" x="702.994141"/>
      <use xlink:href="#DejaVuSans-38" x="766.617188"/>
      <use xlink:href="#DejaVuSans-39" x="830.240234"/>
      <use xlink:href="#DejaVuSans-32" x="893.863281"/>
     </g>
    </g>
    <g id="line2d_35">
     <path d="M 116.465 333.67695 
L 140.465 333.67695 
L 164.465 333.67695 
" style="fill: none; stroke-dasharray: 2,3.3; stroke-dashoffset: 0; stroke: #ffa500; stroke-width: 2"/>
    </g>
    <g id="text_20">
     <!-- HPD Upper: 0.8159 -->
     <g transform="translate(183.665 342.07695) scale(0.24 -0.24)">
      <defs>
       <path id="DejaVuSans-55" d="M 556 4666 
L 1191 4666 
L 1191 1831 
Q 1191 1081 1462 751 
Q 1734 422 2344 422 
Q 2950 422 3222 751 
Q 3494 1081 3494 1831 
L 3494 4666 
L 4128 4666 
L 4128 1753 
Q 4128 841 3676 375 
Q 3225 -91 2344 -91 
Q 1459 -91 1007 375 
Q 556 841 556 1753 
L 556 4666 
z
" transform="scale(0.015625)"/>
      </defs>
      <use xlink:href="#DejaVuSans-48"/>
      <use xlink:href="#DejaVuSans-50" x="75.195312"/>
      <use xlink:href="#DejaVuSans-44" x="135.498047"/>
      <use xlink:href="#DejaVuSans-20" x="212.5"/>
      <use xlink:href="#DejaVuSans-55" x="244.287109"/>
      <use xlink:href="#DejaVuSans-70" x="317.480469"/>
      <use xlink:href="#DejaVuSans-70" x="380.957031"/>
      <use xlink:href="#DejaVuSans-65" x="444.433594"/>
      <use xlink:href="#DejaVuSans-72" x="505.957031"/>
      <use xlink:href="#DejaVuSans-3a" x="545.320312"/>
      <use xlink:href="#DejaVuSans-20" x="579.011719"/>
      <use xlink:href="#DejaVuSans-30" x="610.798828"/>
      <use xlink:href="#DejaVuSans-2e" x="674.421875"/>
      <use xlink:href="#DejaVuSans-38" x="706.208984"/>
      <use xlink:href="#DejaVuSans-31" x="769.832031"/>
      <use xlink:href="#DejaVuSans-35" x="833.455078"/>
      <use xlink:href="#DejaVuSans-39" x="897.078125"/>
     </g>
    </g>
   </g>
  </g>
 </g>
 <defs>
  <clipPath id="pb3c08070f2">
   <rect x="94.865" y="231.7857" width="669.6" height="443.52"/>
  </clipPath>
 </defs>
</svg>
