<?xml version="1.0" encoding="utf-8" standalone="no"?>
<!DOCTYPE svg PUBLIC "-//W3C//DTD SVG 1.1//EN"
  "http://www.w3.org/Graphics/SVG/1.1/DTD/svg11.dtd">
<svg xmlns:xlink="http://www.w3.org/1999/xlink" width="756.395pt" height="739.9607pt" viewBox="0 0 756.395 739.9607" xmlns="http://www.w3.org/2000/svg" version="1.1">
 <metadata>
  <rdf:RDF xmlns:dc="http://purl.org/dc/elements/1.1/" xmlns:cc="http://creativecommons.org/ns#" xmlns:rdf="http://www.w3.org/1999/02/22-rdf-syntax-ns#">
   <cc:Work>
    <dc:type rdf:resource="http://purl.org/dc/dcmitype/StillImage"/>
    <dc:date>2025-11-26T20:50:24.540452</dc:date>
    <dc:format>image/svg+xml</dc:format>
    <dc:creator>
     <cc:Agent>
      <dc:title>Matplotlib v3.9.2, https://matplotlib.org/</dc:title>
     </cc:Agent>
    </dc:creator>
   </cc:Work>
  </rdf:RDF>
 </metadata>
 <defs>
  <style type="text/css">*{stroke-linejoin: round; stroke-linecap: butt}</style>
 </defs>
 <g id="figure_1">
  <g id="patch_1">
   <path d="M -0 739.9607 
L 756.395 739.9607 
L 756.395 0 
L -0 0 
z
" style="fill: #ffffff"/>
  </g>
  <g id="axes_1">
   <g id="patch_2">
    <path d="M 79.595 675.3057 
L 749.195 675.3057 
L 749.195 231.7857 
L 79.595 231.7857 
z
" style="fill: #ffffff"/>
   </g>
   <g id="patch_3">
    <path d="M 110.031364 675.3057 
L 122.205909 675.3057 
L 122.205909 252.9057 
L 110.031364 252.9057 
z
" clip-path="url(#p44ed2e6171)" style="fill: #90ee90; opacity: 0.7; stroke: #000000; stroke-linejoin: miter"/>
   </g>
   <g id="patch_4">
    <path d="M 122.205909 675.3057 
L 134.380455 675.3057 
L 134.380455 312.231212 
L 122.205909 312.231212 
z
" clip-path="url(#p44ed2e6171)" style="fill: #90ee90; opacity: 0.7; stroke: #000000; stroke-linejoin: miter"/>
   </g>
   <g id="patch_5">
    <path d="M 134.380455 675.3057 
L 146.555 675.3057 
L 146.555 355.116828 
L 134.380455 355.116828 
z
" clip-path="url(#p44ed2e6171)" style="fill: #90ee90; opacity: 0.7; stroke: #000000; stroke-linejoin: miter"/>
   </g>
   <g id="patch_6">
    <path d="M 146.555 675.3057 
L 158.729545 675.3057 
L 158.729545 386.619468 
L 146.555 386.619468 
z
" clip-path="url(#p44ed2e6171)" style="fill: #90ee90; opacity: 0.7; stroke: #000000; stroke-linejoin: miter"/>
   </g>
   <g id="patch_7">
    <path d="M 158.729545 675.3057 
L 170.904091 675.3057 
L 170.904091 408.089279 
L 158.729545 408.089279 
z
" clip-path="url(#p44ed2e6171)" style="fill: #90ee90; opacity: 0.7; stroke: #000000; stroke-linejoin: miter"/>
   </g>
   <g id="patch_8">
    <path d="M 170.904091 675.3057 
L 183.078636 675.3057 
L 183.078636 428.471607 
L 170.904091 428.471607 
z
" clip-path="url(#p44ed2e6171)" style="fill: #90ee90; opacity: 0.7; stroke: #000000; stroke-linejoin: miter"/>
   </g>
   <g id="patch_9">
    <path d="M 183.078636 675.3057 
L 195.253182 675.3057 
L 195.253182 444.93605 
L 183.078636 444.93605 
z
" clip-path="url(#p44ed2e6171)" style="fill: #90ee90; opacity: 0.7; stroke: #000000; stroke-linejoin: miter"/>
   </g>
   <g id="patch_10">
    <path d="M 195.253182 675.3057 
L 207.427727 675.3057 
L 207.427727 457.836103 
L 195.253182 457.836103 
z
" clip-path="url(#p44ed2e6171)" style="fill: #90ee90; opacity: 0.7; stroke: #000000; stroke-linejoin: miter"/>
   </g>
   <g id="patch_11">
    <path d="M 207.427727 675.3057 
L 219.602273 675.3057 
L 219.602273 469.287814 
L 207.427727 469.287814 
z
" clip-path="url(#p44ed2e6171)" style="fill: #90ee90; opacity: 0.7; stroke: #000000; stroke-linejoin: miter"/>
   </g>
   <g id="patch_12">
    <path d="M 219.602273 675.3057 
L 231.776818 675.3057 
L 231.776818 479.855792 
L 219.602273 479.855792 
z
" clip-path="url(#p44ed2e6171)" style="fill: #90ee90; opacity: 0.7; stroke: #000000; stroke-linejoin: miter"/>
   </g>
   <g id="patch_13">
    <path d="M 231.776818 675.3057 
L 243.951364 675.3057 
L 243.951364 486.638446 
L 231.776818 486.638446 
z
" clip-path="url(#p44ed2e6171)" style="fill: #90ee90; opacity: 0.7; stroke: #000000; stroke-linejoin: miter"/>
   </g>
   <g id="patch_14">
    <path d="M 243.951364 675.3057 
L 256.125909 675.3057 
L 256.125909 493.919427 
L 243.951364 493.919427 
z
" clip-path="url(#p44ed2e6171)" style="fill: #90ee90; opacity: 0.7; stroke: #000000; stroke-linejoin: miter"/>
   </g>
   <g id="patch_15">
    <path d="M 256.125909 675.3057 
L 268.300455 675.3057 
L 268.300455 502.658568 
L 256.125909 502.658568 
z
" clip-path="url(#p44ed2e6171)" style="fill: #90ee90; opacity: 0.7; stroke: #000000; stroke-linejoin: miter"/>
   </g>
   <g id="patch_16">
    <path d="M 268.300455 675.3057 
L 280.475 675.3057 
L 280.475 507.14106 
L 268.300455 507.14106 
z
" clip-path="url(#p44ed2e6171)" style="fill: #90ee90; opacity: 0.7; stroke: #000000; stroke-linejoin: miter"/>
   </g>
   <g id="patch_17">
    <path d="M 280.475 675.3057 
L 292.649545 675.3057 
L 292.649545 515.045564 
L 280.475 515.045564 
z
" clip-path="url(#p44ed2e6171)" style="fill: #90ee90; opacity: 0.7; stroke: #000000; stroke-linejoin: miter"/>
   </g>
   <g id="patch_18">
    <path d="M 292.649545 675.3057 
L 304.824091 675.3057 
L 304.824091 519.498598 
L 292.649545 519.498598 
z
" clip-path="url(#p44ed2e6171)" style="fill: #90ee90; opacity: 0.7; stroke: #000000; stroke-linejoin: miter"/>
   </g>
   <g id="patch_19">
    <path d="M 304.824091 675.3057 
L 316.998636 675.3057 
L 316.998636 523.561317 
L 304.824091 523.561317 
z
" clip-path="url(#p44ed2e6171)" style="fill: #90ee90; opacity: 0.7; stroke: #000000; stroke-linejoin: miter"/>
   </g>
   <g id="patch_20">
    <path d="M 316.998636 675.3057 
L 329.173182 675.3057 
L 329.173182 527.464473 
L 316.998636 527.464473 
z
" clip-path="url(#p44ed2e6171)" style="fill: #90ee90; opacity: 0.7; stroke: #000000; stroke-linejoin: miter"/>
   </g>
   <g id="patch_21">
    <path d="M 329.173182 675.3057 
L 341.347727 675.3057 
L 341.347727 531.618019 
L 329.173182 531.618019 
z
" clip-path="url(#p44ed2e6171)" style="fill: #90ee90; opacity: 0.7; stroke: #000000; stroke-linejoin: miter"/>
   </g>
   <g id="patch_22">
    <path d="M 341.347727 675.3057 
L 353.522273 675.3057 
L 353.522273 536.697031 
L 341.347727 536.697031 
z
" clip-path="url(#p44ed2e6171)" style="fill: #90ee90; opacity: 0.7; stroke: #000000; stroke-linejoin: miter"/>
   </g>
   <g id="patch_23">
    <path d="M 353.522273 675.3057 
L 365.696818 675.3057 
L 365.696818 538.061909 
L 353.522273 538.061909 
z
" clip-path="url(#p44ed2e6171)" style="fill: #90ee90; opacity: 0.7; stroke: #000000; stroke-linejoin: miter"/>
   </g>
   <g id="patch_24">
    <path d="M 365.696818 675.3057 
L 377.871364 675.3057 
L 377.871364 542.630319 
L 365.696818 542.630319 
z
" clip-path="url(#p44ed2e6171)" style="fill: #90ee90; opacity: 0.7; stroke: #000000; stroke-linejoin: miter"/>
   </g>
   <g id="patch_25">
    <path d="M 377.871364 675.3057 
L 390.045909 675.3057 
L 390.045909 544.947664 
L 377.871364 544.947664 
z
" clip-path="url(#p44ed2e6171)" style="fill: #90ee90; opacity: 0.7; stroke: #000000; stroke-linejoin: miter"/>
   </g>
   <g id="patch_26">
    <path d="M 390.045909 675.3057 
L 402.220455 675.3057 
L 402.220455 550.024222 
L 390.045909 550.024222 
z
" clip-path="url(#p44ed2e6171)" style="fill: #90ee90; opacity: 0.7; stroke: #000000; stroke-linejoin: miter"/>
   </g>
   <g id="patch_27">
    <path d="M 402.220455 675.3057 
L 414.395 675.3057 
L 414.395 551.069973 
L 402.220455 551.069973 
z
" clip-path="url(#p44ed2e6171)" style="fill: #90ee90; opacity: 0.7; stroke: #000000; stroke-linejoin: miter"/>
   </g>
   <g id="patch_28">
    <path d="M 414.395 675.3057 
L 426.569545 675.3057 
L 426.569545 556.762688 
L 414.395 556.762688 
z
" clip-path="url(#p44ed2e6171)" style="fill: #90ee90; opacity: 0.7; stroke: #000000; stroke-linejoin: miter"/>
   </g>
   <g id="patch_29">
    <path d="M 426.569545 675.3057 
L 438.744091 675.3057 
L 438.744091 554.840568 
L 426.569545 554.840568 
z
" clip-path="url(#p44ed2e6171)" style="fill: #90ee90; opacity: 0.7; stroke: #000000; stroke-linejoin: miter"/>
   </g>
   <g id="patch_30">
    <path d="M 438.744091 675.3057 
L 450.918636 675.3057 
L 450.918636 558.947474 
L 438.744091 558.947474 
z
" clip-path="url(#p44ed2e6171)" style="fill: #90ee90; opacity: 0.7; stroke: #000000; stroke-linejoin: miter"/>
   </g>
   <g id="patch_31">
    <path d="M 450.918636 675.3057 
L 463.093182 675.3057 
L 463.093182 560.756672 
L 450.918636 560.756672 
z
" clip-path="url(#p44ed2e6171)" style="fill: #90ee90; opacity: 0.7; stroke: #000000; stroke-linejoin: miter"/>
   </g>
   <g id="patch_32">
    <path d="M 463.093182 675.3057 
L 475.267727 675.3057 
L 475.267727 564.178684 
L 463.093182 564.178684 
z
" clip-path="url(#p44ed2e6171)" style="fill: #90ee90; opacity: 0.7; stroke: #000000; stroke-linejoin: miter"/>
   </g>
   <g id="patch_33">
    <path d="M 475.267727 675.3057 
L 487.442273 675.3057 
L 487.442273 565.035415 
L 475.267727 565.035415 
z
" clip-path="url(#p44ed2e6171)" style="fill: #90ee90; opacity: 0.7; stroke: #000000; stroke-linejoin: miter"/>
   </g>
   <g id="patch_34">
    <path d="M 487.442273 675.3057 
L 499.616818 675.3057 
L 499.616818 567.67925 
L 487.442273 567.67925 
z
" clip-path="url(#p44ed2e6171)" style="fill: #90ee90; opacity: 0.7; stroke: #000000; stroke-linejoin: miter"/>
   </g>
   <g id="patch_35">
    <path d="M 499.616818 675.3057 
L 511.791364 675.3057 
L 511.791364 570.057966 
L 499.616818 570.057966 
z
" clip-path="url(#p44ed2e6171)" style="fill: #90ee90; opacity: 0.7; stroke: #000000; stroke-linejoin: miter"/>
   </g>
   <g id="patch_36">
    <path d="M 511.791364 675.3057 
L 523.965909 675.3057 
L 523.965909 572.677253 
L 511.791364 572.677253 
z
" clip-path="url(#p44ed2e6171)" style="fill: #90ee90; opacity: 0.7; stroke: #000000; stroke-linejoin: miter"/>
   </g>
   <g id="patch_37">
    <path d="M 523.965909 675.3057 
L 536.140455 675.3057 
L 536.140455 574.405443 
L 523.965909 574.405443 
z
" clip-path="url(#p44ed2e6171)" style="fill: #90ee90; opacity: 0.7; stroke: #000000; stroke-linejoin: miter"/>
   </g>
   <g id="patch_38">
    <path d="M 536.140455 675.3057 
L 548.315 675.3057 
L 548.315 574.616557 
L 536.140455 574.616557 
z
" clip-path="url(#p44ed2e6171)" style="fill: #90ee90; opacity: 0.7; stroke: #000000; stroke-linejoin: miter"/>
   </g>
   <g id="patch_39">
    <path d="M 548.315 675.3057 
L 560.489545 675.3057 
L 560.489545 578.396972 
L 548.315 578.396972 
z
" clip-path="url(#p44ed2e6171)" style="fill: #90ee90; opacity: 0.7; stroke: #000000; stroke-linejoin: miter"/>
   </g>
   <g id="patch_40">
    <path d="M 560.489545 675.3057 
L 572.664091 675.3057 
L 572.664091 579.297889 
L 560.489545 579.297889 
z
" clip-path="url(#p44ed2e6171)" style="fill: #90ee90; opacity: 0.7; stroke: #000000; stroke-linejoin: miter"/>
   </g>
   <g id="patch_41">
    <path d="M 572.664091 675.3057 
L 584.838636 675.3057 
L 584.838636 580.721682 
L 572.664091 580.721682 
z
" clip-path="url(#p44ed2e6171)" style="fill: #90ee90; opacity: 0.7; stroke: #000000; stroke-linejoin: miter"/>
   </g>
   <g id="patch_42">
    <path d="M 584.838636 675.3057 
L 597.013182 675.3057 
L 597.013182 583.549629 
L 584.838636 583.549629 
z
" clip-path="url(#p44ed2e6171)" style="fill: #90ee90; opacity: 0.7; stroke: #000000; stroke-linejoin: miter"/>
   </g>
   <g id="patch_43">
    <path d="M 597.013182 675.3057 
L 609.187727 675.3057 
L 609.187727 584.482458 
L 597.013182 584.482458 
z
" clip-path="url(#p44ed2e6171)" style="fill: #90ee90; opacity: 0.7; stroke: #000000; stroke-linejoin: miter"/>
   </g>
   <g id="patch_44">
    <path d="M 609.187727 675.3057 
L 621.362273 675.3057 
L 621.362273 586.664789 
L 609.187727 586.664789 
z
" clip-path="url(#p44ed2e6171)" style="fill: #90ee90; opacity: 0.7; stroke: #000000; stroke-linejoin: miter"/>
   </g>
   <g id="patch_45">
    <path d="M 621.362273 675.3057 
L 633.536818 675.3057 
L 633.536818 588.618821 
L 621.362273 588.618821 
z
" clip-path="url(#p44ed2e6171)" style="fill: #90ee90; opacity: 0.7; stroke: #000000; stroke-linejoin: miter"/>
   </g>
   <g id="patch_46">
    <path d="M 633.536818 675.3057 
L 645.711364 675.3057 
L 645.711364 590.241454 
L 633.536818 590.241454 
z
" clip-path="url(#p44ed2e6171)" style="fill: #90ee90; opacity: 0.7; stroke: #000000; stroke-linejoin: miter"/>
   </g>
   <g id="patch_47">
    <path d="M 645.711364 675.3057 
L 657.885909 675.3057 
L 657.885909 592.777278 
L 645.711364 592.777278 
z
" clip-path="url(#p44ed2e6171)" style="fill: #90ee90; opacity: 0.7; stroke: #000000; stroke-linejoin: miter"/>
   </g>
   <g id="patch_48">
    <path d="M 657.885909 675.3057 
L 670.060455 675.3057 
L 670.060455 596.302392 
L 657.885909 596.302392 
z
" clip-path="url(#p44ed2e6171)" style="fill: #90ee90; opacity: 0.7; stroke: #000000; stroke-linejoin: miter"/>
   </g>
   <g id="patch_49">
    <path d="M 670.060455 675.3057 
L 682.235 675.3057 
L 682.235 600.451029 
L 670.060455 600.451029 
z
" clip-path="url(#p44ed2e6171)" style="fill: #90ee90; opacity: 0.7; stroke: #000000; stroke-linejoin: miter"/>
   </g>
   <g id="patch_50">
    <path d="M 682.235 675.3057 
L 694.409545 675.3057 
L 694.409545 605.763249 
L 682.235 605.763249 
z
" clip-path="url(#p44ed2e6171)" style="fill: #90ee90; opacity: 0.7; stroke: #000000; stroke-linejoin: miter"/>
   </g>
   <g id="patch_51">
    <path d="M 694.409545 675.3057 
L 706.584091 675.3057 
L 706.584091 613.866593 
L 694.409545 613.866593 
z
" clip-path="url(#p44ed2e6171)" style="fill: #90ee90; opacity: 0.7; stroke: #000000; stroke-linejoin: miter"/>
   </g>
   <g id="patch_52">
    <path d="M 706.584091 675.3057 
L 718.758636 675.3057 
L 718.758636 633.421648 
L 706.584091 633.421648 
z
" clip-path="url(#p44ed2e6171)" style="fill: #90ee90; opacity: 0.7; stroke: #000000; stroke-linejoin: miter"/>
   </g>
   <g id="matplotlib.axis_1">
    <g id="xtick_1">
     <g id="line2d_1">
      <path d="M 110.030756 675.3057 
L 110.030756 231.7857 
" clip-path="url(#p44ed2e6171)" style="fill: none; stroke: #b0b0b0; stroke-opacity: 0.3; stroke-width: 0.8; stroke-linecap: square"/>
     </g>
     <g id="line2d_2">
      <defs>
       <path id="mc4cc2ec32c" d="M 0 0 
L 0 3.5 
" style="stroke: #000000; stroke-width: 0.8"/>
      </defs>
      <g>
       <use xlink:href="#mc4cc2ec32c" x="110.030756" y="675.3057" style="stroke: #000000; stroke-width: 0.8"/>
      </g>
     </g>
     <g id="text_1">
      <!-- 0.0 -->
      <g transform="translate(90.947006 700.54195) scale(0.24 -0.24)">
       <defs>
        <path id="DejaVuSans-30" d="M 2034 4250 
Q 1547 4250 1301 3770 
Q 1056 3291 1056 2328 
Q 1056 1369 1301 889 
Q 1547 409 2034 409 
Q 2525 409 2770 889 
Q 3016 1369 3016 2328 
Q 3016 3291 2770 3770 
Q 2525 4250 2034 4250 
z
M 2034 4750 
Q 2819 4750 3233 4129 
Q 3647 3509 3647 2328 
Q 3647 1150 3233 529 
Q 2819 -91 2034 -91 
Q 1250 -91 836 529 
Q 422 1150 422 2328 
Q 422 3509 836 4129 
Q 1250 4750 2034 4750 
z
" transform="scale(0.015625)"/>
        <path id="DejaVuSans-2e" d="M 684 794 
L 1344 794 
L 1344 0 
L 684 0 
L 684 794 
z
" transform="scale(0.015625)"/>
       </defs>
       <use xlink:href="#DejaVuSans-30"/>
       <use xlink:href="#DejaVuSans-2e" x="63.623047"/>
       <use xlink:href="#DejaVuSans-30" x="95.410156"/>
      </g>
     </g>
    </g>
    <g id="xtick_2">
     <g id="line2d_3">
      <path d="M 231.777165 675.3057 
L 231.777165 231.7857 
" clip-path="url(#p44ed2e6171)" style="fill: none; stroke: #b0b0b0; stroke-opacity: 0.3; stroke-width: 0.8; stroke-linecap: square"/>
     </g>
     <g id="line2d_4">
      <g>
       <use xlink:href="#mc4cc2ec32c" x="231.777165" y="675.3057" style="stroke: #000000; stroke-width: 0.8"/>
      </g>
     </g>
     <g id="text_2">
      <!-- 0.2 -->
      <g transform="translate(212.693415 700.54195) scale(0.24 -0.24)">
       <defs>
        <path id="DejaVuSans-32" d="M 1228 531 
L 3431 531 
L 3431 0 
L 469 0 
L 469 531 
Q 828 903 1448 1529 
Q 2069 2156 2228 2338 
Q 2531 2678 2651 2914 
Q 2772 3150 2772 3378 
Q 2772 3750 2511 3984 
Q 2250 4219 1831 4219 
Q 1534 4219 1204 4116 
Q 875 4013 500 3803 
L 500 4441 
Q 881 4594 1212 4672 
Q 1544 4750 1819 4750 
Q 2544 4750 2975 4387 
Q 3406 4025 3406 3419 
Q 3406 3131 3298 2873 
Q 3191 2616 2906 2266 
Q 2828 2175 2409 1742 
Q 1991 1309 1228 531 
z
" transform="scale(0.015625)"/>
       </defs>
       <use xlink:href="#DejaVuSans-30"/>
       <use xlink:href="#DejaVuSans-2e" x="63.623047"/>
       <use xlink:href="#DejaVuSans-32" x="95.410156"/>
      </g>
     </g>
    </g>
    <g id="xtick_3">
     <g id="line2d_5">
      <path d="M 353.523574 675.3057 
L 353.523574 231.7857 
" clip-path="url(#p44ed2e6171)" style="fill: none; stroke: #b0b0b0; stroke-opacity: 0.3; stroke-width: 0.8; stroke-linecap: square"/>
     </g>
     <g id="line2d_6">
      <g>
       <use xlink:href="#mc4cc2ec32c" x="353.523574" y="675.3057" style="stroke: #000000; stroke-width: 0.8"/>
      </g>
     </g>
     <g id="text_3">
      <!-- 0.4 -->
      <g transform="translate(334.439824 700.54195) scale(0.24 -0.24)">
       <defs>
        <path id="DejaVuSans-34" d="M 2419 4116 
L 825 1625 
L 2419 1625 
L 2419 4116 
z
M 2253 4666 
L 3047 4666 
L 3047 1625 
L 3713 1625 
L 3713 1100 
L 3047 1100 
L 3047 0 
L 2419 0 
L 2419 1100 
L 313 1100 
L 313 1709 
L 2253 4666 
z
" transform="scale(0.015625)"/>
       </defs>
       <use xlink:href="#DejaVuSans-30"/>
       <use xlink:href="#DejaVuSans-2e" x="63.623047"/>
       <use xlink:href="#DejaVuSans-34" x="95.410156"/>
      </g>
     </g>
    </g>
    <g id="xtick_4">
     <g id="line2d_7">
      <path d="M 475.269983 675.3057 
L 475.269983 231.7857 
" clip-path="url(#p44ed2e6171)" style="fill: none; stroke: #b0b0b0; stroke-opacity: 0.3; stroke-width: 0.8; stroke-linecap: square"/>
     </g>
     <g id="line2d_8">
      <g>
       <use xlink:href="#mc4cc2ec32c" x="475.269983" y="675.3057" style="stroke: #000000; stroke-width: 0.8"/>
      </g>
     </g>
     <g id="text_4">
      <!-- 0.6 -->
      <g transform="translate(456.186233 700.54195) scale(0.24 -0.24)">
       <defs>
        <path id="DejaVuSans-36" d="M 2113 2584 
Q 1688 2584 1439 2293 
Q 1191 2003 1191 1497 
Q 1191 994 1439 701 
Q 1688 409 2113 409 
Q 2538 409 2786 701 
Q 3034 994 3034 1497 
Q 3034 2003 2786 2293 
Q 2538 2584 2113 2584 
z
M 3366 4563 
L 3366 3988 
Q 3128 4100 2886 4159 
Q 2644 4219 2406 4219 
Q 1781 4219 1451 3797 
Q 1122 3375 1075 2522 
Q 1259 2794 1537 2939 
Q 1816 3084 2150 3084 
Q 2853 3084 3261 2657 
Q 3669 2231 3669 1497 
Q 3669 778 3244 343 
Q 2819 -91 2113 -91 
Q 1303 -91 875 529 
Q 447 1150 447 2328 
Q 447 3434 972 4092 
Q 1497 4750 2381 4750 
Q 2619 4750 2861 4703 
Q 3103 4656 3366 4563 
z
" transform="scale(0.015625)"/>
       </defs>
       <use xlink:href="#DejaVuSans-30"/>
       <use xlink:href="#DejaVuSans-2e" x="63.623047"/>
       <use xlink:href="#DejaVuSans-36" x="95.410156"/>
      </g>
     </g>
    </g>
    <g id="xtick_5">
     <g id="line2d_9">
      <path d="M 597.016392 675.3057 
L 597.016392 231.7857 
" clip-path="url(#p44ed2e6171)" style="fill: none; stroke: #b0b0b0; stroke-opacity: 0.3; stroke-width: 0.8; stroke-linecap: square"/>
     </g>
     <g id="line2d_10">
      <g>
       <use xlink:href="#mc4cc2ec32c" x="597.016392" y="675.3057" style="stroke: #000000; stroke-width: 0.8"/>
      </g>
     </g>
     <g id="text_5">
      <!-- 0.8 -->
      <g transform="translate(577.932642 700.54195) scale(0.24 -0.24)">
       <defs>
        <path id="DejaVuSans-38" d="M 2034 2216 
Q 1584 2216 1326 1975 
Q 1069 1734 1069 1313 
Q 1069 891 1326 650 
Q 1584 409 2034 409 
Q 2484 409 2743 651 
Q 3003 894 3003 1313 
Q 3003 1734 2745 1975 
Q 2488 2216 2034 2216 
z
M 1403 2484 
Q 997 2584 770 2862 
Q 544 3141 544 3541 
Q 544 4100 942 4425 
Q 1341 4750 2034 4750 
Q 2731 4750 3128 4425 
Q 3525 4100 3525 3541 
Q 3525 3141 3298 2862 
Q 3072 2584 2669 2484 
Q 3125 2378 3379 2068 
Q 3634 1759 3634 1313 
Q 3634 634 3220 271 
Q 2806 -91 2034 -91 
Q 1263 -91 848 271 
Q 434 634 434 1313 
Q 434 1759 690 2068 
Q 947 2378 1403 2484 
z
M 1172 3481 
Q 1172 3119 1398 2916 
Q 1625 2713 2034 2713 
Q 2441 2713 2670 2916 
Q 2900 3119 2900 3481 
Q 2900 3844 2670 4047 
Q 2441 4250 2034 4250 
Q 1625 4250 1398 4047 
Q 1172 3844 1172 3481 
z
" transform="scale(0.015625)"/>
       </defs>
       <use xlink:href="#DejaVuSans-30"/>
       <use xlink:href="#DejaVuSans-2e" x="63.623047"/>
       <use xlink:href="#DejaVuSans-38" x="95.410156"/>
      </g>
     </g>
    </g>
    <g id="xtick_6">
     <g id="line2d_11">
      <path d="M 718.762801 675.3057 
L 718.762801 231.7857 
" clip-path="url(#p44ed2e6171)" style="fill: none; stroke: #b0b0b0; stroke-opacity: 0.3; stroke-width: 0.8; stroke-linecap: square"/>
     </g>
     <g id="line2d_12">
      <g>
       <use xlink:href="#mc4cc2ec32c" x="718.762801" y="675.3057" style="stroke: #000000; stroke-width: 0.8"/>
      </g>
     </g>
     <g id="text_6">
      <!-- 1.0 -->
      <g transform="translate(699.679051 700.54195) scale(0.24 -0.24)">
       <defs>
        <path id="DejaVuSans-31" d="M 794 531 
L 1825 531 
L 1825 4091 
L 703 3866 
L 703 4441 
L 1819 4666 
L 2450 4666 
L 2450 531 
L 3481 531 
L 3481 0 
L 794 0 
L 794 531 
z
" transform="scale(0.015625)"/>
       </defs>
       <use xlink:href="#DejaVuSans-31"/>
       <use xlink:href="#DejaVuSans-2e" x="63.623047"/>
       <use xlink:href="#DejaVuSans-30" x="95.410156"/>
      </g>
     </g>
    </g>
    <g id="text_7">
     <!-- Probability of Pandemic -->
     <g transform="translate(273.494375 727.76945) scale(0.24 -0.24)">
      <defs>
       <path id="DejaVuSans-50" d="M 1259 4147 
L 1259 2394 
L 2053 2394 
Q 2494 2394 2734 2622 
Q 2975 2850 2975 3272 
Q 2975 3691 2734 3919 
Q 2494 4147 2053 4147 
L 1259 4147 
z
M 628 4666 
L 2053 4666 
Q 2838 4666 3239 4311 
Q 3641 3956 3641 3272 
Q 3641 2581 3239 2228 
Q 2838 1875 2053 1875 
L 1259 1875 
L 1259 0 
L 628 0 
L 628 4666 
z
" transform="scale(0.015625)"/>
       <path id="DejaVuSans-72" d="M 2631 2963 
Q 2534 3019 2420 3045 
Q 2306 3072 2169 3072 
Q 1681 3072 1420 2755 
Q 1159 2438 1159 1844 
L 1159 0 
L 581 0 
L 581 3500 
L 1159 3500 
L 1159 2956 
Q 1341 3275 1631 3429 
Q 1922 3584 2338 3584 
Q 2397 3584 2469 3576 
Q 2541 3569 2628 3553 
L 2631 2963 
z
" transform="scale(0.015625)"/>
       <path id="DejaVuSans-6f" d="M 1959 3097 
Q 1497 3097 1228 2736 
Q 959 2375 959 1747 
Q 959 1119 1226 758 
Q 1494 397 1959 397 
Q 2419 397 2687 759 
Q 2956 1122 2956 1747 
Q 2956 2369 2687 2733 
Q 2419 3097 1959 3097 
z
M 1959 3584 
Q 2709 3584 3137 3096 
Q 3566 2609 3566 1747 
Q 3566 888 3137 398 
Q 2709 -91 1959 -91 
Q 1206 -91 779 398 
Q 353 888 353 1747 
Q 353 2609 779 3096 
Q 1206 3584 1959 3584 
z
" transform="scale(0.015625)"/>
       <path id="DejaVuSans-62" d="M 3116 1747 
Q 3116 2381 2855 2742 
Q 2594 3103 2138 3103 
Q 1681 3103 1420 2742 
Q 1159 2381 1159 1747 
Q 1159 1113 1420 752 
Q 1681 391 2138 391 
Q 2594 391 2855 752 
Q 3116 1113 3116 1747 
z
M 1159 2969 
Q 1341 3281 1617 3432 
Q 1894 3584 2278 3584 
Q 2916 3584 3314 3078 
Q 3713 2572 3713 1747 
Q 3713 922 3314 415 
Q 2916 -91 2278 -91 
Q 1894 -91 1617 61 
Q 1341 213 1159 525 
L 1159 0 
L 581 0 
L 581 4863 
L 1159 4863 
L 1159 2969 
z
" transform="scale(0.015625)"/>
       <path id="DejaVuSans-61" d="M 2194 1759 
Q 1497 1759 1228 1600 
Q 959 1441 959 1056 
Q 959 750 1161 570 
Q 1363 391 1709 391 
Q 2188 391 2477 730 
Q 2766 1069 2766 1631 
L 2766 1759 
L 2194 1759 
z
M 3341 1997 
L 3341 0 
L 2766 0 
L 2766 531 
Q 2569 213 2275 61 
Q 1981 -91 1556 -91 
Q 1019 -91 701 211 
Q 384 513 384 1019 
Q 384 1609 779 1909 
Q 1175 2209 1959 2209 
L 2766 2209 
L 2766 2266 
Q 2766 2663 2505 2880 
Q 2244 3097 1772 3097 
Q 1472 3097 1187 3025 
Q 903 2953 641 2809 
L 641 3341 
Q 956 3463 1253 3523 
Q 1550 3584 1831 3584 
Q 2591 3584 2966 3190 
Q 3341 2797 3341 1997 
z
" transform="scale(0.015625)"/>
       <path id="DejaVuSans-69" d="M 603 3500 
L 1178 3500 
L 1178 0 
L 603 0 
L 603 3500 
z
M 603 4863 
L 1178 4863 
L 1178 4134 
L 603 4134 
L 603 4863 
z
" transform="scale(0.015625)"/>
       <path id="DejaVuSans-6c" d="M 603 4863 
L 1178 4863 
L 1178 0 
L 603 0 
L 603 4863 
z
" transform="scale(0.015625)"/>
       <path id="DejaVuSans-74" d="M 1172 4494 
L 1172 3500 
L 2356 3500 
L 2356 3053 
L 1172 3053 
L 1172 1153 
Q 1172 725 1289 603 
Q 1406 481 1766 481 
L 2356 481 
L 2356 0 
L 1766 0 
Q 1100 0 847 248 
Q 594 497 594 1153 
L 594 3053 
L 172 3053 
L 172 3500 
L 594 3500 
L 594 4494 
L 1172 4494 
z
" transform="scale(0.015625)"/>
       <path id="DejaVuSans-79" d="M 2059 -325 
Q 1816 -950 1584 -1140 
Q 1353 -1331 966 -1331 
L 506 -1331 
L 506 -850 
L 844 -850 
Q 1081 -850 1212 -737 
Q 1344 -625 1503 -206 
L 1606 56 
L 191 3500 
L 800 3500 
L 1894 763 
L 2988 3500 
L 3597 3500 
L 2059 -325 
z
" transform="scale(0.015625)"/>
       <path id="DejaVuSans-20" transform="scale(0.015625)"/>
       <path id="DejaVuSans-66" d="M 2375 4863 
L 2375 4384 
L 1825 4384 
Q 1516 4384 1395 4259 
Q 1275 4134 1275 3809 
L 1275 3500 
L 2222 3500 
L 2222 3053 
L 1275 3053 
L 1275 0 
L 697 0 
L 697 3053 
L 147 3053 
L 147 3500 
L 697 3500 
L 697 3744 
Q 697 4328 969 4595 
Q 1241 4863 1831 4863 
L 2375 4863 
z
" transform="scale(0.015625)"/>
       <path id="DejaVuSans-6e" d="M 3513 2113 
L 3513 0 
L 2938 0 
L 2938 2094 
Q 2938 2591 2744 2837 
Q 2550 3084 2163 3084 
Q 1697 3084 1428 2787 
Q 1159 2491 1159 1978 
L 1159 0 
L 581 0 
L 581 3500 
L 1159 3500 
L 1159 2956 
Q 1366 3272 1645 3428 
Q 1925 3584 2291 3584 
Q 2894 3584 3203 3211 
Q 3513 2838 3513 2113 
z
" transform="scale(0.015625)"/>
       <path id="DejaVuSans-64" d="M 2906 2969 
L 2906 4863 
L 3481 4863 
L 3481 0 
L 2906 0 
L 2906 525 
Q 2725 213 2448 61 
Q 2172 -91 1784 -91 
Q 1150 -91 751 415 
Q 353 922 353 1747 
Q 353 2572 751 3078 
Q 1150 3584 1784 3584 
Q 2172 3584 2448 3432 
Q 2725 3281 2906 2969 
z
M 947 1747 
Q 947 1113 1208 752 
Q 1469 391 1925 391 
Q 2381 391 2643 752 
Q 2906 1113 2906 1747 
Q 2906 2381 2643 2742 
Q 2381 3103 1925 3103 
Q 1469 3103 1208 2742 
Q 947 2381 947 1747 
z
" transform="scale(0.015625)"/>
       <path id="DejaVuSans-65" d="M 3597 1894 
L 3597 1613 
L 953 1613 
Q 991 1019 1311 708 
Q 1631 397 2203 397 
Q 2534 397 2845 478 
Q 3156 559 3463 722 
L 3463 178 
Q 3153 47 2828 -22 
Q 2503 -91 2169 -91 
Q 1331 -91 842 396 
Q 353 884 353 1716 
Q 353 2575 817 3079 
Q 1281 3584 2069 3584 
Q 2775 3584 3186 3129 
Q 3597 2675 3597 1894 
z
M 3022 2063 
Q 3016 2534 2758 2815 
Q 2500 3097 2075 3097 
Q 1594 3097 1305 2825 
Q 1016 2553 972 2059 
L 3022 2063 
z
" transform="scale(0.015625)"/>
       <path id="DejaVuSans-6d" d="M 3328 2828 
Q 3544 3216 3844 3400 
Q 4144 3584 4550 3584 
Q 5097 3584 5394 3201 
Q 5691 2819 5691 2113 
L 5691 0 
L 5113 0 
L 5113 2094 
Q 5113 2597 4934 2840 
Q 4756 3084 4391 3084 
Q 3944 3084 3684 2787 
Q 3425 2491 3425 1978 
L 3425 0 
L 2847 0 
L 2847 2094 
Q 2847 2600 2669 2842 
Q 2491 3084 2119 3084 
Q 1678 3084 1418 2786 
Q 1159 2488 1159 1978 
L 1159 0 
L 581 0 
L 581 3500 
L 1159 3500 
L 1159 2956 
Q 1356 3278 1631 3431 
Q 1906 3584 2284 3584 
Q 2666 3584 2933 3390 
Q 3200 3197 3328 2828 
z
" transform="scale(0.015625)"/>
       <path id="DejaVuSans-63" d="M 3122 3366 
L 3122 2828 
Q 2878 2963 2633 3030 
Q 2388 3097 2138 3097 
Q 1578 3097 1268 2742 
Q 959 2388 959 1747 
Q 959 1106 1268 751 
Q 1578 397 2138 397 
Q 2388 397 2633 464 
Q 2878 531 3122 666 
L 3122 134 
Q 2881 22 2623 -34 
Q 2366 -91 2075 -91 
Q 1284 -91 818 406 
Q 353 903 353 1747 
Q 353 2603 823 3093 
Q 1294 3584 2113 3584 
Q 2378 3584 2631 3529 
Q 2884 3475 3122 3366 
z
" transform="scale(0.015625)"/>
      </defs>
      <use xlink:href="#DejaVuSans-50"/>
      <use xlink:href="#DejaVuSans-72" x="58.552734"/>
      <use xlink:href="#DejaVuSans-6f" x="97.416016"/>
      <use xlink:href="#DejaVuSans-62" x="158.597656"/>
      <use xlink:href="#DejaVuSans-61" x="222.074219"/>
      <use xlink:href="#DejaVuSans-62" x="283.353516"/>
      <use xlink:href="#DejaVuSans-69" x="346.830078"/>
      <use xlink:href="#DejaVuSans-6c" x="374.613281"/>
      <use xlink:href="#DejaVuSans-69" x="402.396484"/>
      <use xlink:href="#DejaVuSans-74" x="430.179688"/>
      <use xlink:href="#DejaVuSans-79" x="469.388672"/>
      <use xlink:href="#DejaVuSans-20" x="528.568359"/>
      <use xlink:href="#DejaVuSans-6f" x="560.355469"/>
      <use xlink:href="#DejaVuSans-66" x="621.537109"/>
      <use xlink:href="#DejaVuSans-20" x="656.742188"/>
      <use xlink:href="#DejaVuSans-50" x="688.529297"/>
      <use xlink:href="#DejaVuSans-61" x="744.332031"/>
      <use xlink:href="#DejaVuSans-6e" x="805.611328"/>
      <use xlink:href="#DejaVuSans-64" x="868.990234"/>
      <use xlink:href="#DejaVuSans-65" x="932.466797"/>
      <use xlink:href="#DejaVuSans-6d" x="993.990234"/>
      <use xlink:href="#DejaVuSans-69" x="1091.402344"/>
      <use xlink:href="#DejaVuSans-63" x="1119.185547"/>
     </g>
    </g>
   </g>
   <g id="matplotlib.axis_2">
    <g id="ytick_1">
     <g id="line2d_13">
      <path d="M 79.595 675.3057 
L 749.195 675.3057 
" clip-path="url(#p44ed2e6171)" style="fill: none; stroke: #b0b0b0; stroke-opacity: 0.3; stroke-width: 0.8; stroke-linecap: square"/>
     </g>
     <g id="line2d_14">
      <defs>
       <path id="m5b577322e8" d="M 0 0 
L -3.5 0 
" style="stroke: #000000; stroke-width: 0.8"/>
      </defs>
      <g>
       <use xlink:href="#m5b577322e8" x="79.595" y="675.3057" style="stroke: #000000; stroke-width: 0.8"/>
      </g>
     </g>
     <g id="text_8">
      <!-- 0.0 -->
      <g transform="translate(34.4275 684.423825) scale(0.24 -0.24)">
       <use xlink:href="#DejaVuSans-30"/>
       <use xlink:href="#DejaVuSans-2e" x="63.623047"/>
       <use xlink:href="#DejaVuSans-30" x="95.410156"/>
      </g>
     </g>
    </g>
    <g id="ytick_2">
     <g id="line2d_15">
      <path d="M 79.595 601.66183 
L 749.195 601.66183 
" clip-path="url(#p44ed2e6171)" style="fill: none; stroke: #b0b0b0; stroke-opacity: 0.3; stroke-width: 0.8; stroke-linecap: square"/>
     </g>
     <g id="line2d_16">
      <g>
       <use xlink:href="#m5b577322e8" x="79.595" y="601.66183" style="stroke: #000000; stroke-width: 0.8"/>
      </g>
     </g>
     <g id="text_9">
      <!-- 0.5 -->
      <g transform="translate(34.4275 610.779955) scale(0.24 -0.24)">
       <defs>
        <path id="DejaVuSans-35" d="M 691 4666 
L 3169 4666 
L 3169 4134 
L 1269 4134 
L 1269 2991 
Q 1406 3038 1543 3061 
Q 1681 3084 1819 3084 
Q 2600 3084 3056 2656 
Q 3513 2228 3513 1497 
Q 3513 744 3044 326 
Q 2575 -91 1722 -91 
Q 1428 -91 1123 -41 
Q 819 9 494 109 
L 494 744 
Q 775 591 1075 516 
Q 1375 441 1709 441 
Q 2250 441 2565 725 
Q 2881 1009 2881 1497 
Q 2881 1984 2565 2268 
Q 2250 2553 1709 2553 
Q 1456 2553 1204 2497 
Q 953 2441 691 2322 
L 691 4666 
z
" transform="scale(0.015625)"/>
       </defs>
       <use xlink:href="#DejaVuSans-30"/>
       <use xlink:href="#DejaVuSans-2e" x="63.623047"/>
       <use xlink:href="#DejaVuSans-35" x="95.410156"/>
      </g>
     </g>
    </g>
    <g id="ytick_3">
     <g id="line2d_17">
      <path d="M 79.595 528.017961 
L 749.195 528.017961 
" clip-path="url(#p44ed2e6171)" style="fill: none; stroke: #b0b0b0; stroke-opacity: 0.3; stroke-width: 0.8; stroke-linecap: square"/>
     </g>
     <g id="line2d_18">
      <g>
       <use xlink:href="#m5b577322e8" x="79.595" y="528.017961" style="stroke: #000000; stroke-width: 0.8"/>
      </g>
     </g>
     <g id="text_10">
      <!-- 1.0 -->
      <g transform="translate(34.4275 537.136086) scale(0.24 -0.24)">
       <use xlink:href="#DejaVuSans-31"/>
       <use xlink:href="#DejaVuSans-2e" x="63.623047"/>
       <use xlink:href="#DejaVuSans-30" x="95.410156"/>
      </g>
     </g>
    </g>
    <g id="ytick_4">
     <g id="line2d_19">
      <path d="M 79.595 454.374091 
L 749.195 454.374091 
" clip-path="url(#p44ed2e6171)" style="fill: none; stroke: #b0b0b0; stroke-opacity: 0.3; stroke-width: 0.8; stroke-linecap: square"/>
     </g>
     <g id="line2d_20">
      <g>
       <use xlink:href="#m5b577322e8" x="79.595" y="454.374091" style="stroke: #000000; stroke-width: 0.8"/>
      </g>
     </g>
     <g id="text_11">
      <!-- 1.5 -->
      <g transform="translate(34.4275 463.492216) scale(0.24 -0.24)">
       <use xlink:href="#DejaVuSans-31"/>
       <use xlink:href="#DejaVuSans-2e" x="63.623047"/>
       <use xlink:href="#DejaVuSans-35" x="95.410156"/>
      </g>
     </g>
    </g>
    <g id="ytick_5">
     <g id="line2d_21">
      <path d="M 79.595 380.730221 
L 749.195 380.730221 
" clip-path="url(#p44ed2e6171)" style="fill: none; stroke: #b0b0b0; stroke-opacity: 0.3; stroke-width: 0.8; stroke-linecap: square"/>
     </g>
     <g id="line2d_22">
      <g>
       <use xlink:href="#m5b577322e8" x="79.595" y="380.730221" style="stroke: #000000; stroke-width: 0.8"/>
      </g>
     </g>
     <g id="text_12">
      <!-- 2.0 -->
      <g transform="translate(34.4275 389.848346) scale(0.24 -0.24)">
       <use xlink:href="#DejaVuSans-32"/>
       <use xlink:href="#DejaVuSans-2e" x="63.623047"/>
       <use xlink:href="#DejaVuSans-30" x="95.410156"/>
      </g>
     </g>
    </g>
    <g id="ytick_6">
     <g id="line2d_23">
      <path d="M 79.595 307.086352 
L 749.195 307.086352 
" clip-path="url(#p44ed2e6171)" style="fill: none; stroke: #b0b0b0; stroke-opacity: 0.3; stroke-width: 0.8; stroke-linecap: square"/>
     </g>
     <g id="line2d_24">
      <g>
       <use xlink:href="#m5b577322e8" x="79.595" y="307.086352" style="stroke: #000000; stroke-width: 0.8"/>
      </g>
     </g>
     <g id="text_13">
      <!-- 2.5 -->
      <g transform="translate(34.4275 316.204477) scale(0.24 -0.24)">
       <use xlink:href="#DejaVuSans-32"/>
       <use xlink:href="#DejaVuSans-2e" x="63.623047"/>
       <use xlink:href="#DejaVuSans-35" x="95.410156"/>
      </g>
     </g>
    </g>
    <g id="ytick_7">
     <g id="line2d_25">
      <path d="M 79.595 233.442482 
L 749.195 233.442482 
" clip-path="url(#p44ed2e6171)" style="fill: none; stroke: #b0b0b0; stroke-opacity: 0.3; stroke-width: 0.8; stroke-linecap: square"/>
     </g>
     <g id="line2d_26">
      <g>
       <use xlink:href="#m5b577322e8" x="79.595" y="233.442482" style="stroke: #000000; stroke-width: 0.8"/>
      </g>
     </g>
     <g id="text_14">
      <!-- 3.0 -->
      <g transform="translate(34.4275 242.560607) scale(0.24 -0.24)">
       <defs>
        <path id="DejaVuSans-33" d="M 2597 2516 
Q 3050 2419 3304 2112 
Q 3559 1806 3559 1356 
Q 3559 666 3084 287 
Q 2609 -91 1734 -91 
Q 1441 -91 1130 -33 
Q 819 25 488 141 
L 488 750 
Q 750 597 1062 519 
Q 1375 441 1716 441 
Q 2309 441 2620 675 
Q 2931 909 2931 1356 
Q 2931 1769 2642 2001 
Q 2353 2234 1838 2234 
L 1294 2234 
L 1294 2753 
L 1863 2753 
Q 2328 2753 2575 2939 
Q 2822 3125 2822 3475 
Q 2822 3834 2567 4026 
Q 2313 4219 1838 4219 
Q 1578 4219 1281 4162 
Q 984 4106 628 3988 
L 628 4550 
Q 988 4650 1302 4700 
Q 1616 4750 1894 4750 
Q 2613 4750 3031 4423 
Q 3450 4097 3450 3541 
Q 3450 3153 3228 2886 
Q 3006 2619 2597 2516 
z
" transform="scale(0.015625)"/>
       </defs>
       <use xlink:href="#DejaVuSans-33"/>
       <use xlink:href="#DejaVuSans-2e" x="63.623047"/>
       <use xlink:href="#DejaVuSans-30" x="95.410156"/>
      </g>
     </g>
    </g>
    <g id="text_15">
     <!-- Density -->
     <g transform="translate(25.43625 499.166325) rotate(-90) scale(0.24 -0.24)">
      <defs>
       <path id="DejaVuSans-44" d="M 1259 4147 
L 1259 519 
L 2022 519 
Q 2988 519 3436 956 
Q 3884 1394 3884 2338 
Q 3884 3275 3436 3711 
Q 2988 4147 2022 4147 
L 1259 4147 
z
M 628 4666 
L 1925 4666 
Q 3281 4666 3915 4102 
Q 4550 3538 4550 2338 
Q 4550 1131 3912 565 
Q 3275 0 1925 0 
L 628 0 
L 628 4666 
z
" transform="scale(0.015625)"/>
       <path id="DejaVuSans-73" d="M 2834 3397 
L 2834 2853 
Q 2591 2978 2328 3040 
Q 2066 3103 1784 3103 
Q 1356 3103 1142 2972 
Q 928 2841 928 2578 
Q 928 2378 1081 2264 
Q 1234 2150 1697 2047 
L 1894 2003 
Q 2506 1872 2764 1633 
Q 3022 1394 3022 966 
Q 3022 478 2636 193 
Q 2250 -91 1575 -91 
Q 1294 -91 989 -36 
Q 684 19 347 128 
L 347 722 
Q 666 556 975 473 
Q 1284 391 1588 391 
Q 1994 391 2212 530 
Q 2431 669 2431 922 
Q 2431 1156 2273 1281 
Q 2116 1406 1581 1522 
L 1381 1569 
Q 847 1681 609 1914 
Q 372 2147 372 2553 
Q 372 3047 722 3315 
Q 1072 3584 1716 3584 
Q 2034 3584 2315 3537 
Q 2597 3491 2834 3397 
z
" transform="scale(0.015625)"/>
      </defs>
      <use xlink:href="#DejaVuSans-44"/>
      <use xlink:href="#DejaVuSans-65" x="77.001953"/>
      <use xlink:href="#DejaVuSans-6e" x="138.525391"/>
      <use xlink:href="#DejaVuSans-73" x="201.904297"/>
      <use xlink:href="#DejaVuSans-69" x="254.003906"/>
      <use xlink:href="#DejaVuSans-74" x="281.787109"/>
      <use xlink:href="#DejaVuSans-79" x="320.996094"/>
     </g>
    </g>
   </g>
   <g id="line2d_27">
    <path d="M 110.031364 467.050996 
L 113.078047 413.141302 
L 114.906057 384.685203 
L 116.12473 368.097784 
L 117.343403 353.692719 
L 118.562076 341.594521 
L 119.780749 331.8297 
L 120.999423 324.335629 
L 122.218096 318.974832 
L 122.827432 317.035312 
L 123.436769 315.552723 
L 124.046106 314.496965 
L 124.655442 313.83674 
L 125.264779 313.540105 
L 125.874115 313.574969 
L 126.483452 313.909543 
L 127.092789 314.512743 
L 127.702125 315.354529 
L 128.920799 317.640542 
L 130.139472 320.557419 
L 131.967482 325.727701 
L 135.014165 335.363579 
L 139.888857 350.826944 
L 142.935541 359.782241 
L 145.982224 368.085529 
L 149.028907 375.768602 
L 152.07559 382.876209 
L 155.122273 389.462751 
L 158.778292 396.791011 
L 163.043649 404.757434 
L 167.309005 412.274964 
L 171.574361 419.369751 
L 175.839717 425.993243 
L 180.105074 432.163222 
L 184.37043 437.960245 
L 188.635786 443.430879 
L 192.901143 448.563925 
L 197.166499 453.347471 
L 201.431855 457.80136 
L 206.306548 462.536628 
L 211.181241 466.955328 
L 216.66527 471.635665 
L 222.758636 476.564855 
L 228.242666 480.733968 
L 233.117359 484.14939 
L 237.992052 487.280956 
L 243.476081 490.528331 
L 258.10016 498.963931 
L 266.021536 503.810686 
L 270.286892 506.120611 
L 276.380258 509.116127 
L 291.004337 516.061459 
L 297.097703 518.608086 
L 303.800405 521.171855 
L 310.503108 523.511236 
L 332.439226 530.867051 
L 340.969939 533.898013 
L 345.235295 535.198987 
L 350.109988 536.438363 
L 359.859373 538.819149 
L 367.780749 541.128931 
L 375.702125 543.340142 
L 383.623501 545.584469 
L 394.59156 548.802822 
L 400.684926 550.233415 
L 407.387629 551.857511 
L 417.137015 554.363259 
L 420.793034 554.994197 
L 424.449054 555.389606 
L 434.19844 556.276517 
L 438.463796 556.994387 
L 444.557162 558.307789 
L 468.32129 563.635531 
L 473.805319 564.452833 
L 484.164042 565.886934 
L 489.648071 566.922914 
L 503.053477 569.592346 
L 517.068219 572.007406 
L 524.380258 573.364312 
L 529.254951 574.029319 
L 544.488366 575.866626 
L 550.581732 576.988945 
L 558.503108 578.421698 
L 563.987138 579.166738 
L 580.439226 581.221714 
L 588.360602 582.541218 
L 596.891314 583.922326 
L 614.562076 586.549047 
L 626.139472 588.39881 
L 640.76355 590.60445 
L 646.24758 591.674804 
L 651.731609 592.970583 
L 658.434312 594.817543 
L 666.965025 597.421174 
L 673.058391 599.493768 
L 677.933084 601.371585 
L 682.19844 603.243056 
L 685.854459 605.062295 
L 689.510479 607.128505 
L 692.557162 609.102251 
L 694.994509 610.915782 
L 697.431855 613.024096 
L 699.259865 614.862307 
L 701.087875 616.977642 
L 702.915885 619.421955 
L 704.743894 622.240474 
L 706.571904 625.463234 
L 708.399914 629.09599 
L 710.83726 634.52633 
L 713.883943 642.004144 
L 718.758636 654.176872 
L 718.758636 654.176872 
" clip-path="url(#p44ed2e6171)" style="fill: none; stroke: #008000; stroke-width: 2; stroke-linecap: square"/>
   </g>
   <g id="line2d_28">
    <path d="M 333.166854 675.3057 
L 333.166854 231.7857 
" clip-path="url(#p44ed2e6171)" style="fill: none; stroke-dasharray: 7.4,3.2; stroke-dashoffset: 0; stroke: #ff0000; stroke-width: 2"/>
   </g>
   <g id="line2d_29">
    <path d="M 110.454024 675.3057 
L 110.454024 231.7857 
" clip-path="url(#p44ed2e6171)" style="fill: none; stroke-dasharray: 2,3.3; stroke-dashoffset: 0; stroke: #ffa500; stroke-width: 2"/>
   </g>
   <g id="line2d_30">
    <path d="M 120.899363 675.3057 
L 120.899363 231.7857 
" clip-path="url(#p44ed2e6171)" style="fill: none; stroke-dasharray: 2,3.3; stroke-dashoffset: 0; stroke: #ffa500; stroke-width: 2"/>
   </g>
   <g id="patch_53">
    <path d="M 79.595 675.3057 
L 79.595 231.7857 
" style="fill: none; stroke: #000000; stroke-width: 0.8; stroke-linejoin: miter; stroke-linecap: square"/>
   </g>
   <g id="patch_54">
    <path d="M 749.195 675.3057 
L 749.195 231.7857 
" style="fill: none; stroke: #000000; stroke-width: 0.8; stroke-linejoin: miter; stroke-linecap: square"/>
   </g>
   <g id="patch_55">
    <path d="M 79.595 675.3057 
L 749.195 675.3057 
" style="fill: none; stroke: #000000; stroke-width: 0.8; stroke-linejoin: miter; stroke-linecap: square"/>
   </g>
   <g id="patch_56">
    <path d="M 79.595 231.7857 
L 749.195 231.7857 
" style="fill: none; stroke: #000000; stroke-width: 0.8; stroke-linejoin: miter; stroke-linecap: square"/>
   </g>
   <g id="text_16">
    <!-- Posterior Predictive Distribution -->
    <g transform="translate(186.62975 29.0835) scale(0.288 -0.288)">
     <defs>
      <path id="DejaVuSans-76" d="M 191 3500 
L 800 3500 
L 1894 563 
L 2988 3500 
L 3597 3500 
L 2284 0 
L 1503 0 
L 191 3500 
z
" transform="scale(0.015625)"/>
      <path id="DejaVuSans-75" d="M 544 1381 
L 544 3500 
L 1119 3500 
L 1119 1403 
Q 1119 906 1312 657 
Q 1506 409 1894 409 
Q 2359 409 2629 706 
Q 2900 1003 2900 1516 
L 2900 3500 
L 3475 3500 
L 3475 0 
L 2900 0 
L 2900 538 
Q 2691 219 2414 64 
Q 2138 -91 1772 -91 
Q 1169 -91 856 284 
Q 544 659 544 1381 
z
M 1991 3584 
L 1991 3584 
z
" transform="scale(0.015625)"/>
     </defs>
     <use xlink:href="#DejaVuSans-50"/>
     <use xlink:href="#DejaVuSans-6f" x="56.677734"/>
     <use xlink:href="#DejaVuSans-73" x="117.859375"/>
     <use xlink:href="#DejaVuSans-74" x="169.958984"/>
     <use xlink:href="#DejaVuSans-65" x="209.167969"/>
     <use xlink:href="#DejaVuSans-72" x="270.691406"/>
     <use xlink:href="#DejaVuSans-69" x="311.804688"/>
     <use xlink:href="#DejaVuSans-6f" x="339.587891"/>
     <use xlink:href="#DejaVuSans-72" x="400.769531"/>
     <use xlink:href="#DejaVuSans-20" x="441.882812"/>
     <use xlink:href="#DejaVuSans-50" x="473.669922"/>
     <use xlink:href="#DejaVuSans-72" x="532.222656"/>
     <use xlink:href="#DejaVuSans-65" x="571.085938"/>
     <use xlink:href="#DejaVuSans-64" x="632.609375"/>
     <use xlink:href="#DejaVuSans-69" x="696.085938"/>
     <use xlink:href="#DejaVuSans-63" x="723.869141"/>
     <use xlink:href="#DejaVuSans-74" x="778.849609"/>
     <use xlink:href="#DejaVuSans-69" x="818.058594"/>
     <use xlink:href="#DejaVuSans-76" x="845.841797"/>
     <use xlink:href="#DejaVuSans-65" x="905.021484"/>
     <use xlink:href="#DejaVuSans-20" x="966.544922"/>
     <use xlink:href="#DejaVuSans-44" x="998.332031"/>
     <use xlink:href="#DejaVuSans-69" x="1075.333984"/>
     <use xlink:href="#DejaVuSans-73" x="1103.117188"/>
     <use xlink:href="#DejaVuSans-74" x="1155.216797"/>
     <use xlink:href="#DejaVuSans-72" x="1194.425781"/>
     <use xlink:href="#DejaVuSans-69" x="1235.539062"/>
     <use xlink:href="#DejaVuSans-62" x="1263.322266"/>
     <use xlink:href="#DejaVuSans-75" x="1326.798828"/>
     <use xlink:href="#DejaVuSans-74" x="1390.177734"/>
     <use xlink:href="#DejaVuSans-69" x="1429.386719"/>
     <use xlink:href="#DejaVuSans-6f" x="1457.169922"/>
     <use xlink:href="#DejaVuSans-6e" x="1518.351562"/>
    </g>
    <!-- Lassa Fever -->
    <g transform="translate(329.489 61.3332) scale(0.288 -0.288)">
     <defs>
      <path id="DejaVuSans-4c" d="M 628 4666 
L 1259 4666 
L 1259 531 
L 3531 531 
L 3531 0 
L 628 0 
L 628 4666 
z
" transform="scale(0.015625)"/>
      <path id="DejaVuSans-46" d="M 628 4666 
L 3309 4666 
L 3309 4134 
L 1259 4134 
L 1259 2759 
L 3109 2759 
L 3109 2228 
L 1259 2228 
L 1259 0 
L 628 0 
L 628 4666 
z
" transform="scale(0.015625)"/>
     </defs>
     <use xlink:href="#DejaVuSans-4c"/>
     <use xlink:href="#DejaVuSans-61" x="55.712891"/>
     <use xlink:href="#DejaVuSans-73" x="116.992188"/>
     <use xlink:href="#DejaVuSans-73" x="169.091797"/>
     <use xlink:href="#DejaVuSans-61" x="221.191406"/>
     <use xlink:href="#DejaVuSans-20" x="282.470703"/>
     <use xlink:href="#DejaVuSans-46" x="314.257812"/>
     <use xlink:href="#DejaVuSans-65" x="366.277344"/>
     <use xlink:href="#DejaVuSans-76" x="427.800781"/>
     <use xlink:href="#DejaVuSans-65" x="486.980469"/>
     <use xlink:href="#DejaVuSans-72" x="548.503906"/>
    </g>
    <!-- R0_min: 1.5400 -->
    <g transform="translate(301.06025 93.5829) scale(0.288 -0.288)">
     <defs>
      <path id="DejaVuSans-52" d="M 2841 2188 
Q 3044 2119 3236 1894 
Q 3428 1669 3622 1275 
L 4263 0 
L 3584 0 
L 2988 1197 
Q 2756 1666 2539 1819 
Q 2322 1972 1947 1972 
L 1259 1972 
L 1259 0 
L 628 0 
L 628 4666 
L 2053 4666 
Q 2853 4666 3247 4331 
Q 3641 3997 3641 3322 
Q 3641 2881 3436 2590 
Q 3231 2300 2841 2188 
z
M 1259 4147 
L 1259 2491 
L 2053 2491 
Q 2509 2491 2742 2702 
Q 2975 2913 2975 3322 
Q 2975 3731 2742 3939 
Q 2509 4147 2053 4147 
L 1259 4147 
z
" transform="scale(0.015625)"/>
      <path id="DejaVuSans-5f" d="M 3263 -1063 
L 3263 -1509 
L -63 -1509 
L -63 -1063 
L 3263 -1063 
z
" transform="scale(0.015625)"/>
      <path id="DejaVuSans-3a" d="M 750 794 
L 1409 794 
L 1409 0 
L 750 0 
L 750 794 
z
M 750 3309 
L 1409 3309 
L 1409 2516 
L 750 2516 
L 750 3309 
z
" transform="scale(0.015625)"/>
     </defs>
     <use xlink:href="#DejaVuSans-52"/>
     <use xlink:href="#DejaVuSans-30" x="69.482422"/>
     <use xlink:href="#DejaVuSans-5f" x="133.105469"/>
     <use xlink:href="#DejaVuSans-6d" x="183.105469"/>
     <use xlink:href="#DejaVuSans-69" x="280.517578"/>
     <use xlink:href="#DejaVuSans-6e" x="308.300781"/>
     <use xlink:href="#DejaVuSans-3a" x="371.679688"/>
     <use xlink:href="#DejaVuSans-20" x="405.371094"/>
     <use xlink:href="#DejaVuSans-31" x="437.158203"/>
     <use xlink:href="#DejaVuSans-2e" x="500.78125"/>
     <use xlink:href="#DejaVuSans-35" x="532.568359"/>
     <use xlink:href="#DejaVuSans-34" x="596.191406"/>
     <use xlink:href="#DejaVuSans-30" x="659.814453"/>
     <use xlink:href="#DejaVuSans-30" x="723.4375"/>
    </g>
    <!-- infectious_period_average_days: 21.0000 -->
    <g transform="translate(114.94025 126.6336) scale(0.288 -0.288)">
     <defs>
      <path id="DejaVuSans-70" d="M 1159 525 
L 1159 -1331 
L 581 -1331 
L 581 3500 
L 1159 3500 
L 1159 2969 
Q 1341 3281 1617 3432 
Q 1894 3584 2278 3584 
Q 2916 3584 3314 3078 
Q 3713 2572 3713 1747 
Q 3713 922 3314 415 
Q 2916 -91 2278 -91 
Q 1894 -91 1617 61 
Q 1341 213 1159 525 
z
M 3116 1747 
Q 3116 2381 2855 2742 
Q 2594 3103 2138 3103 
Q 1681 3103 1420 2742 
Q 1159 2381 1159 1747 
Q 1159 1113 1420 752 
Q 1681 391 2138 391 
Q 2594 391 2855 752 
Q 3116 1113 3116 1747 
z
" transform="scale(0.015625)"/>
      <path id="DejaVuSans-67" d="M 2906 1791 
Q 2906 2416 2648 2759 
Q 2391 3103 1925 3103 
Q 1463 3103 1205 2759 
Q 947 2416 947 1791 
Q 947 1169 1205 825 
Q 1463 481 1925 481 
Q 2391 481 2648 825 
Q 2906 1169 2906 1791 
z
M 3481 434 
Q 3481 -459 3084 -895 
Q 2688 -1331 1869 -1331 
Q 1566 -1331 1297 -1286 
Q 1028 -1241 775 -1147 
L 775 -588 
Q 1028 -725 1275 -790 
Q 1522 -856 1778 -856 
Q 2344 -856 2625 -561 
Q 2906 -266 2906 331 
L 2906 616 
Q 2728 306 2450 153 
Q 2172 0 1784 0 
Q 1141 0 747 490 
Q 353 981 353 1791 
Q 353 2603 747 3093 
Q 1141 3584 1784 3584 
Q 2172 3584 2450 3431 
Q 2728 3278 2906 2969 
L 2906 3500 
L 3481 3500 
L 3481 434 
z
" transform="scale(0.015625)"/>
     </defs>
     <use xlink:href="#DejaVuSans-69"/>
     <use xlink:href="#DejaVuSans-6e" x="27.783203"/>
     <use xlink:href="#DejaVuSans-66" x="91.162109"/>
     <use xlink:href="#DejaVuSans-65" x="126.367188"/>
     <use xlink:href="#DejaVuSans-63" x="187.890625"/>
     <use xlink:href="#DejaVuSans-74" x="242.871094"/>
     <use xlink:href="#DejaVuSans-69" x="282.080078"/>
     <use xlink:href="#DejaVuSans-6f" x="309.863281"/>
     <use xlink:href="#DejaVuSans-75" x="371.044922"/>
     <use xlink:href="#DejaVuSans-73" x="434.423828"/>
     <use xlink:href="#DejaVuSans-5f" x="486.523438"/>
     <use xlink:href="#DejaVuSans-70" x="536.523438"/>
     <use xlink:href="#DejaVuSans-65" x="600"/>
     <use xlink:href="#DejaVuSans-72" x="661.523438"/>
     <use xlink:href="#DejaVuSans-69" x="702.636719"/>
     <use xlink:href="#DejaVuSans-6f" x="730.419922"/>
     <use xlink:href="#DejaVuSans-64" x="791.601562"/>
     <use xlink:href="#DejaVuSans-5f" x="855.078125"/>
     <use xlink:href="#DejaVuSans-61" x="905.078125"/>
     <use xlink:href="#DejaVuSans-76" x="966.357422"/>
     <use xlink:href="#DejaVuSans-65" x="1025.537109"/>
     <use xlink:href="#DejaVuSans-72" x="1087.060547"/>
     <use xlink:href="#DejaVuSans-61" x="1128.173828"/>
     <use xlink:href="#DejaVuSans-67" x="1189.453125"/>
     <use xlink:href="#DejaVuSans-65" x="1252.929688"/>
     <use xlink:href="#DejaVuSans-5f" x="1314.453125"/>
     <use xlink:href="#DejaVuSans-64" x="1364.453125"/>
     <use xlink:href="#DejaVuSans-61" x="1427.929688"/>
     <use xlink:href="#DejaVuSans-79" x="1489.208984"/>
     <use xlink:href="#DejaVuSans-73" x="1548.388672"/>
     <use xlink:href="#DejaVuSans-3a" x="1600.488281"/>
     <use xlink:href="#DejaVuSans-20" x="1634.179688"/>
     <use xlink:href="#DejaVuSans-32" x="1665.966797"/>
     <use xlink:href="#DejaVuSans-31" x="1729.589844"/>
     <use xlink:href="#DejaVuSans-2e" x="1793.212891"/>
     <use xlink:href="#DejaVuSans-30" x="1825"/>
     <use xlink:href="#DejaVuSans-30" x="1888.623047"/>
     <use xlink:href="#DejaVuSans-30" x="1952.246094"/>
     <use xlink:href="#DejaVuSans-30" x="2015.869141"/>
    </g>
    <!-- lethality_rate: 0.0100 -->
    <g transform="translate(259.505 159.6843) scale(0.288 -0.288)">
     <defs>
      <path id="DejaVuSans-68" d="M 3513 2113 
L 3513 0 
L 2938 0 
L 2938 2094 
Q 2938 2591 2744 2837 
Q 2550 3084 2163 3084 
Q 1697 3084 1428 2787 
Q 1159 2491 1159 1978 
L 1159 0 
L 581 0 
L 581 4863 
L 1159 4863 
L 1159 2956 
Q 1366 3272 1645 3428 
Q 1925 3584 2291 3584 
Q 2894 3584 3203 3211 
Q 3513 2838 3513 2113 
z
" transform="scale(0.015625)"/>
     </defs>
     <use xlink:href="#DejaVuSans-6c"/>
     <use xlink:href="#DejaVuSans-65" x="27.783203"/>
     <use xlink:href="#DejaVuSans-74" x="89.306641"/>
     <use xlink:href="#DejaVuSans-68" x="128.515625"/>
     <use xlink:href="#DejaVuSans-61" x="191.894531"/>
     <use xlink:href="#DejaVuSans-6c" x="253.173828"/>
     <use xlink:href="#DejaVuSans-69" x="280.957031"/>
     <use xlink:href="#DejaVuSans-74" x="308.740234"/>
     <use xlink:href="#DejaVuSans-79" x="347.949219"/>
     <use xlink:href="#DejaVuSans-5f" x="407.128906"/>
     <use xlink:href="#DejaVuSans-72" x="457.128906"/>
     <use xlink:href="#DejaVuSans-61" x="498.242188"/>
     <use xlink:href="#DejaVuSans-74" x="559.521484"/>
     <use xlink:href="#DejaVuSans-65" x="598.730469"/>
     <use xlink:href="#DejaVuSans-3a" x="660.253906"/>
     <use xlink:href="#DejaVuSans-20" x="693.945312"/>
     <use xlink:href="#DejaVuSans-30" x="725.732422"/>
     <use xlink:href="#DejaVuSans-2e" x="789.355469"/>
     <use xlink:href="#DejaVuSans-30" x="821.142578"/>
     <use xlink:href="#DejaVuSans-31" x="884.765625"/>
     <use xlink:href="#DejaVuSans-30" x="948.388672"/>
     <use xlink:href="#DejaVuSans-30" x="1012.011719"/>
    </g>
    <!-- incubation_period_days_min: 6.0000 -->
    <g transform="translate(150.24275 192.735) scale(0.288 -0.288)">
     <use xlink:href="#DejaVuSans-69"/>
     <use xlink:href="#DejaVuSans-6e" x="27.783203"/>
     <use xlink:href="#DejaVuSans-63" x="91.162109"/>
     <use xlink:href="#DejaVuSans-75" x="146.142578"/>
     <use xlink:href="#DejaVuSans-62" x="209.521484"/>
     <use xlink:href="#DejaVuSans-61" x="272.998047"/>
     <use xlink:href="#DejaVuSans-74" x="334.277344"/>
     <use xlink:href="#DejaVuSans-69" x="373.486328"/>
     <use xlink:href="#DejaVuSans-6f" x="401.269531"/>
     <use xlink:href="#DejaVuSans-6e" x="462.451172"/>
     <use xlink:href="#DejaVuSans-5f" x="525.830078"/>
     <use xlink:href="#DejaVuSans-70" x="575.830078"/>
     <use xlink:href="#DejaVuSans-65" x="639.306641"/>
     <use xlink:href="#DejaVuSans-72" x="700.830078"/>
     <use xlink:href="#DejaVuSans-69" x="741.943359"/>
     <use xlink:href="#DejaVuSans-6f" x="769.726562"/>
     <use xlink:href="#DejaVuSans-64" x="830.908203"/>
     <use xlink:href="#DejaVuSans-5f" x="894.384766"/>
     <use xlink:href="#DejaVuSans-64" x="944.384766"/>
     <use xlink:href="#DejaVuSans-61" x="1007.861328"/>
     <use xlink:href="#DejaVuSans-79" x="1069.140625"/>
     <use xlink:href="#DejaVuSans-73" x="1128.320312"/>
     <use xlink:href="#DejaVuSans-5f" x="1180.419922"/>
     <use xlink:href="#DejaVuSans-6d" x="1230.419922"/>
     <use xlink:href="#DejaVuSans-69" x="1327.832031"/>
     <use xlink:href="#DejaVuSans-6e" x="1355.615234"/>
     <use xlink:href="#DejaVuSans-3a" x="1418.994141"/>
     <use xlink:href="#DejaVuSans-20" x="1452.685547"/>
     <use xlink:href="#DejaVuSans-36" x="1484.472656"/>
     <use xlink:href="#DejaVuSans-2e" x="1548.095703"/>
     <use xlink:href="#DejaVuSans-30" x="1579.882812"/>
     <use xlink:href="#DejaVuSans-30" x="1643.505859"/>
     <use xlink:href="#DejaVuSans-30" x="1707.128906"/>
     <use xlink:href="#DejaVuSans-30" x="1770.751953"/>
    </g>
    <!--  -->
    <g transform="translate(414.395 225.7857) scale(0.288 -0.288)"/>
   </g>
   <g id="legend_1">
    <g id="patch_57">
     <path d="M 425.02625 356.6682 
L 732.395 356.6682 
Q 737.195 356.6682 737.195 351.8682 
L 737.195 248.5857 
Q 737.195 243.7857 732.395 243.7857 
L 425.02625 243.7857 
Q 420.22625 243.7857 420.22625 248.5857 
L 420.22625 351.8682 
Q 420.22625 356.6682 425.02625 356.6682 
z
" style="fill: #ffffff; opacity: 0.8; stroke: #cccccc; stroke-linejoin: miter"/>
    </g>
    <g id="line2d_31">
     <path d="M 429.82625 263.22195 
L 453.82625 263.22195 
L 477.82625 263.22195 
" style="fill: none; stroke-dasharray: 7.4,3.2; stroke-dashoffset: 0; stroke: #ff0000; stroke-width: 2"/>
    </g>
    <g id="text_17">
     <!-- Mean: 0.3666 -->
     <g transform="translate(497.02625 271.62195) scale(0.24 -0.24)">
      <defs>
       <path id="DejaVuSans-4d" d="M 628 4666 
L 1569 4666 
L 2759 1491 
L 3956 4666 
L 4897 4666 
L 4897 0 
L 4281 0 
L 4281 4097 
L 3078 897 
L 2444 897 
L 1241 4097 
L 1241 0 
L 628 0 
L 628 4666 
z
" transform="scale(0.015625)"/>
      </defs>
      <use xlink:href="#DejaVuSans-4d"/>
      <use xlink:href="#DejaVuSans-65" x="86.279297"/>
      <use xlink:href="#DejaVuSans-61" x="147.802734"/>
      <use xlink:href="#DejaVuSans-6e" x="209.082031"/>
      <use xlink:href="#DejaVuSans-3a" x="272.460938"/>
      <use xlink:href="#DejaVuSans-20" x="306.152344"/>
      <use xlink:href="#DejaVuSans-30" x="337.939453"/>
      <use xlink:href="#DejaVuSans-2e" x="401.5625"/>
      <use xlink:href="#DejaVuSans-33" x="433.349609"/>
      <use xlink:href="#DejaVuSans-36" x="496.972656"/>
      <use xlink:href="#DejaVuSans-36" x="560.595703"/>
      <use xlink:href="#DejaVuSans-36" x="624.21875"/>
     </g>
    </g>
    <g id="line2d_32">
     <path d="M 429.82625 298.44945 
L 453.82625 298.44945 
L 477.82625 298.44945 
" style="fill: none; stroke-dasharray: 2,3.3; stroke-dashoffset: 0; stroke: #ffa500; stroke-width: 2"/>
    </g>
    <g id="text_18">
     <!-- HPD Lower: 0.0007 -->
     <g transform="translate(497.02625 306.84945) scale(0.24 -0.24)">
      <defs>
       <path id="DejaVuSans-48" d="M 628 4666 
L 1259 4666 
L 1259 2753 
L 3553 2753 
L 3553 4666 
L 4184 4666 
L 4184 0 
L 3553 0 
L 3553 2222 
L 1259 2222 
L 1259 0 
L 628 0 
L 628 4666 
z
" transform="scale(0.015625)"/>
       <path id="DejaVuSans-77" d="M 269 3500 
L 844 3500 
L 1563 769 
L 2278 3500 
L 2956 3500 
L 3675 769 
L 4391 3500 
L 4966 3500 
L 4050 0 
L 3372 0 
L 2619 2869 
L 1863 0 
L 1184 0 
L 269 3500 
z
" transform="scale(0.015625)"/>
       <path id="DejaVuSans-37" d="M 525 4666 
L 3525 4666 
L 3525 4397 
L 1831 0 
L 1172 0 
L 2766 4134 
L 525 4134 
L 525 4666 
z
" transform="scale(0.015625)"/>
      </defs>
      <use xlink:href="#DejaVuSans-48"/>
      <use xlink:href="#DejaVuSans-50" x="75.195312"/>
      <use xlink:href="#DejaVuSans-44" x="135.498047"/>
      <use xlink:href="#DejaVuSans-20" x="212.5"/>
      <use xlink:href="#DejaVuSans-4c" x="244.287109"/>
      <use xlink:href="#DejaVuSans-6f" x="298.25"/>
      <use xlink:href="#DejaVuSans-77" x="359.431641"/>
      <use xlink:href="#DejaVuSans-65" x="441.21875"/>
      <use xlink:href="#DejaVuSans-72" x="502.742188"/>
      <use xlink:href="#DejaVuSans-3a" x="542.105469"/>
      <use xlink:href="#DejaVuSans-20" x="575.796875"/>
      <use xlink:href="#DejaVuSans-30" x="607.583984"/>
      <use xlink:href="#DejaVuSans-2e" x="671.207031"/>
      <use xlink:href="#DejaVuSans-30" x="702.994141"/>
      <use xlink:href="#DejaVuSans-30" x="766.617188"/>
      <use xlink:href="#DejaVuSans-30" x="830.240234"/>
      <use xlink:href="#DejaVuSans-37" x="893.863281"/>
     </g>
    </g>
    <g id="line2d_33">
     <path d="M 429.82625 333.67695 
L 453.82625 333.67695 
L 477.82625 333.67695 
" style="fill: none; stroke-dasharray: 2,3.3; stroke-dashoffset: 0; stroke: #ffa500; stroke-width: 2"/>
    </g>
    <g id="text_19">
     <!-- HPD Upper: 0.0179 -->
     <g transform="translate(497.02625 342.07695) scale(0.24 -0.24)">
      <defs>
       <path id="DejaVuSans-55" d="M 556 4666 
L 1191 4666 
L 1191 1831 
Q 1191 1081 1462 751 
Q 1734 422 2344 422 
Q 2950 422 3222 751 
Q 3494 1081 3494 1831 
L 3494 4666 
L 4128 4666 
L 4128 1753 
Q 4128 841 3676 375 
Q 3225 -91 2344 -91 
Q 1459 -91 1007 375 
Q 556 841 556 1753 
L 556 4666 
z
" transform="scale(0.015625)"/>
       <path id="DejaVuSans-39" d="M 703 97 
L 703 672 
Q 941 559 1184 500 
Q 1428 441 1663 441 
Q 2288 441 2617 861 
Q 2947 1281 2994 2138 
Q 2813 1869 2534 1725 
Q 2256 1581 1919 1581 
Q 1219 1581 811 2004 
Q 403 2428 403 3163 
Q 403 3881 828 4315 
Q 1253 4750 1959 4750 
Q 2769 4750 3195 4129 
Q 3622 3509 3622 2328 
Q 3622 1225 3098 567 
Q 2575 -91 1691 -91 
Q 1453 -91 1209 -44 
Q 966 3 703 97 
z
M 1959 2075 
Q 2384 2075 2632 2365 
Q 2881 2656 2881 3163 
Q 2881 3666 2632 3958 
Q 2384 4250 1959 4250 
Q 1534 4250 1286 3958 
Q 1038 3666 1038 3163 
Q 1038 2656 1286 2365 
Q 1534 2075 1959 2075 
z
" transform="scale(0.015625)"/>
      </defs>
      <use xlink:href="#DejaVuSans-48"/>
      <use xlink:href="#DejaVuSans-50" x="75.195312"/>
      <use xlink:href="#DejaVuSans-44" x="135.498047"/>
      <use xlink:href="#DejaVuSans-20" x="212.5"/>
      <use xlink:href="#DejaVuSans-55" x="244.287109"/>
      <use xlink:href="#DejaVuSans-70" x="317.480469"/>
      <use xlink:href="#DejaVuSans-70" x="380.957031"/>
      <use xlink:href="#DejaVuSans-65" x="444.433594"/>
      <use xlink:href="#DejaVuSans-72" x="505.957031"/>
      <use xlink:href="#DejaVuSans-3a" x="545.320312"/>
      <use xlink:href="#DejaVuSans-20" x="579.011719"/>
      <use xlink:href="#DejaVuSans-30" x="610.798828"/>
      <use xlink:href="#DejaVuSans-2e" x="674.421875"/>
      <use xlink:href="#DejaVuSans-30" x="706.208984"/>
      <use xlink:href="#DejaVuSans-31" x="769.832031"/>
      <use xlink:href="#DejaVuSans-37" x="833.455078"/>
      <use xlink:href="#DejaVuSans-39" x="897.078125"/>
     </g>
    </g>
   </g>
  </g>
 </g>
 <defs>
  <clipPath id="p44ed2e6171">
   <rect x="79.595" y="231.7857" width="669.6" height="443.52"/>
  </clipPath>
 </defs>
</svg>
